<svg width="350" height="350" viewBox="0 0 350 350" fill="none" xmlns="http://www.w3.org/2000/svg">
<path d="M317.711 89.5473C317.519 88.2348 317.379 87.7973 315.734 87.0448C308.856 84.1923 283.096 83.7898 275.659 83.7023C275.685 82.2728 275.354 80.8592 274.696 79.5898C271.914 76.7723 254.116 77.1048 250.336 76.3348C249.986 76.3348 250.021 76.3348 249.934 76.0198C249.041 73.8323 248.814 66.4998 247.361 63.9448C244.649 59.1498 234.359 56.4023 228.006 60.9348C224.729 59.9471 221.227 59.996 217.979 61.0748C216.228 61.7875 214.653 62.874 213.366 64.2584C212.078 65.6428 211.108 67.2917 210.524 69.0898C209.535 72.3972 208.999 75.8234 208.931 79.2748C205.694 80.3423 188.824 81.6023 186.881 84.1223C186.402 84.8576 186.086 85.687 185.954 86.5548C174.054 87.4473 175.331 87.6048 175.191 87.1848C170.746 73.3423 154.734 59.4998 154.734 59.4998C154.366 59.1673 153.999 59.4998 153.194 59.8498C152.279 57.2488 151.106 54.7456 149.694 52.3773C149.728 51.7934 149.53 51.2197 149.143 50.7807C148.756 50.3417 148.212 50.0728 147.629 50.0323C149.204 48.1598 146.579 45.1673 142.974 47.6348C142.361 46.7423 141.714 45.8848 141.049 44.9398C141.445 44.687 141.804 44.3808 142.116 44.0298C142.484 43.3648 140.366 44.0298 152.949 41.6673C155.276 41.1948 165.549 39.1123 166.949 38.6573C167.108 38.638 167.255 38.565 167.366 38.4504C167.478 38.3358 167.547 38.1865 167.561 38.0273C170.011 36.6798 167.281 29.3998 166.231 26.8098C170.589 22.5923 169.731 18.0598 166.039 16.7473C164.337 16.2264 162.532 16.1422 160.789 16.5023C159.134 13.643 156.884 11.1723 154.191 9.25733C152.214 8.17233 150.691 8.83733 150.236 9.86983C149.781 10.9023 132.946 30.8698 132.736 30.9923C129.551 31.9023 124.844 33.8973 123.286 36.8198C119.681 43.6623 126.681 52.0623 133.506 49.4023L134.749 48.9998C135.484 50.0673 136.394 51.2748 137.199 52.3423C137.046 52.6225 136.917 52.9152 136.814 53.2173C136.621 53.8473 135.344 55.5273 136.184 57.2073C137.024 58.8873 142.834 62.9823 144.584 64.0848L144.216 64.2773C144.095 64.3279 143.998 64.4237 143.946 64.5445C143.893 64.6653 143.89 64.8017 143.936 64.9248C144.951 67.8998 150.429 82.1448 147.769 81.5848C143.884 80.7448 134.276 76.9823 122.586 73.1673C116.164 71.0673 111.859 69.0373 106.136 67.7073C105.716 64.9598 105.244 64.0848 104.824 61.8623C106.713 61.0571 108.312 59.6959 109.409 57.9598C110.039 56.9098 109.304 57.3298 110.634 57.5923C111.066 57.7209 111.53 57.6781 111.931 57.4727C112.332 57.2674 112.638 56.9153 112.786 56.4898C114.361 57.0323 115.866 56.1398 115.516 54.3023C116.636 54.3023 118.701 54.3023 119.016 52.3598C119.489 50.0148 116.584 49.1923 115.849 48.3173C114.525 46.6728 113.57 44.763 113.049 42.7173C111.299 37.1173 109.934 27.6673 106.854 24.0798C105.89 23.0134 104.704 22.1705 103.38 21.6101C102.056 21.0496 100.626 20.7852 99.1893 20.8352C97.7526 20.8852 96.3441 21.2484 95.0623 21.8996C93.7806 22.5507 92.6566 23.474 91.7689 24.6048C90.6552 23.974 89.4831 23.4524 88.2689 23.0473C86.781 22.8046 85.259 22.872 83.7984 23.2454C82.3378 23.6189 80.9702 24.2902 79.7814 25.2173C74.0414 30.0998 76.9989 38.4998 73.1314 47.5123C71.9239 50.3123 65.9039 56.3498 70.3139 58.6423C70.769 58.7827 71.2538 58.7966 71.7162 58.6825C72.1786 58.5685 72.6013 58.3307 72.9389 57.9948C72.9819 58.4474 73.1127 58.8873 73.3239 59.2898C73.8487 59.9181 74.5282 60.3986 75.2955 60.684C76.0627 60.9694 76.8911 61.0499 77.6989 60.9173C78.1998 60.7517 78.6511 60.4628 79.0114 60.0773C79.1288 60.4407 79.3401 60.7667 79.6239 61.0223C81.0589 62.1598 82.8089 62.0548 84.3139 59.7798C84.5479 60.1103 84.8718 60.3667 85.2471 60.5186C85.6224 60.6706 86.0334 60.7118 86.4314 60.6373V66.4298C85.4689 66.5523 84.5064 66.6748 83.5439 66.8498C83.463 66.8338 83.3798 66.8338 83.2989 66.8498C72.7391 68.4 62.8422 72.9356 54.7739 79.9223C46.6942 86.7942 40.0717 95.2138 35.2964 104.685C31.0789 113.96 31.5339 117.39 32.9864 123.935C33.8805 127.699 35.5956 131.219 38.0089 134.242C40.6689 137.847 44.7814 142.187 50.7314 148.61C52.1489 150.132 53.9339 152.11 55.4389 153.615C54.6339 157.29 48.9464 179.497 49.2789 183.995C49.2789 184.45 49.6989 184.992 50.6089 185.377C53.5896 186.267 56.6705 186.779 59.7789 186.9C58.7464 224.052 61.3889 272.79 64.6614 308.962C64.5278 309.008 64.4075 309.086 64.3114 309.19C63.7511 310.733 63.7511 312.424 64.3114 313.967C64.5389 314.44 64.9764 314.405 66.0614 314.492C66.0614 316.732 66.2539 319.322 66.3939 321.58C66.0015 321.885 65.6488 322.237 65.3439 322.63C65.2214 322.91 65.2039 322.822 65.9914 327.407C65.4509 328.893 65.0353 330.42 64.7489 331.975C64.5857 333.135 64.4864 334.304 64.4514 335.475C64.4475 336.103 64.6437 336.716 65.0114 337.225C67.227 338.956 69.7094 340.315 72.3614 341.25C75.323 340.779 78.1201 339.576 80.4989 337.75C80.7943 337.485 81.0204 337.152 81.1577 336.78C81.2949 336.408 81.3391 336.008 81.2864 335.615C81.1802 332.751 80.6917 329.914 79.8339 327.18C80.1836 325.682 80.3714 324.15 80.3939 322.612C80.2889 322.28 80.0964 322.122 79.1514 321.51C79.3789 319.34 79.5889 316.89 79.7464 314.737H81.9339C83.3164 314.65 82.8964 312.235 82.9664 310.31C82.9664 309.627 82.3014 309.382 81.6714 309.242L98.2614 202.317C99.4689 208.967 102.321 225.592 102.304 232.382C102.304 234.027 98.0864 288.277 97.0539 302.487C96.8876 302.525 96.7358 302.611 96.6164 302.732C95.9955 304.228 95.8667 305.883 96.2489 307.457C96.4414 307.982 96.9314 307.982 97.6664 308.105C97.4039 310.555 97.1589 313.18 96.9664 315.717C96.2664 315.717 96.0564 315.892 95.8289 316.54C95.1464 318.5 94.4464 325.447 95.6714 327.372C96.4939 328.65 124.231 333.952 131.581 330.715C133.051 330.05 132.981 328.545 132.736 326.952C132.316 324.082 120.486 320.145 116.986 318.43C116.654 318.255 116.724 318.307 116.584 318.045C114.834 314.86 114.344 313.512 113.836 313.267C113.33 313.121 112.798 313.091 112.279 313.18C112.156 311.972 112.034 310.8 111.894 309.47C112.185 309.521 112.486 309.478 112.751 309.347C113.486 308.822 113.416 306.617 113.591 305.147C113.612 304.947 113.556 304.747 113.434 304.587C112.489 303.205 111.684 309.015 121.116 276.062C120.801 279.737 118.211 309.137 119.121 310.59C119.384 310.957 119.891 310.975 120.521 311.027C132.124 312.2 279.491 317.642 291.864 317.782C293.981 317.782 300.614 317.922 301.244 317.502C307.124 313.932 320.249 107.94 317.711 89.5473ZM187.249 84.4548C188.999 82.0923 207.636 81.0423 209.439 80.0098C209.538 79.9653 209.623 79.8944 209.685 79.8049C209.746 79.7155 209.782 79.6108 209.789 79.5023C209.874 76.1001 210.428 72.7259 211.434 69.4748C211.993 67.8191 212.91 66.3068 214.12 65.0456C215.33 63.7843 216.803 62.805 218.434 62.1773C223.176 60.4273 231.244 61.9673 233.571 66.1673C235.024 68.7398 235.059 77.6473 236.546 78.8898C238.034 80.1323 258.684 79.7123 261.046 82.1273C261.19 82.4144 261.29 82.721 261.344 83.0373C261.883 86.8541 261.841 90.7304 261.221 94.5348C256.444 96.4423 197.836 99.0673 188.666 98.0348C187.371 97.8948 187.266 98.0348 186.916 96.7398C186.059 94.0273 185.709 86.5198 187.249 84.4548ZM142.134 52.2023C142.256 51.1873 141.801 51.6598 142.781 51.8698C142.642 52.1153 142.565 52.3908 142.555 52.6728C142.545 52.9548 142.604 53.2349 142.726 53.4893C142.848 53.7437 143.03 53.9648 143.256 54.1338C143.482 54.3028 143.745 54.4147 144.024 54.4598C143.859 54.6913 143.759 54.9626 143.734 55.2457C143.71 55.5288 143.761 55.8134 143.884 56.0698C144.304 56.9448 144.899 57.0673 145.791 57.1723C145.444 57.5667 144.955 57.8082 144.431 57.8442C143.907 57.8802 143.389 57.708 142.991 57.3648C142.834 57.2073 142.064 56.2623 141.049 55.0023C141.564 54.1361 141.931 53.1897 142.134 52.2023ZM148.381 51.5373C148.504 51.6059 148.611 51.6987 148.696 51.8099C148.781 51.9212 148.843 52.0487 148.877 52.1846C148.912 52.3205 148.918 52.462 148.896 52.6004C148.874 52.7389 148.824 52.8714 148.749 52.9898C147.993 52.9101 147.229 52.9634 146.491 53.1473C145.704 53.3223 144.321 53.4448 143.989 52.9198C143.499 52.0798 147.086 50.6448 148.381 51.5373ZM144.689 48.1598C146.596 47.3723 147.681 48.7023 147.349 49.4198C146.125 50.2119 144.694 50.6258 143.236 50.6098C143.157 50.6084 143.079 50.5905 143.006 50.5574C142.934 50.5243 142.869 50.4766 142.816 50.4173C142.431 50.0498 142.694 49.6648 143.026 49.3148C143.506 48.8323 144.069 48.441 144.689 48.1598ZM141.626 42.7873C139.474 39.6548 134.241 32.6898 133.401 31.3423L150.079 12.0923C150.674 17.3423 156.414 26.9673 159.266 31.3423C159.36 31.4606 159.489 31.5463 159.634 31.5873C161.224 33.9673 163.185 36.0767 165.444 37.8348C164.079 38.0098 146.561 41.8073 141.626 42.7873ZM165.601 17.9723C166.043 18.1261 166.449 18.3696 166.792 18.6876C167.136 19.0055 167.41 19.3911 167.597 19.82C167.785 20.2489 167.881 20.712 167.881 21.18C167.881 21.6481 167.784 22.111 167.596 22.5398C166.651 25.1473 164.096 27.1073 161.786 28.7523C161.156 29.2248 160.544 29.6623 160.036 29.9948C157.676 26.6371 155.537 23.1297 153.631 19.4948C157.201 18.4273 162.346 16.6423 165.601 17.9723ZM133.121 48.2123C127.434 50.4348 121.571 43.2073 124.371 37.3798C125.614 34.7548 130.129 32.5848 132.876 31.6048C133.594 32.9173 139.649 41.9998 140.681 43.6273C138.327 45.4131 135.793 46.9497 133.121 48.2123ZM135.729 48.4048C137.251 47.5473 139.054 46.3923 140.471 45.3948C141.049 46.3223 141.644 47.3373 142.221 48.2648C141.915 48.5025 141.671 48.812 141.513 49.166C141.354 49.5201 141.285 49.9077 141.311 50.2948C140.833 50.0435 140.29 49.9457 139.754 50.0148C139.047 50.1576 138.421 50.5644 138.004 51.1523L135.729 48.4048ZM141.749 60.7948C137.916 57.4523 137.566 57.7148 137.199 56.6998C136.831 55.6848 137.881 54.1973 138.109 53.5673C138.494 52.4473 139.719 50.7498 140.734 51.4673C141.416 51.9398 140.454 54.6698 140.209 55.2298C140.114 55.3773 140.037 55.536 139.981 55.7023C140.629 56.6076 141.324 57.478 142.064 58.3098C142.474 58.6705 142.962 58.9302 143.491 59.0683C144.019 59.2064 144.572 59.2189 145.106 59.105C145.64 58.9911 146.14 58.7538 146.566 58.4121C146.992 58.0705 147.332 57.6339 147.559 57.1373L148.399 56.9623C148.468 56.9458 148.529 56.9049 148.571 56.8471C148.613 56.7893 148.633 56.7184 148.626 56.6473C148.626 56.1923 147.611 56.6473 146.246 56.1573C145.651 55.9823 145.266 55.9298 145.126 55.5623C144.811 54.8098 147.576 54.1973 148.434 54.2148C148.663 54.1876 148.896 54.206 149.118 54.2691C149.34 54.3322 149.548 54.4386 149.729 54.5823C149.904 54.7398 152.406 59.3773 152.739 60.1473L145.249 63.6473C144.251 62.9998 142.939 61.8798 141.749 60.7948ZM147.576 82.4248C147.753 82.481 147.94 82.501 148.124 82.4837C148.309 82.4663 148.489 82.4119 148.652 82.3237C148.815 82.2355 148.959 82.1154 149.075 81.9704C149.191 81.8254 149.276 81.6586 149.326 81.4798C150.201 78.8548 146.789 69.8948 145.126 64.9773L154.279 60.6723C156.396 62.5798 170.029 75.0923 173.931 87.5873C176.171 94.5873 175.314 101.587 167.351 106.645C161.232 110.327 154.12 112.015 146.999 111.475C139.87 111.024 132.881 109.293 126.366 106.365C126.629 102.602 126.541 94.2198 127.189 89.6873C127.195 89.6151 127.174 89.5432 127.131 89.485C127.088 89.4268 127.025 89.3864 126.954 89.3714C126.883 89.3563 126.809 89.3677 126.746 89.4033C126.683 89.4389 126.635 89.4964 126.611 89.5648C126.109 91.0884 125.734 92.6514 125.491 94.2373C125.02 98.3687 124.961 102.537 125.316 106.68C125.176 106.96 124.966 105.49 127.574 130.217C127.574 130.515 137.339 173.18 137.076 178.937C133.576 180.827 113.469 182.927 109.076 183.015C107.694 179.637 100.099 156.765 98.9089 153.125C105.909 118.422 100.151 141.4 110.284 120.312C113.832 112.896 116.998 105.303 119.769 97.5623C120.441 95.779 120.979 93.9481 121.379 92.0848C121.519 91.7698 121.711 91.4373 121.379 91.0698L116.899 85.0323C121.659 73.0098 121.501 73.6573 121.484 73.3598C132.771 77.2273 143.621 81.5323 147.576 82.4248ZM126.786 108.167C130.58 109.776 134.526 111.002 138.564 111.825C137.076 121.922 135.361 135.572 133.559 151.025C127.609 122.745 129.761 137.812 126.786 108.167ZM72.9039 291.235C72.3789 304.727 72.9039 304.132 72.3264 304.15C72.2504 304.15 72.1773 304.121 72.122 304.069C72.0667 304.017 72.0334 303.946 72.0289 303.87C71.3464 288.575 73.1839 259.56 76.8414 187.46H77.5064C76.3339 214.497 73.0264 287.927 72.9039 291.235ZM84.6114 86.3098C80.2844 81.4177 76.3023 76.2311 72.6939 70.7873C76.0272 69.5347 79.4816 68.6315 83.0014 68.0923C84.1564 70.7523 87.6564 80.5348 88.6364 83.2998L84.6464 86.3623L84.6114 86.3098ZM86.6939 67.8123C90.0539 71.3123 97.0539 77.7348 101.936 78.1898C101.429 79.0123 98.2264 84.2098 97.5964 84.9623C95.7239 84.3498 87.9539 75.0398 86.5889 73.4298C86.0464 71.9773 85.1364 69.4923 84.5414 68.0748L86.6939 67.8123ZM80.3939 94.9723V94.7973C80.3939 94.7273 83.9989 88.4273 84.3489 87.7973C84.5064 87.4998 83.9639 87.9898 88.8989 83.9473C97.1939 107.467 96.9139 109.812 101.149 125.562C77.8389 91.2798 80.4989 94.7973 80.3939 94.9723ZM99.2414 83.8773C99.5838 85.1267 100.047 86.3399 100.624 87.4998C100.974 87.8848 99.9589 91.6123 98.2964 108.36C95.2952 97.5133 91.7498 86.8248 87.6739 76.3348C89.0739 77.8573 95.3039 84.6998 97.2114 85.4348C97.3302 85.5112 97.4697 85.5488 97.6107 85.5425C97.7517 85.5362 97.8874 85.4864 97.9989 85.3998C98.1914 85.1898 98.6464 84.5773 99.2064 83.7898L99.2414 83.8773ZM103.669 129.132C105.996 118.632 111.001 93.5023 111.544 82.8448L115.744 85.6098C120.749 92.6098 120.294 91.8048 120.259 92.1198C119.611 95.8473 108.114 123.165 103.634 129.045L103.669 129.132ZM115.499 84.4723L111.631 82.0923C112.081 78.4333 112.338 74.7533 112.401 71.0673C114.834 71.8898 117.354 72.8173 119.716 73.8498C119.296 74.8473 116.286 82.4598 115.499 84.4723ZM108.639 94.4998C108.115 92.0065 107.425 89.551 106.574 87.1498C106.661 86.7648 107.029 85.0673 107.256 83.9998C107.66 84.4526 108.087 84.8848 108.534 85.2948C108.971 85.6798 109.321 85.9073 109.794 85.6798C109.426 88.6198 109.059 91.4198 108.639 94.4998ZM110.914 70.5598C110.896 74.6558 110.627 78.7467 110.109 82.8098C109.794 83.4398 109.531 83.9473 109.339 84.2798C107.291 82.3223 105.351 80.2542 103.529 78.0848C106.626 77.2273 106.661 72.4148 106.346 69.1948C107.939 69.5798 109.461 69.9998 110.914 70.4898V70.5598ZM89.5289 58.3098C89.6339 58.0123 89.5289 58.0998 89.7914 58.1523C90.8556 58.2647 91.927 58.0218 92.8387 57.4615C93.7503 56.9012 94.451 56.055 94.8314 55.0548C95.2258 53.3325 95.1103 51.5326 94.4989 49.8748C94.2368 49.0916 94.0321 48.2903 93.8864 47.4773C93.0114 43.9773 90.8764 40.5648 91.8564 37.1348C92.0928 36.2017 92.6843 35.3978 93.5048 34.8944C94.3253 34.391 95.3099 34.2279 96.2489 34.4398C96.7261 34.612 97.1884 34.8227 97.6314 35.0698C99.1189 35.8398 100.186 36.3998 100.886 35.6998C100.886 35.6998 103.004 33.6173 105.016 34.1598C105.821 34.4748 107.711 38.4823 108.131 40.6698C107.816 40.2487 107.354 39.9614 106.836 39.8648C105.401 39.6898 104.404 40.8623 104.614 41.2123C105.785 41.4746 107.009 41.3645 108.114 40.8973C108.714 44.1933 108.989 47.5401 108.936 50.8898C108.125 50.3627 107.232 49.9725 106.294 49.7348C105.584 49.7109 104.878 49.8485 104.229 50.1373C103.532 49.9618 102.812 49.891 102.094 49.9273C100.081 50.3123 98.4189 52.4998 97.4039 53.4273C96.9489 53.8473 96.6164 55.0023 97.4039 55.4923C98.1914 55.9823 99.3289 55.0898 99.6789 54.6873C101.122 53.2381 102.692 51.9204 104.369 50.7498C105.816 51.7062 107.312 52.5882 108.849 53.3923C108.65 54.2462 108.585 55.1259 108.656 55.9998C108.247 57.0288 107.623 57.959 106.827 58.7284C106.03 59.4978 105.079 60.0888 104.036 60.4623C103.899 60.5056 103.772 60.5763 103.662 60.6701C103.553 60.7638 103.464 60.8787 103.4 61.0079C103.336 61.1371 103.299 61.2778 103.291 61.4216C103.283 61.5655 103.305 61.7094 103.354 61.8448C103.704 64.0323 105.384 68.5998 104.876 73.2023C104.719 74.6373 104.264 76.4398 102.829 76.5973C98.6289 77.0698 90.8239 69.8423 87.8664 66.7973V60.1648C88.6525 59.7418 89.2472 59.0344 89.5289 58.1873V58.3098ZM87.4989 43.3998C87.7927 45.2546 87.9855 47.1241 88.0764 48.9998C87.0789 49.3498 85.7489 48.0373 85.5039 47.1098C84.9439 45.1848 85.4339 43.9598 87.4989 43.3998ZM50.7489 183.75C50.5389 179.567 55.7189 159.022 56.7164 154.752C57.203 155.275 57.8012 155.682 58.4664 155.942C58.6178 155.959 58.7708 155.93 58.9052 155.858C59.0396 155.786 59.149 155.675 59.2189 155.54C59.3414 155.365 59.7614 154.7 60.3739 153.79C60.8819 154.863 61.5953 155.826 62.4739 156.625C59.8664 158.76 59.3064 158.602 59.5339 159.022C59.5676 159.086 59.6246 159.135 59.693 159.157C59.7615 159.18 59.8362 159.176 59.9014 159.145C67.3564 155.855 71.1714 149.887 71.6089 141.54C71.6144 141.471 71.5942 141.402 71.5522 141.347C71.5102 141.293 71.4494 141.255 71.3814 141.242C70.7864 141.242 71.2064 142.677 69.2639 147.542C68.3888 146.671 67.3131 146.028 66.1314 145.67C66.3649 145.364 66.6224 145.077 66.9014 144.812C67.3039 144.707 67.5314 144.305 67.3039 143.727C66.7264 142.205 63.1389 135.992 62.2289 134.435C62.2387 134.336 62.2387 134.236 62.2289 134.137C62.3339 131.705 62.9114 127.4 63.4539 122.762C64.5006 113.654 64.9856 104.49 64.9064 95.3223C64.7783 92.6597 64.2836 90.0274 63.4364 87.4998C63.4201 87.4256 63.3751 87.3608 63.3111 87.3198C63.2471 87.2787 63.1694 87.2648 63.0951 87.2811C63.0209 87.2973 62.9561 87.3424 62.9151 87.4064C62.8741 87.4704 62.8601 87.5481 62.8764 87.6223C63.4189 91.4723 63.6989 106.732 63.6989 107.082C62.0714 109.55 54.3539 120.015 54.3889 121.642C54.5723 122.622 54.8781 123.574 55.2989 124.477C55.2989 124.932 54.2314 122.097 61.3189 135.257C62.2464 137.007 65.0989 142.257 65.8514 143.902C63.1274 147.247 60.6086 150.753 58.3089 154.402C54.3714 151.252 42.5589 137.952 39.1989 133.402C36.9027 130.541 35.2709 127.206 34.4214 123.637C33.4926 120.627 33.2181 117.453 33.6164 114.327C35.3664 103.04 46.7764 88.5498 55.6664 81.0773C60.566 76.8733 66.1235 73.5034 72.1164 71.1023C73.1139 72.8523 75.1964 75.8623 77.3664 78.9773C83.7539 87.8848 83.7889 86.5373 83.4039 87.2023C82.4589 88.9523 79.5889 93.5373 79.1339 94.5698C78.8889 95.1473 76.8589 92.5573 101.534 129.342C100.746 133.612 92.1014 181.51 90.2989 185.517C87.2539 186.725 53.7764 186.322 50.7489 183.75ZM62.8414 156.31C62.1291 155.294 61.5964 154.163 61.2664 152.967C62.2057 151.175 63.3132 149.475 64.5739 147.892C65.3264 146.895 65.2914 146.79 65.7989 146.825C66.9374 146.986 68.0223 147.411 68.9664 148.067C67.6363 151.302 65.5116 154.149 62.7889 156.345L62.8414 156.31ZM60.9164 132.16C59.8489 130.41 55.9289 123.007 55.8239 121.66C56.5589 119.7 60.4614 113.785 63.8914 108.115C63.4889 114.17 61.5989 124.495 60.8639 132.195L60.9164 132.16ZM79.7464 335.615C79.746 335.875 79.7107 336.134 79.6414 336.385C79.6103 336.449 79.5618 336.504 79.5014 336.542C77.7017 337.921 75.6684 338.964 73.4989 339.622C72.3089 339.99 72.2914 340.025 69.6839 338.817C68.2646 338.196 66.8904 337.477 65.5714 336.665C65.1514 336.28 65.0989 335.02 65.0989 334.46C66.3074 335.562 67.6407 336.519 69.0714 337.312C71.5564 338.66 73.2539 338.905 77.0514 337.137C77.9948 336.714 78.897 336.204 79.7464 335.615ZM78.2064 314.877C78.0489 316.82 77.8739 318.815 77.6989 320.6C76.2235 319.693 74.6855 318.891 73.0964 318.202C71.5914 317.817 68.8964 319.672 67.6364 320.6C67.4964 319.235 67.3564 317.52 67.0939 314.545C69.0714 314.65 71.4164 314.702 73.3939 314.72C78.7489 314.772 78.2414 314.615 78.2064 314.877ZM81.3739 313.127C81.1989 313.127 65.7814 313.39 65.1514 313.337C64.6483 312.107 64.5205 310.755 64.7839 309.452C65.0242 309.387 65.2704 309.346 65.5189 309.33C70.8469 309.362 76.167 309.747 81.4439 310.485C81.488 311.407 81.4646 312.331 81.3739 313.25V313.127ZM110.249 309.312C110.371 310.642 110.476 312.025 110.599 313.372C110.002 313.473 109.416 313.631 108.849 313.845C107.501 314.562 108.656 317.047 108.219 317.607C106.574 317.415 100.991 315.857 98.0339 315.665C98.1389 313.302 98.2789 310.415 98.4014 308.192C101.866 308.682 106.924 309.085 110.249 309.312ZM131.249 327.6C131.249 328.3 131.389 329.052 130.864 329.35C124.756 332.062 98.7689 327.862 96.2314 326.83C95.9893 326.276 95.8471 325.683 95.8114 325.08C105.471 326.707 123.461 331.292 131.249 327.6ZM111.684 308C111.509 308 97.4389 307.107 96.9489 307.02C96.7554 306.123 96.6731 305.206 96.7039 304.29C96.6847 303.886 96.7627 303.484 96.9314 303.117C99.0489 302.75 109.829 304.867 111.964 305.375C111.92 306.254 111.826 307.131 111.684 308ZM120.329 232.75C119.226 238 108.324 291.637 106.539 299.81C106.515 299.878 106.467 299.936 106.404 299.971C106.341 300.007 106.267 300.018 106.196 300.003C106.125 299.988 106.062 299.948 106.019 299.89C105.976 299.831 105.955 299.76 105.961 299.687C107.396 292.285 117.704 238.087 118.894 232.435C119.454 229.792 114.746 188.597 114.186 184.187H115.114C117.669 200.707 120.871 230.072 120.329 232.75ZM300.019 316.452C292.616 317.03 121.676 309.855 120.136 309.662C119.769 305.06 122.499 273.91 122.901 269.307C125.701 259.385 131.039 239.907 132.614 229.67C133.979 220.727 131.581 200.707 130.391 191.677C130.741 188.422 131.074 185.185 131.424 181.965C133.442 181.664 135.428 181.178 137.356 180.512C137.881 180.267 138.406 179.935 138.459 179.375C138.791 176.26 134.959 158.165 134.381 155.032C136.306 137.987 138.249 122.955 139.736 112C149.484 113.75 159.651 113.137 168.086 107.782C176.206 102.637 177.519 95.5323 175.576 88.4273C178.814 88.1123 182.226 87.8148 185.761 87.5348C185.376 90.3523 185.446 97.1598 186.934 98.3323C189.751 100.572 256.216 97.9298 261.711 95.7423C261.982 95.6484 262.211 95.4626 262.359 95.2173C263.199 93.6073 263.129 86.8698 262.884 84.3498C268.326 84.3498 313.634 83.9998 316.871 88.3573C320.529 93.2923 305.741 315.892 300.019 316.365V316.452Z" fill="black"/>
<path d="M178.167 187.88C177.974 186.673 177.572 186.445 176.907 186.253C173.407 185.238 153.089 184.083 151.374 185.238C149.659 186.393 146.282 199.815 147.472 203.98C147.585 204.221 147.748 204.434 147.95 204.606C148.152 204.778 148.389 204.905 148.644 204.978C152.792 206.728 172.829 208.355 174.999 207.13C177.169 205.905 178.674 191.188 178.167 187.88ZM174.999 204.593C174.854 205.075 174.642 205.534 174.369 205.958C172.969 206.745 151.164 205.573 148.574 203.63C147.402 199.728 150.324 186.655 151.707 185.693C153.089 184.73 174.597 186.568 176.837 187.565C177.554 190.488 176.067 201.25 174.999 204.593ZM170.712 219.73C168.962 218.383 146.212 217.298 144.462 218.418C142.712 219.538 139.369 232.89 140.559 237.16C140.675 237.399 140.839 237.611 141.041 237.782C141.242 237.954 141.478 238.082 141.732 238.158C145.914 239.908 163.204 241.22 167.247 240.555C167.511 240.545 167.77 240.475 168.003 240.351C168.236 240.227 168.439 240.051 168.594 239.838C170.327 237.44 172.549 221.218 170.712 219.73ZM167.457 239.12C166.022 239.925 144.339 238.753 141.662 236.793C140.489 232.89 143.412 219.818 144.794 218.855C146.177 217.893 167.877 219.8 169.907 220.728C170.782 224 168.612 238.473 167.457 239.12ZM166.652 252.105C164.902 250.775 142.152 249.673 140.402 250.793C138.652 251.913 135.309 265.248 136.499 269.5C136.612 269.741 136.775 269.954 136.977 270.126C137.18 270.298 137.417 270.425 137.672 270.498C141.854 272.248 159.144 273.56 163.187 272.895C163.453 272.883 163.712 272.811 163.946 272.683C164.179 272.556 164.38 272.377 164.534 272.16C166.249 269.85 168.507 253.61 166.652 252.105ZM164.009 270.148C164.009 270.358 163.572 271.408 163.379 271.495C161.944 272.3 140.262 271.11 137.584 269.168C136.429 265.283 139.334 252.21 140.717 251.23C142.099 250.25 163.589 252.105 165.847 253.103C166.547 255.938 165.199 266.455 164.009 270.148Z" fill="black"/>
<path d="M169.4 191.065C166.268 194.04 163.485 197.487 161.455 198.782C160.738 199.255 160.37 199.412 159.705 199.062C158.621 198.378 157.701 197.464 157.01 196.385C156.97 196.335 156.914 196.3 156.851 196.286C156.789 196.272 156.723 196.28 156.666 196.309C156.608 196.338 156.563 196.385 156.536 196.444C156.51 196.502 156.504 196.568 156.52 196.63C157.107 198.031 158.07 199.242 159.303 200.13C159.75 200.362 160.255 200.457 160.756 200.404C161.257 200.351 161.731 200.152 162.12 199.832C163.548 198.842 164.837 197.665 165.953 196.332C167.314 194.77 168.582 193.128 169.75 191.415C169.788 191.397 169.821 191.37 169.846 191.336C169.872 191.303 169.889 191.264 169.896 191.223C169.903 191.181 169.9 191.139 169.887 191.099C169.874 191.059 169.852 191.022 169.823 190.993C169.793 190.963 169.756 190.941 169.716 190.928C169.676 190.915 169.634 190.912 169.593 190.919C169.551 190.926 169.512 190.943 169.479 190.969C169.445 190.994 169.418 191.027 169.4 191.065ZM162.523 224.227C158.743 227.815 155.155 232.365 153.493 232.435C152.975 232.335 152.496 232.093 152.11 231.735C150.255 230.212 150.255 229.18 149.8 229.442C149.767 229.457 149.737 229.479 149.712 229.506C149.688 229.533 149.669 229.565 149.658 229.599C149.646 229.634 149.642 229.67 149.646 229.707C149.649 229.743 149.66 229.778 149.678 229.81C150.325 231.315 151.865 233.642 153.51 233.677C155.61 233.677 159.04 229.792 160.283 228.235C161.525 226.677 162.435 225.242 162.925 224.577C162.971 224.524 162.995 224.454 162.99 224.384C162.985 224.313 162.952 224.248 162.899 224.201C162.845 224.155 162.776 224.132 162.705 224.136C162.635 224.141 162.569 224.174 162.523 224.227ZM158.445 256.602C154.735 260.102 151.06 264.74 149.433 264.792C148.905 264.708 148.417 264.464 148.033 264.092C146.16 262.57 146.283 261.555 145.723 261.8C145.69 261.818 145.662 261.843 145.639 261.872C145.616 261.901 145.599 261.935 145.589 261.97C145.58 262.006 145.577 262.044 145.582 262.081C145.587 262.117 145.599 262.153 145.618 262.185C146.248 263.69 147.788 266.017 149.45 266.052C151.55 266.052 154.98 262.167 156.205 260.61C157.43 259.052 158.375 257.617 158.848 256.952C159.093 256.69 158.69 256.34 158.445 256.602ZM293.038 197.172C287.385 196.84 195.423 192.972 189.595 192.727C189.535 192.743 189.481 192.778 189.443 192.827C189.405 192.876 189.385 192.937 189.385 192.999C189.385 193.061 189.405 193.121 189.443 193.17C189.481 193.22 189.535 193.255 189.595 193.27C195.528 193.655 289.188 197.61 293.055 197.715C293.115 197.698 293.167 197.661 293.204 197.611C293.241 197.56 293.259 197.499 293.257 197.437C293.255 197.375 293.233 197.315 293.193 197.267C293.153 197.219 293.098 197.186 293.038 197.172ZM286.16 230.352C280.508 230.02 188.545 226.152 182.718 225.89C182.676 225.879 182.633 225.878 182.591 225.887C182.549 225.896 182.51 225.914 182.476 225.94C182.443 225.966 182.415 226 182.397 226.038C182.378 226.076 182.368 226.119 182.368 226.161C182.368 226.204 182.378 226.246 182.397 226.284C182.415 226.323 182.443 226.356 182.476 226.382C182.51 226.409 182.549 226.427 182.591 226.435C182.633 226.444 182.676 226.443 182.718 226.432C188.65 226.817 282.293 230.772 286.16 230.895C286.22 230.88 286.274 230.845 286.312 230.795C286.35 230.746 286.371 230.686 286.371 230.624C286.371 230.562 286.35 230.501 286.312 230.452C286.274 230.403 286.22 230.368 286.16 230.352ZM282.083 262.727C276.43 262.395 184.468 258.527 178.64 258.265C178.58 258.28 178.526 258.315 178.488 258.365C178.45 258.414 178.43 258.474 178.43 258.536C178.43 258.598 178.45 258.659 178.488 258.708C178.526 258.757 178.58 258.792 178.64 258.807C184.555 259.192 278.215 263.147 282.083 263.252C282.152 263.252 282.219 263.225 282.268 263.176C282.317 263.126 282.345 263.06 282.345 262.99C282.345 262.92 282.317 262.854 282.268 262.804C282.219 262.755 282.152 262.727 282.083 262.727ZM292.25 209.562C286.598 209.247 194.635 205.362 188.825 205.117C188.784 205.107 188.74 205.106 188.699 205.115C188.657 205.123 188.618 205.141 188.584 205.168C188.55 205.194 188.523 205.227 188.504 205.266C188.485 205.304 188.476 205.346 188.476 205.389C188.476 205.431 188.485 205.474 188.504 205.512C188.523 205.55 188.55 205.584 188.584 205.61C188.618 205.636 188.657 205.654 188.699 205.663C188.74 205.672 188.784 205.671 188.825 205.66C194.74 206.045 288.4 210 292.268 210.105C292.327 210.088 292.38 210.051 292.416 210.001C292.453 209.95 292.472 209.889 292.47 209.827C292.468 209.765 292.445 209.705 292.405 209.657C292.365 209.609 292.311 209.576 292.25 209.562ZM285.408 242.742C279.755 242.41 187.793 238.542 181.965 238.297C181.615 238.297 181.58 238.805 181.965 238.84C187.898 239.225 281.558 243.162 285.425 243.285C285.485 243.268 285.537 243.231 285.574 243.181C285.611 243.13 285.629 243.069 285.627 243.007C285.625 242.945 285.603 242.885 285.563 242.837C285.523 242.789 285.468 242.756 285.408 242.742ZM281.33 275.117C275.695 274.785 183.733 270.917 177.905 270.655C177.831 270.655 177.76 270.684 177.707 270.737C177.655 270.789 177.625 270.861 177.625 270.935C177.625 271.009 177.655 271.08 177.707 271.133C177.76 271.185 177.831 271.215 177.905 271.215C183.838 271.582 277.48 275.537 281.348 275.66C281.407 275.643 281.46 275.606 281.496 275.556C281.533 275.505 281.552 275.444 281.55 275.382C281.548 275.32 281.525 275.26 281.485 275.212C281.446 275.164 281.391 275.131 281.33 275.117ZM193.55 171.395C194.093 171.08 194.338 170.082 194.495 169.417C196.805 160.055 199.465 117.18 198.905 114.765C198.857 114.604 198.767 114.459 198.643 114.345C197.645 113.435 192.133 113.33 190.225 113.278C180.233 113.033 156.975 113.785 156.713 114.03C156.065 114.818 146.423 166.18 147.613 169.662C148.803 173.145 189.42 173.722 193.55 171.395ZM148.75 169.19C148.737 169.004 148.737 168.816 148.75 168.63C148.765 168.686 148.798 168.735 148.844 168.771C148.89 168.806 148.946 168.825 149.004 168.825C149.062 168.825 149.118 168.806 149.164 168.771C149.21 168.735 149.243 168.686 149.258 168.63C150.003 165.757 151.473 163.124 153.528 160.982C155.878 158.356 158.905 156.425 162.278 155.4C163.804 157.379 165.464 159.25 167.248 161C167.65 161.297 168.123 161 168.613 160.773C170.363 165.2 169.523 159.478 168.613 171.273C166.005 171.185 151.008 170.607 148.75 169.19ZM168.508 148.75C167.531 148.362 166.655 147.76 165.943 146.988C165.231 146.215 164.702 145.292 164.395 144.287C164.209 143.524 164.092 142.745 164.045 141.96C164.652 142.763 165.499 143.351 166.463 143.641C167.427 143.931 168.458 143.906 169.407 143.571C170.356 143.236 171.174 142.607 171.742 141.777C172.31 140.946 172.599 139.956 172.568 138.95H172.883C172.41 140.544 172.203 142.206 172.27 143.867C172.278 144.113 172.344 144.353 172.463 144.567C172.988 145.232 173.513 145.215 174.405 145.075C174.475 145.071 174.542 145.043 174.593 144.995C174.644 144.947 174.677 144.882 174.685 144.812C174.685 144.41 173.985 144.585 173.495 144.095C173.495 143.5 173.688 141.487 173.705 140.98C173.705 138.775 173.268 139.02 173.898 139.02C173.777 139.875 173.896 140.747 174.242 141.538C174.588 142.329 175.147 143.009 175.858 143.5C176.708 144.053 177.706 144.332 178.72 144.301C179.733 144.27 180.713 143.929 181.528 143.325C181.528 143.552 181.353 143.815 181.213 144.165C180.736 145.74 179.789 147.132 178.5 148.155C176.453 149.59 175.14 149.082 175.28 150.045C175.49 151.427 175.963 152.408 176.26 154.455C174.724 155.38 173.246 156.397 171.833 157.5C170.481 156.248 169.055 155.079 167.563 154C168.263 150.342 169.488 149.187 168.508 148.75ZM174.16 137.882C174.105 138.032 174.059 138.183 174.02 138.337C173.795 138.186 173.53 138.106 173.259 138.106C172.988 138.106 172.723 138.186 172.498 138.337C172.462 137.827 172.315 137.331 172.067 136.883C171.82 136.436 171.476 136.048 171.063 135.747C169.965 135.047 168.69 134.676 167.388 134.68C166.461 134.638 165.554 134.951 164.85 135.555C165.344 133.291 166.675 131.297 168.578 129.972C171.868 127.925 176.978 128.327 179.078 131.582C179.55 132.24 179.906 132.974 180.128 133.752C180.243 134.348 180.407 134.933 180.618 135.502C180.239 135.344 179.837 135.249 179.428 135.222C177.153 135.065 174.72 135.607 174.16 137.917V137.882ZM169.75 142.24C169.322 142.458 168.856 142.588 168.377 142.623C167.899 142.658 167.418 142.597 166.963 142.444C166.508 142.291 166.089 142.048 165.729 141.731C165.369 141.413 165.076 141.027 164.868 140.595C164.273 138.355 165.2 135.835 167.405 135.817C174.073 135.59 172.078 141.382 169.75 142.24ZM179.445 136.343C181.65 136.588 182.28 139.212 181.475 141.382C181.219 141.786 180.885 142.135 180.494 142.409C180.102 142.683 179.66 142.877 179.193 142.979C178.726 143.082 178.244 143.091 177.774 143.006C177.303 142.921 176.854 142.744 176.453 142.485C174.195 141.4 172.69 135.398 179.41 136.343H179.445ZM182.945 138.092L183.383 137.847C184.38 138.6 184.555 139.877 182.858 141.347C183.146 140.339 183.176 139.273 182.945 138.25V138.092ZM162.243 137.252C162.383 137.116 162.571 137.039 162.768 137.039C162.964 137.039 163.152 137.116 163.293 137.252C163.376 137.327 163.479 137.376 163.59 137.392C163.292 138.349 163.232 139.365 163.415 140.35C162.173 139.597 161.175 138.39 162.243 137.322V137.252ZM175.368 160.002C174.531 159.434 173.73 158.815 172.97 158.148L178.08 154C178.483 154.297 179.585 155.12 180.18 155.627C177.275 158.235 176.05 159.477 175.368 160.055V160.002ZM170.608 158.007C169.697 158.603 168.756 159.152 167.79 159.653C167.3 159.145 163.153 154.578 163.153 154.578C163.835 154.123 165.13 153.387 165.585 153.142L170.608 158.007ZM175 171.5C174.993 168.698 174.646 165.906 173.968 163.187C175.123 160.93 174.493 161.437 175.158 161.595C175.246 161.635 175.341 161.655 175.438 161.655C175.534 161.655 175.63 161.635 175.718 161.595C177.457 160.121 179.084 158.518 180.583 156.8C186.55 159.442 191.258 163.8 192.833 170.24C192.36 171.5 176.558 171.5 175 171.5ZM157.115 114.468C161.508 114.345 193.708 113.505 197.803 115.15C198.205 118.65 195.108 161.962 193.2 169.032C191.573 162.907 187.093 158.532 181.318 155.82C181.58 155.242 180.95 154.892 178.22 153.387C178.178 153.361 178.13 153.347 178.08 153.347C178.031 153.347 177.982 153.361 177.94 153.387L177.258 153.807C176.995 152.057 176.733 151.55 176.505 150.307C177.564 150.045 178.557 149.566 179.422 148.9C180.286 148.234 181.003 147.397 181.528 146.44C182.171 145.303 182.659 144.084 182.98 142.817C185.168 141.312 186.375 139.212 184.73 137.182C185.203 136.447 185.535 135.852 185.185 135.065C185.333 134.84 185.428 134.585 185.461 134.318C185.495 134.05 185.466 133.779 185.378 133.525C185.294 133.177 185.164 132.842 184.993 132.528C185.171 132.237 185.287 131.914 185.335 131.577C185.383 131.24 185.361 130.897 185.271 130.569C185.18 130.241 185.024 129.934 184.81 129.669C184.597 129.404 184.331 129.186 184.03 129.028C184.101 128.601 184.065 128.164 183.924 127.755C183.784 127.346 183.544 126.978 183.227 126.685C182.909 126.391 182.524 126.182 182.105 126.074C181.686 125.967 181.247 125.965 180.828 126.07C180.677 125.672 180.416 125.326 180.075 125.072C179.793 124.835 179.467 124.656 179.116 124.545C178.765 124.434 178.395 124.393 178.028 124.425C176.698 124.53 177.258 124.95 176.978 124.267C176.833 123.939 176.581 123.67 176.263 123.505C175.944 123.339 175.579 123.287 175.228 123.357C174.666 123.398 174.13 123.605 173.688 123.952C173.163 123.519 172.504 123.281 171.824 123.281C171.143 123.281 170.484 123.519 169.96 123.952C169.698 124.232 169.838 124.162 169.61 124.075C169.036 123.927 168.434 123.927 167.86 124.075C167.516 124.15 167.195 124.305 166.921 124.527C166.648 124.749 166.43 125.031 166.285 125.352C166.002 125.301 165.711 125.301 165.428 125.352C164.858 125.558 164.346 125.897 163.935 126.342C163.524 126.787 163.225 127.324 163.065 127.907C163.056 128.042 163.056 128.176 163.065 128.31C162.737 128.5 162.421 128.71 162.12 128.94C161.791 129.335 161.575 129.813 161.495 130.321C161.414 130.829 161.473 131.35 161.665 131.827C161.26 132.115 160.959 132.527 160.808 133C160.716 133.598 160.814 134.21 161.088 134.75C161.191 134.896 161.302 135.036 161.42 135.17L161.245 135.38C161.131 135.685 161.131 136.02 161.245 136.325C160.952 136.667 160.748 137.076 160.651 137.515C160.553 137.955 160.565 138.411 160.685 138.845C161.083 139.923 161.804 140.852 162.75 141.505C162.75 141.907 162.75 142.59 162.908 143.255C163.076 144.635 163.595 145.948 164.416 147.07C165.238 148.191 166.333 149.083 167.598 149.66C167.19 150.805 166.851 151.974 166.583 153.16C165.83 152.6 165.725 152.46 165.533 152.565C162.75 153.667 162.033 154 162.033 154.315C154.805 156.642 149.783 163.222 148.803 168.315C148.855 160.597 156.31 117.11 157.115 114.468ZM301.455 143.745C301.21 143.482 214.305 142.94 214.13 142.957C214.056 142.957 213.985 142.987 213.932 143.04C213.88 143.092 213.85 143.163 213.85 143.237C213.85 143.062 213.185 151.13 214.078 151.655C216.44 152.985 293.335 154.262 300.318 153.58C300.621 153.584 300.917 153.485 301.158 153.3C302.435 151.987 302.4 144.55 301.455 143.745ZM214.183 143.5H214.288C214.288 143.5 214.2 143.587 214.183 143.5ZM300.283 152.25C296.293 152.757 218.68 152.075 214.533 151.112C214.287 148.581 214.287 146.032 214.533 143.5L300.72 144.952C301.048 147.39 300.9 149.869 300.283 152.25ZM301.665 129.062C301.42 128.8 214.515 128.258 214.34 128.275C214.267 128.279 214.198 128.31 214.147 128.362C214.095 128.413 214.064 128.482 214.06 128.555C214.06 128.38 213.378 136.447 214.288 136.972C216.79 138.407 293.913 139.545 300.528 138.897C300.831 138.901 301.127 138.803 301.368 138.617C302.645 137.305 302.593 129.867 301.665 129.062ZM214.393 128.817H214.498C214.603 128.817 214.41 128.922 214.393 128.817ZM300.493 137.567C296.73 138.075 218.925 137.392 214.743 136.412C214.506 133.886 214.506 131.344 214.743 128.817L300.93 130.27C301.249 132.702 301.101 135.173 300.493 137.55V137.567ZM301.858 114.958C301.719 114.846 301.545 114.79 301.368 114.8C301.368 114.8 215.373 114.135 214.848 114.153C214.585 114.153 214.218 114.152 214.235 114.45C214.235 114.275 213.57 122.342 214.463 122.867C216.633 124.092 300.213 125.86 301.543 124.512C302.873 123.165 302.75 115.763 301.858 114.958ZM214.568 114.713H214.673C214.778 114.713 214.585 114.8 214.568 114.713ZM300.668 123.463C296.66 123.97 218.68 123.252 214.918 122.307C214.646 119.785 214.611 117.242 214.813 114.713L301 116.165C301.36 118.59 301.247 121.063 300.668 123.445V123.463ZM229.128 168.542C230.16 167.965 230.265 167.055 229.775 166.477C228.388 165.588 226.834 164.992 225.208 164.727C225.053 163.166 224.499 161.672 223.598 160.387C221.848 158.813 220.71 162.417 220.098 164.675C218.628 164.797 215.39 165.217 215.145 166.67C215.145 167.177 215.495 167.492 215.95 167.72C216.982 168.134 218.04 168.479 219.118 168.752C217.718 170.222 214.568 173.635 216.528 174.002C217.648 174.247 220.623 172.463 222.04 172.148C223.353 172.883 226.188 175.175 227.29 174.405C228.393 173.635 226.818 171.15 225.925 169.452C227.016 169.239 228.087 168.934 229.128 168.542ZM245.84 169.33C246.89 168.77 246.995 167.86 246.488 167.282C245.114 166.379 243.562 165.782 241.938 165.532C241.783 163.966 241.229 162.466 240.328 161.175C238.578 159.617 237.44 163.222 236.828 165.48C235.358 165.602 232.12 166.005 231.875 167.475C231.788 167.965 232.225 168.298 232.68 168.525C233.709 168.929 234.761 169.274 235.83 169.557C234.448 171.01 231.28 174.44 233.24 174.807C234.36 175.052 237.423 173.25 238.753 173.057C240.135 173.827 242.918 176.067 244.003 175.297C245.088 174.527 243.53 172.042 242.655 170.345C243.748 170.113 244.815 169.773 245.84 169.33ZM263.253 169.977C264.285 169.4 264.39 168.49 263.9 167.93C262.518 167.031 260.962 166.434 259.333 166.18C259.186 164.617 258.631 163.12 257.723 161.84C255.973 160.265 254.835 163.87 254.223 166.127C252.753 166.267 249.515 166.67 249.288 168.122C249.288 168.63 249.638 168.962 250.093 169.172C251.118 169.593 252.17 169.944 253.243 170.222C251.86 171.675 248.693 175.105 250.653 175.472C251.773 175.717 254.748 173.932 256.165 173.617C257.478 174.37 260.313 176.645 261.415 175.875C262.518 175.105 260.925 172.62 260.05 170.922C261.143 170.702 262.215 170.386 263.253 169.977ZM281.418 170.66C282.468 170.1 282.555 169.172 282.065 168.612C280.683 167.713 279.127 167.117 277.498 166.862C277.346 165.304 276.798 163.809 275.905 162.523C274.155 160.948 273 164.57 272.405 166.81C270.935 166.95 267.698 167.352 267.47 168.822C267.383 169.312 267.82 169.645 268.275 169.872C269.304 170.277 270.356 170.622 271.425 170.905C270.043 172.358 266.875 175.788 268.835 176.155C269.938 176.4 273 174.597 274.348 174.3C275.678 175.052 278.478 177.327 279.598 176.557C280.718 175.787 279.125 173.302 278.25 171.605C279.333 171.389 280.393 171.073 281.418 170.66ZM276.658 171.273C276.658 171.92 278.233 174.055 278.618 175.437C278.303 175.297 277.865 175.017 277.515 174.825C274.715 173.337 274.82 172.847 273.665 173.25C272.773 173.565 269.815 175.157 269.028 175.297C269.203 174.725 269.475 174.186 269.833 173.705C271.758 170.852 272.703 170.817 271.495 170.205C270.343 169.866 269.238 169.384 268.205 168.77C268.52 167.965 271.705 167.737 272.79 167.72C273.403 167.72 273.193 167.247 274.173 164.937C274.392 164.365 274.687 163.824 275.048 163.327C275.379 163.81 275.616 164.35 275.748 164.92C276.395 167.142 276.045 167.755 276.78 167.912C278.212 168.196 279.601 168.667 280.91 169.312C280.636 169.512 280.327 169.661 280 169.75C277.83 170.397 276.605 170.328 276.658 171.273ZM299.39 168.385C298.178 167.853 296.918 167.437 295.628 167.143C295.455 166.04 295.161 164.961 294.753 163.922C294.018 162.172 292.828 161.84 291.883 163.415C291.281 164.586 290.806 165.818 290.465 167.09C289.275 167.173 288.099 167.403 286.965 167.773C285.968 168.158 285.11 168.962 285.653 169.662C286.8 170.423 288.093 170.936 289.45 171.167C288.407 172.246 287.464 173.418 286.633 174.667C285.828 176.067 286.318 176.925 288.085 176.417C289.433 175.997 291.358 174.965 292.373 174.667C293.248 175.157 295.873 177.135 297.115 177.082C297.241 177.087 297.367 177.066 297.485 177.021C297.603 176.975 297.71 176.906 297.8 176.817C297.89 176.729 297.961 176.623 298.009 176.506C298.057 176.389 298.08 176.264 298.078 176.137C297.751 174.655 297.158 173.244 296.328 171.972C297.42 171.759 298.492 171.448 299.53 171.045C300.65 170.415 301 169.207 299.39 168.385ZM295.19 170.94C293.895 171.552 296.118 173.582 296.73 175.805C295.925 175.437 293.02 173.635 292.81 173.547C291.865 173.145 289.66 174.79 287.683 175.472L287.158 175.665C287.875 174.061 288.864 172.593 290.08 171.325C290.763 170.572 287.035 170.03 286.318 169.208C286.458 168.84 287.403 168.577 287.77 168.49C290.325 167.895 291.183 168.49 291.41 167.755C291.821 166.356 292.409 165.015 293.16 163.765C293.835 165.009 294.246 166.38 294.368 167.79C294.473 168.525 295.085 168.227 297.57 169.102C298.085 169.257 298.578 169.475 299.04 169.75C298.428 170.205 296.065 170.52 295.19 170.94ZM222.338 77.91C224.229 78.0627 226.107 77.4867 227.588 76.3C231.98 72.38 225.838 64.925 219.748 68.9325C214.988 72.065 217.893 77.735 222.338 77.91ZM220.395 70C221.584 69.1297 223.064 68.7534 224.525 68.95C225.255 69.0563 225.95 69.3294 226.557 69.7483C227.164 70.1672 227.667 70.7204 228.025 71.365C229.215 74.7775 226.048 76.825 222.373 76.615C219.17 76.44 216.895 72.3975 220.395 70ZM71.9951 154.927C71.6451 154.787 71.9951 154.927 69.4751 157.482C66.9551 160.037 64.6101 161.437 64.8376 161.857C65.0651 162.277 67.1826 161.227 67.5326 161.035C68.6571 160.33 69.6714 159.464 70.5426 158.463C71.1551 157.745 72.6426 155.207 71.9951 154.927ZM99.0151 42.5075C99.1026 42.0875 97.9301 41.72 97.0726 41.825C95.1826 42.07 94.3951 43.575 94.7976 43.8375C96.272 43.6518 97.7008 43.2012 99.0151 42.5075ZM103.25 49C103.746 49.189 104.284 49.2433 104.808 49.1575C105.041 49.1128 105.266 49.0301 105.473 48.9125C105.683 48.8157 105.858 48.656 105.974 48.4554C106.09 48.2549 106.141 48.0232 106.12 47.7925C106.12 46.1825 103.88 42.63 103.285 43.015C103.075 43.1375 103.128 43.225 103.46 44.3275C103.673 45.0815 103.942 45.8186 104.265 46.5325C104.45 46.9499 104.597 47.3834 104.703 47.8275C104.339 48.1631 103.881 48.3772 103.39 48.44C103.353 48.4308 103.315 48.429 103.278 48.4345C103.24 48.4401 103.204 48.453 103.172 48.4725C103.139 48.492 103.111 48.5177 103.088 48.5482C103.066 48.5786 103.049 48.6132 103.04 48.65C103.031 48.6868 103.029 48.725 103.035 48.7625C103.04 48.8 103.053 48.836 103.073 48.8685C103.092 48.901 103.118 48.9293 103.148 48.9519C103.179 48.9745 103.213 48.9908 103.25 49ZM102.655 55.755C102.772 56.0227 102.946 56.2614 103.166 56.4543C103.385 56.6472 103.644 56.7895 103.925 56.8713C104.205 56.9531 104.5 56.9723 104.789 56.9276C105.077 56.8829 105.353 56.7753 105.595 56.6125C105.662 56.5852 105.716 56.5347 105.748 56.4703C105.78 56.406 105.788 56.3321 105.77 56.2625C105.63 55.86 105.28 56.3675 104.388 55.86C104.203 55.7477 104.049 55.5915 103.939 55.4053C103.829 55.2191 103.767 55.0086 103.758 54.7925C103.768 54.566 103.826 54.3442 103.928 54.142C104.031 53.9398 104.176 53.7618 104.353 53.62C104.512 53.5357 104.689 53.4917 104.869 53.4917C105.049 53.4917 105.226 53.5357 105.385 53.62C105.665 53.8475 105.98 53.41 105.7 53.2C104.02 51.2575 101.658 53.725 102.655 55.755ZM106.75 130.655C106.339 130.663 105.937 130.772 105.579 130.973C105.221 131.174 104.918 131.461 104.698 131.807C104.478 132.154 104.347 132.55 104.317 132.96C104.287 133.369 104.36 133.78 104.528 134.155C105.683 136.483 109.655 135.625 109.585 133.105C109.57 132.754 109.484 132.41 109.331 132.094C109.178 131.778 108.962 131.497 108.697 131.267C108.431 131.038 108.122 130.865 107.787 130.76C107.452 130.655 107.099 130.619 106.75 130.655ZM108.273 133.647C108.252 133.819 108.198 133.984 108.113 134.134C108.028 134.285 107.915 134.417 107.779 134.523C107.644 134.63 107.488 134.708 107.322 134.755C107.156 134.801 106.983 134.814 106.811 134.794C106.64 134.773 106.475 134.719 106.324 134.634C106.174 134.55 106.042 134.436 105.936 134.301C105.829 134.165 105.75 134.009 105.704 133.843C105.658 133.677 105.644 133.504 105.665 133.332C105.665 133.172 105.697 133.014 105.759 132.866C105.82 132.719 105.911 132.585 106.025 132.472C106.139 132.36 106.274 132.271 106.423 132.212C106.571 132.152 106.73 132.123 106.89 132.125C107.092 132.103 107.295 132.129 107.485 132.199C107.676 132.269 107.847 132.382 107.986 132.53C108.125 132.677 108.228 132.855 108.287 133.049C108.346 133.243 108.359 133.448 108.325 133.647H108.273ZM106.278 142.52C105.865 142.523 105.46 142.629 105.1 142.829C104.739 143.029 104.434 143.317 104.213 143.665C103.992 144.013 103.862 144.411 103.834 144.822C103.807 145.234 103.883 145.645 104.055 146.02C105.193 148.312 109.183 147.507 109.113 144.97C109.095 144.62 109.007 144.277 108.854 143.963C108.7 143.648 108.484 143.367 108.219 143.138C107.954 142.909 107.646 142.737 107.312 142.63C106.978 142.524 106.626 142.486 106.278 142.52ZM107.8 145.512C107.806 145.701 107.771 145.889 107.698 146.064C107.625 146.238 107.515 146.395 107.377 146.524C107.239 146.653 107.075 146.751 106.895 146.811C106.716 146.871 106.526 146.893 106.338 146.874C106.15 146.855 105.968 146.797 105.805 146.702C105.641 146.607 105.499 146.479 105.389 146.325C105.279 146.171 105.203 145.996 105.166 145.811C105.129 145.625 105.132 145.434 105.175 145.25C105.18 144.928 105.311 144.621 105.54 144.395C105.769 144.169 106.078 144.042 106.4 144.042C106.593 144.031 106.786 144.062 106.966 144.133C107.145 144.204 107.308 144.313 107.441 144.453C107.574 144.593 107.675 144.76 107.737 144.943C107.799 145.126 107.821 145.32 107.8 145.512ZM98.9276 44.87C98.9276 45.15 99.0326 45.43 99.1376 46.025C99.1566 46.139 99.1981 46.2481 99.2595 46.346C99.3209 46.4439 99.4012 46.5286 99.4955 46.5953C99.5899 46.662 99.6965 46.7094 99.8093 46.7346C99.9221 46.7599 100.039 46.7626 100.153 46.7425C100.379 46.7039 100.582 46.5776 100.716 46.3909C100.85 46.2042 100.906 45.9722 100.87 45.745C100.87 45.43 100.713 44.9925 100.678 44.6775C100.652 44.4454 100.535 44.233 100.353 44.087C100.171 43.9409 99.9384 43.8732 99.7063 43.8988C99.4743 43.9243 99.2618 44.041 99.1158 44.2231C98.9697 44.4052 98.902 44.6379 98.9276 44.87ZM106.488 44.6425C106.517 44.8481 106.621 45.0359 106.778 45.1711C106.936 45.3063 107.137 45.3796 107.345 45.3775C107.472 45.3762 107.597 45.3479 107.712 45.2945C107.827 45.2411 107.929 45.1638 108.012 45.0678C108.095 44.9718 108.156 44.8592 108.192 44.7376C108.228 44.616 108.237 44.4881 108.22 44.3625C108.08 43.5925 108.045 43.505 108.01 43.295C107.982 43.0629 107.863 42.8514 107.68 42.707C107.496 42.5626 107.262 42.4972 107.03 42.525C106.798 42.5529 106.587 42.6718 106.442 42.8555C106.298 43.0393 106.232 43.2729 106.26 43.505C106.313 43.75 106.383 44.03 106.488 44.6425ZM132.58 157.185C132.79 157.395 133.123 157.08 132.913 156.87C128.678 151.777 127.663 146.632 128.415 140.192C128.425 140.159 128.426 140.123 128.42 140.088C128.414 140.054 128.399 140.021 128.378 139.993C128.357 139.965 128.329 139.942 128.298 139.926C128.266 139.911 128.232 139.903 128.196 139.903C128.161 139.903 128.126 139.911 128.095 139.926C128.063 139.942 128.036 139.965 128.015 139.993C127.993 140.021 127.979 140.054 127.973 140.088C127.966 140.123 127.968 140.159 127.978 140.192C126.193 146.685 127.435 152.53 132.58 157.185Z" fill="black"/>
<path d="M168.349 138.25C168.12 138.225 167.89 138.293 167.709 138.437C167.529 138.581 167.413 138.791 167.387 139.02V140.175C167.387 140.407 167.479 140.63 167.643 140.794C167.807 140.958 168.03 141.05 168.262 141.05C168.494 141.05 168.716 140.958 168.88 140.794C169.045 140.63 169.137 140.407 169.137 140.175V139.248C169.154 139.13 169.147 139.01 169.116 138.895C169.085 138.78 169.031 138.673 168.958 138.579C168.884 138.486 168.792 138.409 168.687 138.352C168.583 138.295 168.468 138.261 168.349 138.25ZM177.922 141.173C178.034 141.187 178.149 141.179 178.259 141.149C178.368 141.119 178.471 141.068 178.56 140.998C178.65 140.928 178.725 140.841 178.78 140.741C178.836 140.642 178.871 140.533 178.884 140.42V139.283C178.884 139.051 178.792 138.828 178.628 138.664C178.464 138.5 178.241 138.408 178.009 138.408C177.779 138.412 177.559 138.506 177.395 138.669C177.232 138.832 177.139 139.052 177.134 139.283V140.21C177.122 140.325 177.133 140.441 177.166 140.552C177.199 140.663 177.254 140.766 177.327 140.856C177.4 140.945 177.491 141.019 177.593 141.074C177.695 141.128 177.807 141.162 177.922 141.173ZM170.642 147.158C172.073 147.612 173.595 147.702 175.069 147.42C175.244 147.42 175.227 147.14 175.069 147.158L173.967 147C172.878 146.91 171.783 146.91 170.694 147C170.519 146.86 170.467 147.14 170.642 147.158Z" fill="black"/>
</svg>
