<svg width="350" height="350" viewBox="0 0 350 350" fill="none" xmlns="http://www.w3.org/2000/svg">
<path d="M253.103 85.7499C255.944 87.5401 258.196 90.1267 259.578 93.1874C261.432 97.5291 262.737 102.085 263.463 106.75C262.391 106.778 261.324 106.913 260.278 107.152C260.155 107.152 259.455 107.52 259.333 107.905C258.772 109.845 258.345 111.821 258.055 113.82L223.055 114.03C222.653 114.03 222.705 114.502 223.055 114.52C223.055 114.52 255.01 115.01 258.055 115.027C257.285 121.397 257.933 128.397 262.448 132.912C266.7 137.112 281.155 137.707 286.528 133.7C290.99 130.357 292.093 120.697 291.778 115.027C292.828 115.027 316.488 114.607 318.833 114.52C318.898 114.52 318.96 114.494 319.006 114.448C319.052 114.402 319.078 114.34 319.078 114.275C319.078 114.21 319.052 114.148 319.006 114.102C318.96 114.056 318.898 114.03 318.833 114.03C314.843 114.03 291.725 113.855 291.725 113.855C291.253 108.605 289.975 108.08 289.975 107.835C289.961 107.673 289.896 107.52 289.789 107.397C289.682 107.274 289.539 107.189 289.38 107.152C287.858 106.855 286.312 106.697 284.76 106.68C287.21 102.742 289.31 92.0324 293.16 84.8574C298.865 74.1649 320.338 84.3499 319.988 74.8999C319.568 64.3999 307.913 58.5024 295.4 64.0674C283.518 69.3174 280.42 93.8174 280.21 106.61C276.623 106.61 278.355 106.715 273.21 106.61C277.708 100.625 283.43 80.6749 282.433 66.7274C281.29 57.4713 277.395 48.7715 271.25 41.7549C265.86 35.7174 259.543 33.1624 254.783 38.0099C247.783 45.0099 254.223 52.8324 260.208 60.7599C266.788 69.5099 269.255 73.8674 270.148 86.3274C270.566 93.0876 270.437 99.8705 269.763 106.61H267.82C269.325 101.692 267.383 90.8599 265.965 85.7674C263.935 78.5749 260.47 71.3299 254.975 66.3424C248.484 60.7373 240.589 57.0047 232.138 55.5449C226.975 54.6699 222.565 55.0024 220.168 56.4374C219.286 56.896 218.605 57.6645 218.257 58.595C217.908 59.5255 217.915 60.5522 218.278 61.4774C221.183 70.9799 241.728 78.7499 253.103 85.7499ZM295.75 65.1874C307.458 59.9374 318.238 65.4499 318.605 74.9699C318.885 82.2674 297.833 73.2199 292.093 84.4024C288.103 92.1374 286.335 102.952 283.92 106.697H282.678C284.428 98.9799 288.715 81.8124 293.755 75.7399C300.195 67.8824 311.413 72.4674 311.903 72.3449C312.095 72.3449 312.288 72.0299 311.71 71.8199C304.71 69.2824 297.588 69.3349 292.828 74.9699C287.105 81.7249 283.5 97.9999 281.995 106.75H280.49C280.963 94.4999 284.393 70.1749 295.75 65.1874ZM271.04 86.3099C270.34 73.9549 268.065 69.4224 261.153 60.0599C255.483 52.4474 249.41 45.1849 255.675 38.8324C259.945 34.4924 265.51 37.0824 270.34 42.5424C276.255 49.3887 279.985 57.8483 281.05 66.8324C282.188 81.0074 276.413 101.36 272.3 106.627H271.373C273.245 98.6143 274.456 90.4611 274.995 82.2499C275.398 75.2499 275.275 70.3849 273.245 64.2949C271.578 59.6581 269.262 55.2805 266.368 51.2924C264.987 49.3253 263.466 47.4597 261.818 45.7099C261.776 45.6589 261.716 45.6265 261.65 45.6199C261.585 45.6134 261.519 45.6331 261.468 45.6749C261.417 45.7167 261.385 45.777 261.378 45.8427C261.371 45.9083 261.391 45.9739 261.433 46.0249C261.871 46.4829 262.28 46.9681 262.658 47.4774C268.118 54.4774 273.508 64.6974 273.928 73.7274C274.348 82.7574 272.545 97.8249 270.883 106.75H270.393C271.166 99.9656 271.382 93.1295 271.04 86.3099ZM288.873 108.64C291.76 111.282 290.85 128.835 285.618 132.755C280.385 136.675 266.753 135.747 263.043 132.16C257.198 126.542 257.793 116.025 259.788 108.22C259.912 108.383 260.083 108.505 260.278 108.57C261.623 108.88 262.994 109.068 264.373 109.13C262.66 115.481 262.959 122.207 265.23 128.38C265.314 128.556 265.464 128.692 265.648 128.758C265.832 128.824 266.034 128.813 266.21 128.73C266.387 128.646 266.523 128.496 266.588 128.312C266.654 128.129 266.644 127.926 266.56 127.75C264.355 123.34 263.76 113.54 265.038 109.252C270.498 109.497 285.11 109.602 288.873 108.64ZM254.223 67.2349C266.088 77.7349 269.133 100.992 267.295 106.662H266.21C265.962 101.8 265.116 96.9858 263.69 92.3299C259.91 80.0799 253.575 72.5549 243.863 66.8849C238.789 63.9828 233.359 61.7532 227.71 60.2524C227.645 60.2362 227.577 60.2464 227.519 60.2809C227.462 60.3153 227.42 60.3712 227.404 60.4362C227.388 60.5011 227.398 60.5699 227.433 60.6273C227.467 60.6848 227.523 60.7262 227.588 60.7424C234.182 62.8334 240.442 65.8628 246.173 69.7374C252.528 73.9682 257.49 79.9837 260.435 87.0274C263.23 93.2536 265.003 99.8895 265.685 106.68H264.04C263.393 101.877 262.147 97.1734 260.33 92.6799C258.911 89.4486 256.582 86.7002 253.628 84.7699C242.06 77.6474 222.128 69.8424 219.468 61.0924C217 53.0599 240.783 55.1949 254.223 67.2349ZM102.9 157.342C79.5904 149.24 58.6954 145.617 45.693 142.345C45.5319 142.3 45.3634 142.287 45.1975 142.309C45.0316 142.33 44.8718 142.385 44.7276 142.47C44.5833 142.554 44.4577 142.667 44.3582 142.802C44.2586 142.936 44.1873 143.089 44.1484 143.252C44.1095 143.415 44.1038 143.584 44.1318 143.749C44.1597 143.913 44.2206 144.071 44.3109 144.212C44.4013 144.353 44.5191 144.474 44.6573 144.568C44.7955 144.662 44.9514 144.727 45.1155 144.76C53.4804 146.772 66.1154 149.082 79.7829 152.25C102.358 157.5 102.848 159.057 103.215 157.972C103.255 157.847 103.244 157.711 103.185 157.594C103.126 157.476 103.024 157.386 102.9 157.342ZM287.613 171.5C287.613 171.459 287.605 171.418 287.589 171.379C287.573 171.341 287.55 171.306 287.521 171.277C287.491 171.248 287.457 171.225 287.418 171.209C287.38 171.193 287.339 171.185 287.298 171.185C271.95 171.185 257.023 174.685 248.57 175.472C248.468 175.481 248.367 175.51 248.276 175.559C248.185 175.607 248.104 175.673 248.039 175.753C247.973 175.833 247.925 175.925 247.896 176.024C247.867 176.123 247.858 176.227 247.87 176.33C247.879 176.433 247.908 176.534 247.956 176.627C248.004 176.719 248.07 176.801 248.15 176.867C248.229 176.934 248.322 176.984 248.421 177.015C248.52 177.046 248.624 177.057 248.728 177.047C254.923 176.435 265.65 174.09 275.695 172.795C286.843 171.5 287.63 172.287 287.613 171.5ZM234.745 207.917C234.761 207.889 234.77 207.857 234.773 207.825C234.776 207.793 234.772 207.76 234.762 207.729C234.753 207.698 234.737 207.67 234.716 207.645C234.695 207.62 234.669 207.6 234.64 207.585L234.203 207.357L234.098 207.882C234.395 208.022 234.623 208.25 234.745 207.917Z" fill="black"/>
<path d="M341.04 212.292C336.543 211.365 325.43 211.732 320.845 212.135C324.625 199.22 328.528 182.385 330.103 173.11C330.673 170.543 330.92 167.915 330.838 165.287C330.781 165.051 330.675 164.83 330.527 164.637C330.379 164.444 330.193 164.284 329.98 164.167C322.98 159.775 249.638 169.417 244.528 171.955C243.005 172.707 241.64 176.505 241.028 178.22C236.495 170.765 236.968 168.997 231.91 157.22C228.759 149.548 224.762 142.252 219.993 135.467C220.115 134.54 224.963 98.332 219.765 88.6545C216.265 82.1795 197.313 79.9045 190.015 79.292C190.015 78.907 189.105 72.292 188.72 69.2995C194.88 64.1545 197.47 54.687 190.785 53.0945C186.043 51.9745 167.318 48.4045 153.37 52.0095C144.62 54.2845 137.62 59.3945 137.025 69.5095C136.79 73.3504 137.026 77.2056 137.725 80.9895C128.678 81.987 113.103 83.4745 105.158 86.467C94.938 90.317 99.243 135.03 100.328 138.652C99.733 140.122 99.173 141.61 98.6655 142.992C73.203 136.5 16.2055 124.39 13.668 124.617C13.0071 124.609 12.3544 124.765 11.7681 125.07C11.1819 125.375 10.6803 125.821 10.308 126.367C9.62549 126.525 9.38049 127.487 9.25799 128.117C7.50799 137.427 10.6755 193.025 11.2355 202.457C12.163 205.852 39.1305 213.22 42.6305 214.182C42.8055 218.785 43.733 241.64 43.9255 246.33C42.403 246.052 40.896 245.696 39.4105 245.262C36.2955 243.985 24.3605 255.605 25.4105 254.642C20.843 258.702 70.543 272.055 74.5155 270.935C78.488 269.815 86.3455 262.307 85.0155 258.125C84.6477 257.38 84.0275 256.791 83.2655 256.462C79.503 254.485 69.5455 252.052 65.398 251.055C65.8005 242.585 65.8005 228.69 65.783 220.255C70.7005 221.48 98.613 228.235 103.653 228.147C104.014 228.152 104.371 228.062 104.685 227.885C106.295 227.657 108.185 227.255 108.343 225.61C108.343 225.12 108.745 220.85 109.253 214.515C121.59 219.222 136.553 218.872 139.213 217.787C139.93 217.441 140.536 216.902 140.963 216.23C141.085 216.387 141.138 216.352 142.065 216.492C145.565 217.052 151.165 217.577 154.315 215.932C158.778 216.65 171.71 217.682 172.673 213.36C172.795 212.782 172.97 211.61 173.145 210.192C186.095 210.892 232.085 210.577 232.26 210.577L231.193 215.39C231.166 215.35 231.129 215.318 231.086 215.296C231.044 215.275 230.996 215.265 230.948 215.267C230.948 215.162 230.948 215.127 230.948 215.267C223.782 214.702 216.591 214.515 209.405 214.707C206.85 214.83 200.113 215.145 199.99 217.63C199.096 219.742 198.966 222.1 199.623 224.297C200.008 225.68 203.263 227.92 204.47 228.742C197.628 228.06 193.638 228.322 191.573 229.057C191.082 229.143 190.624 229.363 190.251 229.693C189.877 230.023 189.603 230.451 189.457 230.928C189.312 231.405 189.302 231.913 189.429 232.395C189.555 232.877 189.813 233.315 190.173 233.66C192.518 236.88 197.4 237.965 197.925 242.182C198.923 250.18 178.588 259.227 171.168 262.395C174.895 257.495 184.888 242.077 180.04 238.35C174.65 234.202 128.433 232.382 124.18 233.467C121.188 234.237 99.1905 250.495 99.593 256.217C99.873 259.945 121.52 263.602 125.545 264.302C130.078 265.072 162.418 270.112 166.285 267.645C167.106 267.314 167.851 266.821 168.476 266.195C169.102 265.57 169.595 264.825 169.925 264.005C176.627 261.701 183.077 258.722 189.175 255.115C198.8 249.147 204.19 241.762 194.67 235.55C193.533 234.815 190.418 232.575 190.873 231.315C191.853 228.532 205.38 229.565 205.573 229.565C211.855 233.66 223.878 239.977 230.965 241.815C238.455 243.792 273.455 239.96 281.908 238.892C282.87 242.392 283.798 245.647 284.41 247.642C283.098 247.747 279.353 248.08 278.303 248.902C277.725 249.357 277.743 250.127 278.67 250.652C278.67 256.515 277.953 274.05 279.703 281.96C280.368 284.917 281.138 286.142 284.2 287.21C289.993 289.082 301.123 288.417 306.95 286.86C310.573 285.88 311.045 285.11 311.623 283.185C313.618 276.64 313.513 257.32 313.373 250.46C313.485 250.378 313.576 250.272 313.639 250.149C313.702 250.025 313.735 249.889 313.735 249.751C313.735 249.612 313.702 249.476 313.639 249.353C313.576 249.23 313.485 249.123 313.373 249.042C312.078 248.442 310.684 248.086 309.26 247.992C309.505 246.032 310.818 235.077 311.01 233.152C311.925 232.603 312.741 231.905 313.425 231.087C314.495 229.787 315.191 228.22 315.438 226.555C317.188 224.262 319.708 215.705 320.53 212.905C328.335 213.237 339.78 212.782 340.848 212.905C340.929 212.93 341.017 212.922 341.093 212.883C341.168 212.844 341.225 212.776 341.25 212.695C341.276 212.613 341.268 212.525 341.229 212.45C341.189 212.374 341.122 212.318 341.04 212.292ZM104.493 250.057C105.665 248.762 107.048 247.415 108.518 246.05C114.765 240.275 122.71 234.465 124.443 234.027C128.643 232.942 174.773 235.777 179.463 239.277C180.25 239.872 180.408 241.027 180.25 242.41C179.62 247.905 173.88 256.97 170.538 261.397C166.758 258.142 109.498 250.74 104.493 250.057ZM190.243 80.552C196.928 81.182 215.67 83.3345 218.89 89.1795C223.44 97.4045 220.64 125.457 219.52 134.68C218.54 133.367 217.525 132.125 216.493 130.987C210.56 124.477 200.375 121.205 191.748 119.542C186.206 118.577 180.615 117.917 175 117.565C174.825 117.565 175.105 117.827 173.723 114.992C171.658 110.74 171.535 110.81 171.745 110.687C174.04 110.565 176.313 110.177 178.518 109.532C184.433 107.782 187.95 104.282 189.613 95.777C190.516 90.736 190.704 85.5931 190.173 80.4995L190.243 80.552ZM175.175 118.107C176.278 118.265 176.575 118.247 176.663 118.3C176.663 118.737 180.495 139.3 167.37 140.245C156.52 141.137 149.38 125.912 145.53 115.745C146.93 115.517 148.05 115.36 148.803 115.255C149.17 123.235 160.65 137.707 167.02 136.692C174.178 135.52 177.695 124.635 175.175 118.107ZM149.048 85.907C149.205 85.1263 149.554 84.3971 150.065 83.7859C150.575 83.1746 151.23 82.7006 151.97 82.407C155.47 81.5495 155.47 85.907 158.253 85.662C161.753 85.4345 157.85 77.3145 160.86 72.362C164.133 66.902 177.398 77.9445 188.125 69.7545C189.42 78.977 190.838 86.152 188.86 95.567C187.11 103.827 183.855 106.872 178.238 108.517C175.93 109.048 173.592 109.446 171.238 109.707C171.05 109.813 170.892 109.965 170.779 110.149C170.666 110.332 170.601 110.542 170.59 110.757C170.59 111.37 172.34 114.502 173.968 118.16C176.4 123.9 173.233 134.33 166.828 135.327C162.278 136.045 153.37 125.842 150.833 118.632C149.713 115.447 150.045 115.325 152.023 102.882C154.805 103.075 155.383 97.632 155.523 94.8145C155.552 94.2172 155.344 93.6325 154.945 93.187C153.685 91.8045 152.653 93.4145 150.203 90.352C149.668 89.7579 149.284 89.044 149.083 88.2704C148.882 87.4968 148.87 86.6863 149.048 85.907ZM137.97 82.2495C140.315 92.9595 146.475 100.397 150.71 102.462C149.94 107.38 149.065 112.857 148.838 114.52C138.74 115.026 128.781 117.092 119.315 120.645C115.112 122.254 111.194 124.529 107.713 127.382C105.788 117.407 110.74 97.912 110.128 92.382C109.848 90.037 109.183 87.552 106.89 87.0445C114.73 84.577 129.255 83.177 137.97 82.2495ZM105.84 87.4995C106.259 87.5138 106.67 87.6126 107.049 87.79C107.428 87.9675 107.767 88.2199 108.045 88.532C108.834 89.7226 109.232 91.1297 109.183 92.557C109.568 97.807 104.125 117.162 107.188 127.89C104.238 130.656 102.004 134.097 100.678 137.917C99.278 129.395 96.9505 90.597 105.84 87.4995ZM42.963 167.23C43.103 166.407 44.608 166.04 45.4305 165.9C51.503 164.902 64.1205 168.367 63.8405 172.585C63.4205 178.832 65.3455 254.537 63.7005 257.32C61.7405 260.662 51.0305 258.807 46.7605 255.832C44.818 254.485 44.853 253.33 44.9055 253.557C43.418 193.97 42.718 168.595 42.963 167.23ZM83.528 258.702C84.4205 261.677 77.403 268.52 74.148 269.43C70.893 270.34 22.908 257.915 26.0405 255.08C24.588 256.392 33.8455 247.87 37.923 246.505C38.248 246.343 38.6194 246.299 38.973 246.382C39.4455 246.592 41.3005 247.065 43.978 247.695C44.1355 251.387 44.2405 253.575 44.2405 253.575C45.273 258.72 61.7405 262.605 64.6105 257.862C65.0499 256.181 65.2849 254.454 65.3105 252.717C67.988 253.382 81.7255 256.725 83.528 258.702ZM103.653 226.66C99.0505 226.835 70.403 220.115 65.783 219.03C65.6955 198.52 65.2755 175.525 65.4855 172.69C65.9055 166.25 49.5255 162.75 43.7505 164.64C43.1782 164.765 42.6523 165.048 42.2318 165.456C41.8114 165.864 41.5131 166.381 41.3705 166.95C40.9855 169.277 42.4905 210.7 42.578 213.185C39.7255 212.415 13.003 205.292 11.9005 202.44C11.603 196 8.75049 133.735 10.7805 127.837C20.3005 130.217 101.605 146.615 107.328 150.587C108.763 154.525 105.49 221.095 103.653 226.66ZM107.765 225.627C107.765 226.8 106.208 227.202 105.053 227.377C106.943 222.845 110.705 153.877 108.78 149.817C106.855 145.757 19.058 128.695 10.8505 126.402C11.2155 126.007 11.6599 125.694 12.1545 125.483C12.6491 125.272 13.1828 125.167 13.7205 125.177C16.153 125.002 105.928 145.057 111.143 147.927C112.018 150.447 111.143 168 111.02 170.887C110.705 177.852 107.835 224.682 107.765 225.627ZM155.015 213.78C152.968 216.51 145.705 216.177 142.293 215.862H141.453C143.01 212.732 143.892 209.31 144.043 205.817C145.793 205.327 152.198 203.84 153.178 205.415C153.475 205.87 152.53 206.412 152.04 206.675C150.747 207.275 149.391 207.733 147.998 208.04C147.791 208.079 147.609 208.199 147.491 208.373C147.373 208.547 147.329 208.761 147.368 208.967C147.407 209.174 147.527 209.356 147.701 209.474C147.875 209.592 148.089 209.636 148.295 209.597C150.045 209.352 154.823 208.687 156.52 209.265C155.821 210.235 154.817 210.944 153.668 211.277C152.032 211.266 150.398 211.401 148.785 211.68C148.553 211.723 148.345 211.851 148.201 212.039C148.057 212.226 147.987 212.46 148.004 212.696C148.022 212.932 148.125 213.153 148.295 213.317C148.465 213.481 148.689 213.578 148.925 213.587C150.703 213.639 152.477 213.396 154.175 212.87C154.618 212.888 155.053 212.995 155.453 213.185C155.341 213.42 155.173 213.624 154.963 213.78H155.015ZM171.57 213.167C171.496 213.44 171.357 213.69 171.165 213.898C170.973 214.105 170.734 214.262 170.468 214.357C167.23 216.107 159.058 215.792 155.418 215.425C156.765 214.392 157.553 212.712 156.188 211.785C158.883 210.035 158.603 208.162 156.835 207.62C155.691 207.342 154.508 207.259 153.335 207.375C154.438 206.552 154.84 205.625 154.175 204.627C153.213 203.262 150.675 203.437 149.1 203.7C148.351 196.771 147.965 189.808 147.945 182.84C152.618 186.235 168.105 186.34 173.513 183.12C173.775 189 172.008 210.612 171.5 213.167H171.57ZM156.555 209.195C156.555 209.195 156.503 209.23 156.503 209.195H156.555ZM194.11 209.58C197.348 200.112 197.803 180.057 197.61 170.03C200.323 174.387 215.11 195.282 215.215 195.457C215.575 196.007 215.998 196.512 216.475 196.962C220.002 200.184 223.96 202.9 228.235 205.03C232.803 207.445 233.17 207.322 233.135 207.515L232.523 210.14C232.225 210.122 196.788 209.58 194.058 209.58H194.11ZM201.653 217.437C205.415 214.812 231 216.002 231.28 215.827V216.02C228.83 227.745 227.885 231.98 227.588 233.52C227.745 232.837 228.708 228.27 229.81 223.212C230.58 219.502 231.56 215.092 232.558 210.42C233.013 208.285 233.31 206.92 233.328 206.815C228.533 204.277 221.218 199.902 217.385 196.035C216.423 195.055 197.82 169.277 197.645 168.98C197.47 168.682 197.47 161 197.278 160.65C197.241 160.61 197.193 160.582 197.14 160.571C197.088 160.56 197.033 160.565 196.983 160.586C196.933 160.607 196.891 160.643 196.862 160.689C196.834 160.735 196.82 160.788 196.823 160.842C196.648 160.842 196.823 198.257 193.585 209.527L173.425 209.72C173.548 208.74 173.67 207.602 173.81 206.377C181.93 207.41 185.623 198.502 183.47 191.24C182.193 187.25 178.903 186.637 175.14 188.562C175.316 186.232 175.316 183.892 175.14 181.562C175.303 181.16 175.331 180.716 175.22 180.297C175.11 179.877 174.867 179.505 174.528 179.235C171.92 176.785 164.623 176.522 161.07 176.522C157.518 176.522 150.203 176.802 147.613 179.235C147.386 179.41 147.206 179.638 147.088 179.9C145.758 182.297 148.313 203.315 148.628 203.77C147.104 204.073 145.602 204.476 144.13 204.977V202.177C144.025 196.07 124.495 192.675 123.83 189.192C123.603 188.002 123.235 185.342 122.815 182.192C120.453 164.902 120.803 165.567 120.418 165.567C120.353 165.567 120.291 165.593 120.245 165.639C120.199 165.685 120.173 165.747 120.173 165.812C120.173 166.285 122.063 185.325 122.745 189.367C123.428 193.41 142.818 197.33 142.905 202.177C142.905 205.957 142.065 215.337 138.793 216.685C136.815 217.525 121.52 218.295 109.323 214.007C109.585 210.612 114.45 149.835 112.105 147.14C111.213 146.107 100.73 143.482 99.4005 143.15C104.65 131.25 108.535 121.45 145.04 115.727C146.054 119.125 147.294 122.452 148.75 125.685C152.46 133.612 158.743 142.17 167.44 141.435C177.433 140.577 179.043 129.745 177.45 119.857C177.345 119.157 177.24 118.702 177.153 118.3C181.955 118.78 186.727 119.516 191.45 120.505C199.693 122.255 209.825 125.58 215.478 131.845C221.585 138.565 226.923 148.942 230.668 157.237C236.058 169.172 236.023 172.252 240.66 179.13C237.399 189.419 234.666 199.869 232.47 210.437C231.77 213.71 230.72 218.697 229.723 223.23C228.27 230.23 227.395 234.657 227.483 233.73C227.325 234.675 227.483 234.64 227.483 234.867C221.778 232.323 216.273 229.351 211.015 225.977C209.178 224.752 199.798 218.75 201.653 217.402V217.437ZM175 192.132C175 191.222 175.105 190.382 175.14 189.507C178.308 188.23 181.125 188.422 181.983 191.73C183.733 197.732 180.968 205.73 173.915 205.73C173.915 204.89 174.213 202.492 174.248 202.23C182.298 203.315 182.245 188.58 175 192.132ZM174.318 201.477C174.563 198.712 174.773 195.79 174.948 193.042C175.786 192.783 176.683 192.783 177.52 193.042C179.603 193.795 179.27 201.022 174.23 201.477H174.318ZM231.56 240.31C224.827 238.107 218.312 235.283 212.1 231.875C210.35 230.947 201.285 226.012 200.673 224.105C200.144 222.401 200.089 220.586 200.515 218.855C202.86 223.422 217.735 231.105 222.513 233.362C224.7 234.394 226.958 235.271 229.268 235.987C237.353 238.875 272.038 234.237 280.56 233.187C280.665 233.555 281.4 236.372 281.68 237.387C274.26 238.245 238.525 242.147 231.473 240.31H231.56ZM309.75 284.322C307.195 286.492 291.865 288.312 284.638 286.072C282.013 285.25 281.488 284.41 280.858 281.75C280.284 278.863 279.921 275.939 279.773 273C283.36 275.205 289.94 275.765 294.158 275.887C300.51 276.027 306.758 275.887 311.868 273C311.763 274.855 311.168 283.115 309.75 284.322ZM311.92 272.317C308.469 273.794 304.755 274.562 301 274.575C295.995 274.82 284.27 274.785 279.738 272.37C279.545 269.08 279.423 265.562 279.37 262.29C281.12 264.39 290.448 265.335 294.175 265.457C300.825 265.597 307.003 265.457 312.323 262.307C312.323 262.132 312.27 266.28 311.938 272.317H311.92ZM312.323 261.695C303.573 266.105 281.855 264.11 279.353 261.695V250.932C284.918 252.91 306.915 252.77 312.428 250.932C312.393 252.945 312.41 257.04 312.34 261.695H312.323ZM308.823 249.917C308.886 249.935 308.953 249.928 309.011 249.899C309.069 249.87 309.114 249.82 309.138 249.76C309.138 249.76 309.138 249.445 309.243 248.885C310.371 249.04 311.483 249.291 312.568 249.637C308.735 251.387 285.67 251.545 279.913 249.847C279.874 249.835 279.84 249.81 279.815 249.777C279.791 249.744 279.778 249.704 279.778 249.663C279.778 249.622 279.791 249.582 279.815 249.549C279.84 249.516 279.874 249.492 279.913 249.48C281.517 249.044 283.157 248.751 284.813 248.605C284.929 249.091 285.105 249.562 285.338 250.005C285.478 250.145 285.705 250.162 285.688 249.812C285.67 249.462 279.93 226.8 279.055 221.812C279.95 222.111 280.905 222.185 281.835 222.03C282.766 221.874 283.644 221.493 284.393 220.92C286.318 226.31 292.46 250.565 292.828 250.565C292.894 250.56 292.957 250.53 293.002 250.482C293.048 250.433 293.073 250.369 293.073 250.302L292.565 247.94H294.98C294.98 248.272 295.173 249.97 295.19 250.092C295.208 250.215 295.715 250.512 295.68 249.865C295.68 248.29 294.21 222.197 294.175 221.725C294.427 221.603 294.691 221.509 294.963 221.445C295.155 222.39 301.315 247.345 301.788 249.287C301.788 249.462 301.788 249.76 302.12 249.69C302.453 249.62 302.313 249.305 302.12 248.167L304.798 248.36V248.657C304.798 248.937 305.235 248.867 305.288 248.657C305.288 248.85 308.543 215.267 308.788 212.59C309.249 212.939 309.779 213.187 310.344 213.317C310.908 213.446 311.493 213.455 312.06 213.342C312.025 213.605 308.438 249.795 308.805 249.917H308.823ZM293.073 215.127C292.865 213.444 292.13 211.869 290.973 210.63C293.37 211.347 293.878 211.872 294.473 213.517C294.946 214.828 295.073 216.238 294.84 217.612C294.604 218.477 294.604 219.39 294.84 220.255C294.554 220.32 294.273 220.408 294 220.517C292.915 217.42 290.5 217.455 290.5 214.34C290.497 213.213 290.332 212.094 290.01 211.015C290.858 212.55 291.787 214.04 292.793 215.477C292.968 215.705 293.3 215.372 293.09 215.127H293.073ZM293.948 237.212C294.035 238.07 294.718 245.507 294.893 247.397H292.39C291.865 245.035 291.078 241.535 290.185 237.79L293.948 237.212ZM293.843 235.865L289.853 236.39C289.503 234.937 289.135 233.467 288.768 232.015C290.378 231.787 291.953 231.542 293.475 231.297C293.545 232.05 293.79 235.095 293.86 235.865H293.843ZM299.285 235.06C299.005 233.73 298.323 230.72 298.27 230.545C299.793 230.282 304.973 229.39 306.04 229.18C306.04 229.932 305.743 233.117 305.673 233.922C303.975 234.29 301.805 234.675 299.25 235.06H299.285ZM305.603 235.06C305.288 239.592 304.798 247.17 304.78 247.59C303.87 247.59 302.908 247.555 301.893 247.485C301.473 245.367 299.67 236.88 299.548 236.302C301.91 235.83 303.94 235.41 305.62 235.007L305.603 235.06ZM308.945 211.137C309.159 208.919 309.504 206.716 309.978 204.54C310.445 204.399 310.937 204.366 311.419 204.442C311.901 204.517 312.359 204.7 312.76 204.977C312.656 207.176 312.422 209.368 312.06 211.54C311.903 212.152 311.868 212.31 311.465 212.362C310.678 212.415 309.085 211.75 308.963 211.085L308.945 211.137ZM311.238 231.997C311.395 230.702 311.553 229.39 311.693 228.077C312.73 227.86 313.748 227.561 314.738 227.185C314.186 229.138 312.95 230.827 311.255 231.945L311.238 231.997ZM314.16 225.732C313.422 226.026 312.661 226.26 311.885 226.432C312.2 223.492 314.055 206.377 314.055 205.17C314.055 203.42 310.94 202.772 309.33 203.42C308.788 203.665 308.63 204.697 308.473 205.607C307.598 210.49 306.565 222.67 306.163 227.622L297.955 229.127C295.908 220.202 296.083 220.692 295.855 220.465C295.699 220.316 295.494 220.229 295.278 220.22C295.116 219.44 295.158 218.633 295.4 217.875C295.762 216.361 295.714 214.778 295.26 213.29C295.027 212.207 294.405 211.248 293.51 210.595C292.086 209.84 290.55 209.32 288.96 209.055C288.877 209.032 288.79 209.03 288.705 209.048C288.621 209.066 288.542 209.104 288.475 209.159C288.408 209.214 288.356 209.284 288.321 209.363C288.287 209.442 288.272 209.528 288.278 209.615C288.315 209.763 288.362 209.909 288.418 210.052C289.783 213.307 288.838 214.795 289.783 216.737C290.728 218.68 292.32 218.977 292.898 221.217C292.898 221.392 293.388 229.477 293.405 229.967L288.453 230.755C288.103 229.425 285.705 219.957 284.76 219.03C283.01 217.28 278.005 219.24 277.76 220.78C277.603 221.655 280 231.035 280.228 231.927C271.215 233.24 261.66 234.43 253.208 235.217C249.515 235.55 226.958 237.615 228.218 233.922C229.968 225.837 233.468 210.997 234.168 207.882V207.637C234.168 207.375 234.29 207.112 234.168 207.882C234.168 207.62 234.273 207.462 234.308 207.375L238.683 190.452C239.26 188.37 243.233 174.212 245.245 173.215C249.708 171.01 323.05 161.525 329.245 165.672C330.295 170.17 317.398 223.597 314.178 225.75L314.16 225.732Z" fill="black"/>
<path d="M172.393 84.9797V83.6322C172.393 83.414 172.307 83.2048 172.152 83.0506C171.998 82.8963 171.789 82.8097 171.571 82.8097C171.351 82.8096 171.14 82.8957 170.983 83.0495C170.826 83.2033 170.735 83.4124 170.731 83.6322V85.2072C170.769 85.4153 170.887 85.6005 171.059 85.7242C171.231 85.8479 171.444 85.9006 171.653 85.8712C171.863 85.8419 172.053 85.7329 172.184 85.5668C172.316 85.4008 172.378 85.1905 172.358 84.9797H172.393ZM284.236 192.675C283.728 192.185 283.011 191.607 282.346 191.817C281.243 192.167 280.141 194.967 279.668 196.122C278.341 199.569 277.288 203.115 276.518 206.727C277.236 208.582 289.346 206.15 290.991 205.345C291.516 205.1 291.446 204.47 291.271 203.91C289.539 199.814 287.164 196.021 284.236 192.675ZM276.991 206.5C277.306 205.047 281.296 193.917 282.661 192.902C284.778 194.11 289.031 201.53 290.168 204.33C288.593 204.96 277.901 207.672 276.991 206.5ZM134.506 243.617C134.331 243.74 130.516 246.155 130.341 246.33C130.299 246.347 130.264 246.376 130.239 246.413C130.214 246.451 130.201 246.495 130.201 246.54C130.201 246.585 130.214 246.629 130.239 246.666C130.264 246.703 130.299 246.732 130.341 246.75C131.321 247.03 134.593 247.397 135.591 247.502C159.531 241.5 159.688 241.5 159.391 241.5C159.552 241.478 159.698 241.395 159.799 241.267C159.9 241.14 159.948 240.979 159.933 240.817C159.933 240.52 159.461 238.455 159.321 237.825L134.506 243.617ZM180.881 77.6647C181.371 77.6647 182.333 77.8922 182.526 77.9097C183.588 78.0199 184.641 78.207 185.676 78.4697L187.251 78.7497C187.311 78.7646 187.374 78.7579 187.429 78.7308C187.485 78.7038 187.529 78.658 187.554 78.6016C187.579 78.5452 187.584 78.4817 187.566 78.4224C187.549 78.3631 187.512 78.3116 187.461 78.2772C186.548 77.5036 185.44 76.9952 184.258 76.8072C183.088 76.5562 181.869 76.6598 180.758 77.1047C180.721 77.1127 180.687 77.1279 180.656 77.1494C180.625 77.1709 180.598 77.1983 180.578 77.23C180.558 77.2617 180.544 77.2971 180.537 77.3341C180.531 77.3712 180.531 77.4092 180.539 77.4459C180.548 77.4827 180.563 77.5175 180.584 77.5484C180.606 77.5793 180.633 77.6057 180.665 77.626C180.696 77.6463 180.732 77.6602 180.769 77.6668C180.806 77.6734 180.844 77.6727 180.881 77.6647ZM167.021 79.2047C167.493 79.0997 168.508 78.9422 168.771 78.9072C169.831 78.6756 170.908 78.5235 171.991 78.4522L173.741 78.2597C173.81 78.2597 173.877 78.232 173.926 78.1828C173.976 78.1336 174.003 78.0668 174.003 77.9972C174.003 77.9276 173.976 77.8608 173.926 77.8116C173.877 77.7623 173.81 77.7347 173.741 77.7347C172.613 77.2565 171.375 77.0966 170.163 77.2725C168.95 77.4483 167.809 77.9532 166.863 78.7322C166.822 78.7322 166.781 78.7421 166.744 78.761C166.707 78.78 166.675 78.8074 166.65 78.8412C166.626 78.8749 166.61 78.914 166.604 78.9551C166.597 78.9962 166.601 79.0382 166.614 79.0777C166.627 79.1171 166.65 79.1529 166.679 79.182C166.709 79.2112 166.745 79.2328 166.785 79.2452C166.825 79.2576 166.867 79.2604 166.908 79.2534C166.949 79.2463 166.987 79.2296 167.021 79.2047ZM184.521 82.2497C184.303 82.2497 184.093 82.3363 183.939 82.4906C183.785 82.6448 183.698 82.854 183.698 83.0722V84.6472C183.728 84.8653 183.844 85.0625 184.02 85.1955C184.195 85.3284 184.416 85.3861 184.634 85.3559C184.853 85.3258 185.05 85.2102 185.183 85.0346C185.316 84.859 185.373 84.6378 185.343 84.4197V83.0722C185.346 82.9635 185.326 82.8555 185.285 82.7546C185.245 82.6537 185.184 82.5621 185.108 82.4853C185.031 82.4084 184.939 82.3479 184.838 82.3074C184.737 82.2669 184.629 82.2473 184.521 82.2497ZM48.7032 234.185C51.1357 234.972 56.8057 237.09 59.4132 236.775C59.7282 236.775 60.0782 236.46 60.3057 235.9C62.0557 231.962 60.7957 211.942 60.1657 208.075C59.7282 205.292 49.6657 201.845 47.2332 203.822C45.6582 205.1 46.4457 219.922 46.6207 221.987C47.0757 226.975 46.6032 233.502 48.7032 234.185ZM48.0207 204.75C49.9107 203.385 58.6782 206.622 58.9582 208.25C59.3957 210.997 61.0232 234.097 59.2732 235.9C57.0157 236.232 51.0307 234.395 48.7732 233.695C47.1807 233.17 47.7232 226.205 47.4607 221.9C47.3382 218.995 47.1457 207.462 48.0207 204.75ZM172.376 95.4622C172.332 95.4406 172.284 95.4294 172.236 95.4294C172.187 95.4294 172.139 95.4406 172.096 95.4622C171.658 95.6197 171.396 96.1097 171.326 96.8272C171.269 98.6812 171.891 100.492 173.076 101.92C173.353 102.299 173.704 102.618 174.108 102.858C174.511 103.099 174.959 103.255 175.425 103.319C175.89 103.383 176.364 103.352 176.817 103.229C177.27 103.106 177.694 102.893 178.063 102.602C179.118 101.734 179.947 100.623 180.478 99.3647C180.526 99.2666 180.551 99.1588 180.551 99.0497C180.551 98.9405 180.526 98.8328 180.478 98.7347C179.936 97.8947 178.641 99.0847 172.376 95.4622ZM172.218 96.0572C174.119 97.6762 176.345 98.8696 178.746 99.5572C175.001 105.927 171.238 97.3347 172.218 96.0572ZM176.506 91.9447C177.626 92.1547 180.723 91.7697 181.388 90.6322C181.721 90.0897 181.388 89.9147 180.653 87.6747C179.991 85.7286 179.214 83.8236 178.326 81.9697C178.011 81.4797 177.608 81.9697 177.836 82.2672C178.322 84.9502 179.096 87.5729 180.146 90.0897C178.879 90.6823 177.582 91.2081 176.261 91.6647C176.258 91.6992 176.263 91.7338 176.274 91.7665C176.285 91.7993 176.302 91.8296 176.325 91.8556C176.348 91.8816 176.375 91.9029 176.406 91.9181C176.437 91.9334 176.471 91.9425 176.506 91.9447ZM241.046 273.927C247.608 269.762 242.498 265.93 238.158 267.75C237.091 265.807 236.846 265.65 234.658 265.755C223.301 266.332 172.008 278.197 171.518 278.39C168.928 279.457 175.508 294.91 178.116 296.94C178.711 297.395 178.518 297.482 184.941 296.222C185.361 300.037 187.023 306.722 190.908 306.932C192.719 306.6 194.482 306.048 196.158 305.287C199.404 308.516 202.859 311.527 206.501 314.3C210.526 316.995 236.251 286.947 240.101 283.447C241.203 283.08 242.183 282.835 242.061 280.105C245.386 279.492 247.958 277.445 246.191 274.505C245.001 272.72 242.936 273 241.046 273.927ZM241.658 269.167C242.376 269.43 242.743 269.71 242.516 270.427C242.044 271.524 241.353 272.512 240.486 273.332C240.021 271.909 239.478 270.513 238.858 269.15C239.764 268.823 240.756 268.83 241.658 269.167ZM223.038 268.59C223.686 271.652 224.123 273.315 224.946 276.132L212.818 278.425C212.121 275.893 211.309 273.393 210.386 270.935C212.678 270.497 221.166 268.905 223.038 268.59ZM205.101 291.952C205.743 294.151 206.691 296.248 207.918 298.182C204.558 299.81 201.391 301.297 198.696 302.522C197.729 299.587 196.369 296.797 194.653 294.227L205.101 291.952ZM200.148 291.952C199.557 288.912 198.809 285.903 197.908 282.94L211.908 279.912C212.672 282.876 213.595 285.797 214.673 288.662C209.861 289.677 204.838 290.815 200.148 291.882V291.952ZM205.976 292.04C205.783 291.76 204.593 292.18 217.473 289.222C217.701 290.523 218.182 291.766 218.891 292.88L208.636 297.902C208.027 295.811 207.132 293.815 205.976 291.97V292.04ZM218.226 289.03C224.876 287.49 230.983 286.02 235.201 284.9L219.748 292.442C219.462 291.2 218.952 290.02 218.243 288.96L218.226 289.03ZM215.268 288.487C214.707 285.501 213.994 282.546 213.133 279.632L225.086 276.692C225.086 276.78 225.891 279.475 226.258 280.63C226.433 281.155 227.921 285.39 228.008 285.46C224.386 286.265 215.548 288.347 215.251 288.417L215.268 288.487ZM209.861 271.11C210.438 274.295 210.981 276.36 211.611 278.74L197.611 281.82C196.788 279.037 196.228 277.217 195.021 274.067C197.751 273.437 207.761 271.442 209.878 271.04L209.861 271.11ZM194.443 274.172C195.126 277.672 195.633 279.51 196.368 282.1C195.196 282.362 185.623 284.76 185.623 284.76C185.273 284.76 185.413 285.302 185.763 285.232C185.763 285.232 196.141 283.307 196.666 283.185C196.666 283.185 197.418 286.195 199.571 292.092L188.283 294.612C186.669 288.508 184.64 282.521 182.211 276.692L194.443 274.172ZM178.606 296.345C175.946 294.35 169.856 279.65 171.693 278.845C171.693 278.845 175.701 277.97 181.721 276.71C183.221 282.843 185.223 288.842 187.706 294.647C178.501 296.712 178.903 296.502 178.623 296.275L178.606 296.345ZM190.856 305.655C187.898 305.655 186.131 299.267 185.606 296.362C185.606 296.03 184.678 296.362 193.831 294.455C194.286 294.367 193.568 294.245 195.756 298.795C196.383 300.224 197.157 301.585 198.066 302.855C195.764 303.957 193.376 304.87 190.926 305.585L190.856 305.655ZM207.166 313.145C203.608 310.652 200.19 307.964 196.928 305.095C199.938 303.852 203.351 302.26 206.291 300.86C208.592 303.535 211.2 305.932 214.061 308C212.871 309.015 208.828 312.76 207.236 313.075L207.166 313.145ZM214.568 307.475C212.257 304.895 209.669 302.577 206.851 300.562L217.841 295.155C219.372 296.726 221.144 298.044 223.091 299.057C220.339 301.905 217.52 304.688 214.638 307.405L214.568 307.475ZM223.686 298.497C222.226 297.007 220.565 295.729 218.751 294.7C226.276 290.902 230.598 288.592 237.616 284.707C234.501 287.455 226.591 295.54 223.756 298.427L223.686 298.497ZM240.381 282.047C239.628 282.59 229.321 285.11 228.428 285.32C227.314 279.595 225.68 273.983 223.546 268.555C226.941 267.977 233.661 266.805 236.163 267.085C236.502 267.483 236.795 267.917 237.038 268.38C235.844 269.191 234.855 270.27 234.151 271.53C233.976 271.967 234.431 272.195 234.658 271.985C235.534 271.058 236.557 270.284 237.686 269.692C238.48 271.333 239.169 273.022 239.751 274.75C238.196 275.813 236.794 277.085 235.586 278.53C235.358 278.81 235.428 279.02 235.586 279.107C236.006 279.352 236.041 278.722 240.171 276.272C240.588 277.689 240.823 279.153 240.871 280.63C240.783 280.945 240.731 281.75 240.451 281.977L240.381 282.047ZM244.738 277.357C243.957 278.252 242.973 278.948 241.868 279.387C241.707 278.14 241.456 276.906 241.116 275.695C242.253 275.117 244.021 274.382 244.616 275.45C244.84 275.695 244.979 276.006 245.014 276.337C245.048 276.667 244.976 277 244.808 277.287L244.738 277.357Z" fill="black"/>
</svg>
