<svg width="200" height="200" viewBox="0 0 200 200" fill="none" xmlns="http://www.w3.org/2000/svg">
<path d="M155 9.67031C150.71 9.50031 147 13.6703 147.62 17.7403C147.913 19.1588 148.639 20.4514 149.697 21.4401C150.756 22.4287 152.095 23.0647 153.53 23.2603C157.53 23.7803 161.89 20.4403 161.74 16.2603C161.615 14.5283 160.861 12.9018 159.619 11.6878C158.377 10.4738 156.734 9.75618 155 9.67031ZM157.68 20.2803L154.68 18.2803L150.77 20.7203L152.1 17.0303L149.92 15.6203L152.84 15.1403L154.68 12.1903L155.79 14.5203L159.19 14.3703L156.68 16.8003L157.68 20.2803ZM113.13 62.8703C113.8 62.7003 114.62 62.1003 114.53 61.3403C114.44 60.5803 113.62 60.1903 112.96 60.1603C111.9 60.1603 110.84 61.1603 111.02 61.9503C111.2 62.7403 112.26 63.0803 113.13 62.8703ZM83.65 172.5C84.6344 171.681 85.5114 170.74 86.26 169.7C87.55 167.89 89.44 165.26 88.73 162.4C88.28 160.56 86.62 158.16 84.24 158.08C81.86 158 79.94 160.52 79.37 162.36C78.58 164.87 79.76 167.15 80.55 168.66C81.3158 170.135 82.37 171.441 83.65 172.5ZM82 163.3C82 162.905 82.1173 162.518 82.337 162.189C82.5568 161.86 82.8692 161.604 83.2346 161.453C83.6001 161.301 84.0022 161.262 84.3902 161.339C84.7781 161.416 85.1345 161.606 85.4142 161.886C85.6939 162.166 85.8844 162.522 85.9615 162.91C86.0387 163.298 85.9991 163.7 85.8477 164.066C85.6964 164.431 85.44 164.743 85.1111 164.963C84.7822 165.183 84.3955 165.3 84 165.3C83.4695 165.3 82.9608 165.09 82.5858 164.715C82.2107 164.339 82 163.831 82 163.3ZM152.44 172.22C152.56 168.41 150.44 165.84 148.92 165.84C147.4 165.84 145.28 168.41 145.39 172.22H152.44ZM153.36 170.38L155.79 170.43C156 169.551 155.879 168.626 155.45 167.83C154.61 166.36 153.26 165.69 152.35 167.1C153.006 168.068 153.358 169.211 153.36 170.38ZM142 170.43L144.43 170.38C144.433 169.212 144.781 168.071 145.43 167.1C144.51 165.69 143.16 166.37 142.33 167.83C141.904 168.627 141.786 169.553 142 170.43ZM148.92 165.06C149.389 165.102 149.86 165 150.269 164.768C150.678 164.535 151.007 164.182 151.21 163.758C151.413 163.333 151.482 162.857 151.407 162.392C151.332 161.927 151.117 161.496 150.79 161.157C150.464 160.818 150.041 160.587 149.58 160.494C149.118 160.402 148.639 160.453 148.207 160.641C147.775 160.828 147.411 161.143 147.163 161.543C146.915 161.944 146.795 162.41 146.82 162.88C146.836 163.44 147.06 163.973 147.449 164.376C147.837 164.779 148.362 165.023 148.92 165.06ZM143.7 165.7C144.112 165.663 144.494 165.47 144.771 165.163C145.047 164.855 145.197 164.454 145.19 164.04C145.161 163.749 145.048 163.472 144.864 163.244C144.681 163.016 144.435 162.846 144.157 162.755C143.878 162.664 143.58 162.656 143.297 162.732C143.014 162.807 142.759 162.964 142.564 163.182C142.368 163.4 142.24 163.67 142.195 163.959C142.15 164.248 142.191 164.544 142.311 164.811C142.431 165.078 142.627 165.304 142.873 165.462C143.12 165.62 143.407 165.703 143.7 165.7ZM154.14 165.7C154.552 165.663 154.934 165.47 155.211 165.163C155.487 164.855 155.637 164.454 155.63 164.04C155.601 163.749 155.488 163.472 155.304 163.244C155.121 163.016 154.875 162.846 154.597 162.755C154.318 162.664 154.02 162.656 153.737 162.732C153.454 162.807 153.199 162.964 153.004 163.182C152.808 163.4 152.68 163.67 152.635 163.959C152.59 164.248 152.631 164.544 152.751 164.811C152.871 165.078 153.067 165.304 153.313 165.462C153.56 165.62 153.847 165.703 154.14 165.7ZM88.41 65.7503C87.7068 65.8044 87.005 65.6289 86.41 65.2503C86.6754 64.3722 87.114 63.5562 87.7 62.8503C87.7437 62.7858 87.7632 62.7079 87.7549 62.6303C87.7467 62.5528 87.7113 62.4807 87.655 62.4268C87.5987 62.3729 87.5251 62.3407 87.4473 62.3358C87.3695 62.331 87.2925 62.3538 87.23 62.4003C86.88 62.7603 85.36 64.9603 85.65 65.6703C85.94 66.3803 88.3 66.7703 88.83 66.2603C88.8976 66.2046 88.9403 66.1243 88.9488 66.0371C88.9572 65.9499 88.9307 65.8629 88.875 65.7953C88.8193 65.7277 88.739 65.6849 88.6518 65.6765C88.5646 65.6681 88.4776 65.6946 88.41 65.7503ZM94.29 70.8103C96.4826 70.7388 98.5909 69.9481 100.29 68.5603C100.207 69.2462 99.9812 69.907 99.6263 70.4997C99.2714 71.0924 98.7956 71.6037 98.23 72.0003C98.1637 72.0401 98.1159 72.1046 98.0971 72.1796C98.0784 72.2546 98.0902 72.334 98.13 72.4003C98.1698 72.4666 98.2343 72.5144 98.3093 72.5331C98.3843 72.5519 98.4637 72.5401 98.53 72.5003C99.411 72.0145 100.132 71.2836 100.606 70.3961C101.08 69.5086 101.286 68.5027 101.2 67.5003C101.195 67.4133 101.165 67.3297 101.113 67.2595C101.062 67.1893 100.991 67.1355 100.909 67.1048C100.828 67.0741 100.739 67.0677 100.654 67.0865C100.569 67.1052 100.491 67.1482 100.43 67.2103C98.8249 68.9361 96.6216 69.9841 94.27 70.1403C94.1709 70.1455 94.0779 70.1892 94.0106 70.262C93.9433 70.3349 93.9072 70.4312 93.91 70.5303C93.934 70.6121 93.9842 70.6838 94.0528 70.7343C94.1214 70.7849 94.2047 70.8116 94.29 70.8103ZM94.76 48.6503C94.6486 48.6503 94.5418 48.6946 94.463 48.7733C94.3842 48.8521 94.34 48.9589 94.34 49.0703C94.34 49.1817 94.3842 49.2885 94.463 49.3673C94.5418 49.4461 94.6486 49.4903 94.76 49.4903C95.5674 49.5298 96.3557 49.7497 97.0669 50.1339C97.7782 50.518 98.3943 51.0567 98.87 51.7103C98.9192 51.769 98.9879 51.8081 99.0635 51.8204C99.1391 51.8328 99.2166 51.8176 99.282 51.7777C99.3473 51.7377 99.3962 51.6756 99.4197 51.6027C99.4432 51.5298 99.4397 51.4509 99.41 51.3803C98.9421 50.5577 98.2662 49.8725 97.4501 49.3934C96.634 48.9142 95.7063 48.658 94.76 48.6503ZM82.81 49.3303C82.1447 49.8924 81.2896 50.1786 80.42 50.1303C80.3303 50.1259 80.2422 50.1552 80.173 50.2125C80.1038 50.2697 80.0585 50.3507 80.046 50.4397C80.0334 50.5286 80.0546 50.619 80.1053 50.6931C80.156 50.7672 80.2326 50.8197 80.32 50.8403C80.858 50.9532 81.4148 50.9406 81.9472 50.8036C82.4796 50.6666 82.9733 50.4089 83.39 50.0503C83.79 49.6703 83.26 49.0003 82.81 49.3303ZM81.89 59.5603C81.89 59.1103 81.65 57.2703 81.66 56.8403C81.66 56.7475 81.6231 56.6585 81.5575 56.5928C81.4918 56.5272 81.4028 56.4903 81.31 56.4903C81.2188 56.4876 81.1302 56.5205 81.0629 56.5821C80.9957 56.6438 80.9551 56.7292 80.95 56.8203C80.8956 57.7695 80.8956 58.7211 80.95 59.6703C80.9646 59.795 81.0281 59.9087 81.1265 59.9865C81.1753 60.0251 81.2311 60.0536 81.2909 60.0706C81.3507 60.0875 81.4133 60.0925 81.475 60.0853C81.5367 60.0781 81.5964 60.0588 81.6506 60.0285C81.7049 59.9982 81.7527 59.9575 81.7912 59.9088C81.8297 59.86 81.8583 59.8041 81.8753 59.7444C81.8922 59.6846 81.8972 59.622 81.89 59.5603ZM96 59.3203C96 58.9903 95.8 57.6703 95.81 57.3203C95.81 57.2275 95.7731 57.1385 95.7075 57.0728C95.6418 57.0072 95.5528 56.9703 95.46 56.9703C95.3672 56.9703 95.2781 57.0072 95.2125 57.0728C95.1468 57.1385 95.11 57.2275 95.11 57.3203C95.11 57.6803 95.01 59.0703 95.05 59.4303C95.0518 59.4968 95.0675 59.5623 95.096 59.6224C95.1245 59.6826 95.1652 59.7361 95.2155 59.7797C95.2659 59.8233 95.3247 59.8559 95.3883 59.8755C95.4519 59.8952 95.5189 59.9013 95.585 59.8937C95.6511 59.886 95.7149 59.8647 95.7724 59.8311C95.8298 59.7974 95.8796 59.7522 95.9186 59.6983C95.9577 59.6444 95.985 59.5829 95.999 59.5178C96.0131 59.4528 96.0134 59.3855 96 59.3203Z" fill="black"/>
<path d="M49.2995 103C49.2888 103.033 49.2888 103.068 49.2995 103.1C53.6702 112.947 60.7928 121.32 69.8105 127.214C78.8283 133.107 89.3568 136.27 100.129 136.32C131.369 136.32 156.969 110.03 155.66 77.8504C155.188 66.3049 151.012 55.2179 143.749 46.2304C138.093 39.278 130.845 33.79 122.619 30.2304C122.725 29.8698 122.805 29.5022 122.859 29.1304C123.419 25.4804 121.859 23.0404 119.089 20.5704C117.697 19.3707 116.235 18.2554 114.709 17.2304C113.195 16.0959 111.446 15.3167 109.589 14.9504C108.601 14.7511 107.58 14.7875 106.609 15.0569C105.638 15.3262 104.744 15.8207 103.999 16.5004C103.719 16.7904 103.479 17.2504 103.179 17.4304C102.742 17.5628 102.28 17.5936 101.829 17.5204C98.7707 17.5199 95.7441 18.1451 92.9358 19.3575C90.1275 20.5699 87.5969 22.3439 85.4995 24.5704C84.243 24.7818 83.0567 25.2954 82.0428 26.0672C81.0289 26.8389 80.2179 27.8456 79.6795 29.0004C49.7795 41.4104 37.0595 74.0004 49.2995 103ZM83.0695 111.38C81.9036 107.537 81.3965 103.523 81.5695 99.5104C81.7195 96.1704 81.9595 90.5904 85.5695 88.2504C86.6954 87.4689 87.9236 86.8464 89.2195 86.4004C88.0695 92.7704 90.2995 99.1804 92.9995 105C91.2895 105.61 84.6395 110.39 83.0695 111.4V111.38ZM91.0695 86.3804C90.9795 85.3804 90.5195 82.3804 90.4495 81.9104C90.4358 81.702 90.3688 81.5007 90.255 81.3256C90.1412 81.1505 89.9844 81.0075 89.7995 80.9104C89.4695 80.7404 87.9995 80.2404 87.6095 80.0404C82.9995 77.7804 79.5595 72.4004 79.9995 64.5504C81.2158 64.7274 82.4549 64.6697 83.6495 64.3804C85.2195 63.9104 86.1995 62.4304 86.5495 59.9904C86.7757 59.7836 87.0435 59.6275 87.335 59.5326C87.6265 59.4377 87.9349 59.4063 88.2395 59.4404C88.8606 59.4935 89.4619 59.6848 89.9995 60.0004C90.1133 60.7943 90.4114 61.5505 90.8698 62.2086C91.3282 62.8667 91.9343 63.4084 92.6395 63.7904C94.2229 64.5554 96.0396 64.6831 97.7144 64.1471C99.3893 63.6112 100.794 62.4525 101.639 60.9104C102.067 60.0562 102.335 59.131 102.429 58.1804C104.131 58.2831 105.839 58.1383 107.499 57.7504C107.499 58.2604 107.499 59.1804 107.829 59.3604C108.929 59.9104 110.829 55.4904 113.499 55.4904C114.336 55.5438 115.125 55.8991 115.719 56.4904C116.18 56.8309 116.555 57.2737 116.815 57.7839C117.076 58.294 117.214 58.8577 117.219 59.4304C117.157 59.9347 116.994 60.4216 116.742 60.8628C116.49 61.3039 116.152 61.6906 115.749 62.0004C114.555 63.1241 112.989 63.7685 111.349 63.8104C111.315 63.8143 111.282 63.8266 111.254 63.8462C111.226 63.8658 111.203 63.8921 111.187 63.9227C111.171 63.9534 111.163 63.9874 111.163 64.0219C111.164 64.0564 111.173 64.0902 111.189 64.1204C112.826 66.8338 113.976 69.8117 114.589 72.9204C114.049 78.8104 113.819 81.3204 113.709 82.5404C112.789 93.5404 108.999 102.68 102.899 111.89C101.533 113.824 100.386 115.903 99.4795 118.09C96.1095 107.5 87.7695 97.5804 89.8795 86.3304C90.0546 86.2592 90.2352 86.2023 90.4195 86.1604C90.4195 86.3137 90.4495 86.4437 90.5095 86.5504C90.5167 86.5872 90.5311 86.6222 90.5519 86.6534C90.5726 86.6846 90.5993 86.7114 90.6304 86.7323C90.6615 86.7532 90.6964 86.7677 90.7332 86.7751C90.7699 86.7825 90.8077 86.7826 90.8445 86.7754C90.8813 86.7682 90.9163 86.7538 90.9475 86.733C90.9787 86.7123 91.0055 86.6856 91.0264 86.6545C91.0473 86.6234 91.0618 86.5885 91.0692 86.5517C91.0766 86.515 91.0767 86.4772 91.0695 86.4404V86.3804ZM97.7495 44.5604C97.2267 44.1362 96.6392 43.7986 96.0095 43.5604C100.009 43.1904 103.099 42.0504 105.829 38.8404C106.13 39.0004 107.829 39.8404 108.089 40.0104C110.989 44.5204 109.399 46.3604 108.339 51.9104C108.019 53.5804 107.699 55.3204 107.519 56.8504C105.863 57.271 104.159 57.4793 102.449 57.4704C102.529 56.6804 102.569 55.8304 102.679 55.0104C102.885 54.9276 103.057 54.7789 103.169 54.5877C103.281 54.3964 103.326 54.1734 103.298 53.9536C103.269 53.7339 103.168 53.5299 103.011 53.3736C102.854 53.2174 102.649 53.1178 102.429 53.0904L90.4295 52.8004C90.248 52.8115 90.073 52.8718 89.9233 52.9749C89.7736 53.078 89.6548 53.22 89.5797 53.3856C89.5046 53.5512 89.4761 53.7341 89.4972 53.9146C89.5183 54.0952 89.5883 54.2666 89.6995 54.4104C89.6298 55.9686 89.68 57.5299 89.8495 59.0804C89.347 58.8288 88.7952 58.6912 88.2334 58.6774C87.6717 58.6636 87.1138 58.7739 86.5995 59.0004C86.6838 57.6152 86.6302 56.225 86.4395 54.8504C86.5758 54.7243 86.6774 54.5652 86.7343 54.3884C86.7912 54.2116 86.8015 54.0231 86.7643 53.8412C86.7271 53.6592 86.6437 53.4899 86.5219 53.3497C86.4002 53.2094 86.2444 53.1029 86.0695 53.0404C85.9695 53.0404 86.1295 53.0404 79.7195 52.8804C79.7995 50.8804 79.8295 45.3304 80.7195 42.6204C85.8195 46.4304 92.0295 47.6204 97.7195 44.8804C97.7569 44.8492 97.7808 44.8048 97.7864 44.7564C97.792 44.708 97.7788 44.6593 97.7495 44.6204V44.5604ZM102.049 55.0904C101.789 56.6404 101.899 58.2704 101.329 59.7204C100.736 61.2025 99.5945 62.3987 98.1416 63.06C96.6886 63.7212 95.0366 63.7966 93.5295 63.2704C92.7917 63.0221 92.14 62.5684 91.6511 61.9626C91.1622 61.3568 90.8564 60.624 90.7695 59.8504C90.5227 58.1957 90.419 56.5229 90.4595 54.8504C92.0795 55.0004 100.53 55.1204 102.049 55.1504V55.0904ZM85.7595 55.0904C86.0295 57.6104 86.1695 62.0904 83.9295 63.3304C83.2639 63.6194 82.5451 63.7659 81.8195 63.7604C81.185 63.8155 80.5459 63.7852 79.9195 63.6704C79.2728 63.5633 78.6682 63.2798 78.1724 62.851C77.6766 62.4222 77.3088 61.8649 77.1095 61.2404C76.6362 59.1451 76.4412 56.9966 76.5295 54.8504L85.7595 55.0904ZM99.6395 129.78C97.2695 126 88.9995 113.2 86.8195 110C88.7577 108.288 90.9088 106.832 93.2195 105.67C93.8895 106.95 98.2195 115.84 99.1095 119.4C99.1324 119.48 99.1804 119.549 99.2462 119.598C99.312 119.648 99.3921 119.675 99.4745 119.675C99.5568 119.675 99.6369 119.648 99.7028 119.598C99.7686 119.549 99.8166 119.48 99.8395 119.4C101.239 113.98 104.689 111.53 108.729 103.11C111.004 104.383 113.074 105.991 114.869 107.88C112.999 111.17 102.999 125.87 99.6395 129.83V129.78ZM117.999 109.36C112.199 103.95 109.829 102.71 109.099 102.43C111.911 96.5481 113.707 90.2322 114.41 83.7504C117.31 86.0004 120.309 88.2104 122.989 90.6604C122.409 93.3904 119.229 105.58 117.999 109.36ZM122.449 30.8504C147.819 42.3504 161.45 69.7004 151.82 98.7504C146.89 96.6204 127.919 90.8304 123.579 90.1604C122.359 89.0004 116.579 84.5104 114.509 82.9404C114.509 82.4604 114.429 83.8604 115.229 74.1504C115.229 74.0404 117.459 62.9504 118.399 60.5304C118.903 59.2506 119.516 58.0161 120.229 56.8404C121.398 54.7265 121.754 52.2583 121.229 49.9004C121.034 49.1519 120.694 48.4487 120.229 47.8304C121.245 46.8359 121.941 45.5618 122.229 44.1704C122.499 42.0604 121.449 40.0104 120.429 38.2404C121.181 37.0583 121.608 35.6996 121.669 34.3004C121.642 33.7697 121.491 33.2527 121.229 32.7904C121.753 32.2325 122.155 31.5718 122.41 30.8504H122.449ZM81.1695 28.2604C84.1695 24.0104 90.1695 25.0804 95.2395 26.1004C101.365 27.3495 107.325 29.3059 112.999 31.9304C113.063 31.9635 113.137 31.9701 113.206 31.9485C113.274 31.9269 113.331 31.879 113.364 31.8154C113.398 31.7517 113.404 31.6775 113.383 31.6091C113.361 31.5406 113.313 31.4835 113.249 31.4504C107.763 28.7525 101.966 26.7375 95.9895 25.4504C93.1395 24.8404 89.7295 24.1304 86.7695 24.4504C90.1787 21.2436 94.5162 19.1991 99.1595 18.6104C102.329 18.2104 103.239 18.8604 104.099 17.7904C104.526 17.1991 105.08 16.7106 105.719 16.3604C107.369 15.5004 109.78 15.3604 112.66 17.0004C114.214 17.8906 115.701 18.8933 117.109 20.0004C118.521 21.0217 119.771 22.2487 120.819 23.6404C121.803 24.94 122.277 26.5553 122.149 28.1804C122.102 29.6077 121.597 30.9819 120.709 32.1004C120.318 31.6488 119.89 31.2307 119.429 30.8504C117.049 28.8504 109.049 23.2104 107.429 22.2204C107.362 22.178 107.28 22.1641 107.202 22.1819C107.124 22.1998 107.057 22.2478 107.014 22.3154C106.972 22.383 106.958 22.4647 106.976 22.5426C106.994 22.6204 107.042 22.688 107.109 22.7304C109.379 24.1504 116.379 29.3904 118.109 30.8604C119.229 31.7904 120.309 32.6304 120.629 33.6204C121.109 35.1504 120.229 36.6204 119.629 38.0404C119.599 38.1071 119.591 38.1815 119.605 38.2533C119.62 38.325 119.656 38.3905 119.709 38.4404C120.609 40.0604 121.649 42.3304 121.359 44.1704C121.08 45.3101 120.488 46.3492 119.649 47.1704C115.549 42.2904 105.779 36.8204 99.2795 34.3704C91.6595 31.4604 82.0395 31.4504 79.4195 32.5404C79.6855 31.0037 80.2826 29.5432 81.1695 28.2604ZM79.1695 30.1704C78.8532 31.1058 78.6321 32.0706 78.5095 33.0504C77.7395 33.3704 77.0495 34.6704 76.5095 36.7604C75.8595 39.5404 75.2895 41.9404 76.6795 44.2904C77.3073 45.3158 78.1846 46.1656 79.2295 46.7604C79.1095 47.7604 78.7995 51.4104 78.8295 52.9304L76.1995 52.8704H76.1295C75.9342 52.909 75.755 53.0051 75.6146 53.1462C75.4742 53.2873 75.3792 53.4671 75.3416 53.6625C75.304 53.858 75.3256 54.0602 75.4036 54.2433C75.4816 54.4264 75.6125 54.5821 75.7795 54.6904C75.7354 56.8404 75.8624 58.9905 76.1595 61.1204C76.3114 61.8871 76.6718 62.5971 77.2011 63.1722C77.7304 63.7474 78.408 64.1654 79.1595 64.3804C78.8812 67.9855 79.6118 71.5969 81.2695 74.8104C82.8211 77.8128 85.4284 80.1351 88.5895 81.3304C89.5895 81.6604 89.5895 81.6204 89.6895 82.1604C89.6895 82.1604 90.1095 84.6804 90.2495 85.4404C87.2972 85.9287 84.6125 87.4447 82.6695 89.7204C71.0459 91.9308 59.934 96.2813 49.8995 102.55C47.0419 95.8772 45.5335 88.7042 45.4616 81.4452C45.3896 74.1861 46.7553 66.9847 49.48 60.2561C52.2048 53.5274 56.2346 47.4048 61.3371 42.2411C66.4396 37.0775 72.5138 32.9751 79.2095 30.1704H79.1695ZM47.9995 13.7704C48.5895 13.7104 48.5195 12.8204 47.9995 12.8904C45.6595 12.9604 36.6895 13.2604 34.2695 13.2404C34.203 13.2529 34.1431 13.2882 34.0999 13.3403C34.0567 13.3923 34.0331 13.4578 34.0331 13.5254C34.0331 13.593 34.0567 13.6585 34.0999 13.7105C34.1431 13.7626 34.203 13.7979 34.2695 13.8104C36.5095 13.9204 45.7195 14.0004 47.9995 13.7704ZM46.9995 16.1304C46.0895 16.1304 36.4995 16.8804 34.5795 16.9104C34.5026 16.9104 34.4288 16.9409 34.3744 16.9953C34.32 17.0497 34.2895 17.1235 34.2895 17.2004C34.2895 17.2773 34.32 17.3511 34.3744 17.4055C34.4288 17.4598 34.5026 17.4904 34.5795 17.4904C36.1395 17.4904 45.9095 17.2304 47.0995 17.0004C47.2062 16.9773 47.3006 16.9154 47.3642 16.8266C47.4278 16.7378 47.4561 16.6286 47.4436 16.5201C47.4311 16.4116 47.3788 16.3116 47.2967 16.2396C47.2146 16.1676 47.1087 16.1287 46.9995 16.1304ZM48.5895 20.0804C48.5895 20.0804 36.3195 20.5404 35.1495 20.5504C35.0731 20.5639 35.0038 20.6038 34.9539 20.6632C34.9041 20.7227 34.8767 20.7978 34.8767 20.8754C34.8767 20.953 34.9041 21.0281 34.9539 21.0875C35.0038 21.147 35.0731 21.1869 35.1495 21.2004C39.6495 21.2004 44.1495 21.3704 48.6195 21.0104C48.7309 20.9907 48.8314 20.9316 48.9027 20.8438C48.974 20.756 49.0112 20.6454 49.0076 20.5324C49.0039 20.4194 48.9596 20.3114 48.8829 20.2284C48.8061 20.1454 48.7019 20.0928 48.5895 20.0804ZM115.999 169.22L115.259 168.84C115.234 168.825 115.204 168.818 115.174 168.818C115.145 168.818 115.115 168.825 115.089 168.84C114.121 169.663 113.343 170.687 112.809 171.84C112.795 171.877 112.794 171.917 112.807 171.954C112.82 171.99 112.845 172.021 112.879 172.04C113.594 172.411 114.385 172.61 115.189 172.62C117.85 172.62 119.529 170.34 121.029 168.22C122.329 166.36 123.959 164.05 123.149 161.81C122.872 161.063 122.391 160.408 121.759 159.92C121.734 159.897 121.7 159.883 121.664 159.883C121.629 159.883 121.595 159.897 121.569 159.92C120.537 160.705 119.718 161.736 119.189 162.92C119.173 162.944 119.164 162.972 119.164 163C119.164 163.029 119.173 163.057 119.189 163.08L119.999 163.85C119.064 165.905 117.7 167.736 115.999 169.22ZM113.509 167.9C112.828 168.672 112.216 169.502 111.679 170.38C111.419 170.95 112.179 171.23 112.379 170.88C112.938 170.018 113.553 169.193 114.219 168.41C114.429 168.19 113.999 167.57 113.509 167.9ZM118.549 162.19C118.612 162.192 118.675 162.18 118.732 162.154C118.789 162.128 118.84 162.089 118.879 162.04C119.442 161.18 120.056 160.355 120.719 159.57C120.939 159.34 120.509 158.73 119.999 159.07C119.325 159.839 118.719 160.665 118.189 161.54C118.151 161.605 118.13 161.679 118.129 161.754C118.128 161.829 118.146 161.903 118.183 161.969C118.219 162.035 118.272 162.09 118.337 162.129C118.401 162.167 118.474 162.189 118.549 162.19ZM148.38 149.39C148.443 149.391 148.506 149.377 148.563 149.349C148.621 149.322 148.671 149.281 148.71 149.23C148.748 149.18 148.775 149.121 148.787 149.059C148.799 148.996 148.797 148.932 148.779 148.87L149.009 141.87C149.009 141.33 149.06 140.66 148.439 140.31C147.819 139.96 49.9595 139.73 50.0695 139.73C50.0351 139.732 50.0017 139.742 49.972 139.759C49.9424 139.777 49.9175 139.801 49.8995 139.83C49.592 142.485 49.4684 145.158 49.5295 147.83C49.6465 148.072 49.8346 148.273 50.0687 148.405C50.3028 148.538 50.5718 148.595 50.8395 148.57C52.2095 148.57 148.38 149.39 148.38 149.39ZM148.179 141.89C148.179 142.12 148.179 141.98 147.999 148.54C143.319 148.4 51.2395 147.68 50.5495 147.64C50.2395 147.53 50.2395 147.23 50.2595 146.76L50.4495 140.57C55.3595 140.71 147.549 140.95 147.929 140.98C148.309 141.01 148.209 141.42 148.179 141.89ZM58.7395 178.56C58.8562 178.56 58.9681 178.514 59.0506 178.432C59.1331 178.349 59.1795 178.237 59.1795 178.12C59.1795 178.004 59.1331 177.892 59.0506 177.809C58.9681 177.727 58.8562 177.68 58.7395 177.68C56.4995 177.81 47.4295 178.06 45.0095 178.03C44.943 178.043 44.8831 178.078 44.8399 178.13C44.7967 178.182 44.7731 178.248 44.7731 178.315C44.7731 178.383 44.7967 178.449 44.8399 178.501C44.8831 178.553 44.943 178.588 45.0095 178.6C47.2395 178.71 56.4295 178.78 58.7395 178.56ZM57.6895 180.92C56.7895 180.92 47.1995 181.67 45.2695 181.7C45.1926 181.7 45.1188 181.731 45.0644 181.785C45.01 181.84 44.9795 181.914 44.9795 181.99C44.9795 182.067 45.01 182.141 45.0644 182.195C45.1188 182.25 45.1926 182.28 45.2695 182.28C47.0795 182.28 56.6395 182.01 57.7895 181.79C57.8962 181.767 57.9906 181.705 58.0542 181.617C58.1178 181.528 58.1461 181.419 58.1336 181.31C58.1211 181.202 58.0688 181.102 57.9867 181.03C57.9046 180.958 57.7987 180.919 57.6895 180.92ZM59.3095 184.88C59.3095 184.88 47.0595 185.33 45.8595 185.34C45.7831 185.354 45.7138 185.394 45.664 185.453C45.6141 185.513 45.5867 185.588 45.5867 185.665C45.5867 185.743 45.6141 185.818 45.664 185.878C45.7138 185.937 45.7831 185.977 45.8595 185.99C50.3395 185.99 54.8595 186.16 59.3195 185.8C59.3799 185.8 59.4396 185.787 59.4951 185.763C59.5507 185.74 59.601 185.705 59.6433 185.662C59.6856 185.619 59.7189 185.568 59.7414 185.512C59.7639 185.456 59.7752 185.396 59.7745 185.335C59.7738 185.275 59.7613 185.215 59.7376 185.16C59.7138 185.104 59.6794 185.054 59.6362 185.012C59.593 184.969 59.542 184.936 59.4859 184.914C59.4298 184.891 59.3699 184.88 59.3095 184.88ZM90.5895 178.56C90.7062 178.56 90.8181 178.514 90.9006 178.432C90.9831 178.349 91.0295 178.237 91.0295 178.12C91.0295 178.004 90.9831 177.892 90.9006 177.809C90.8181 177.727 90.7062 177.68 90.5895 177.68C88.3295 177.8 79.2695 178.06 76.8595 178.03C76.793 178.043 76.7331 178.078 76.6899 178.13C76.6467 178.182 76.6231 178.248 76.6231 178.315C76.6231 178.383 76.6467 178.449 76.6899 178.501C76.7331 178.553 76.793 178.588 76.8595 178.6C79.0995 178.71 88.2695 178.78 90.5895 178.56ZM89.5395 180.92C88.6395 180.92 79.0495 181.67 77.1195 181.7C77.0426 181.7 76.9688 181.731 76.9144 181.785C76.86 181.84 76.8295 181.914 76.8295 181.99C76.8295 182.067 76.86 182.141 76.9144 182.195C76.9688 182.25 77.0426 182.28 77.1195 182.28C78.9195 182.28 88.4795 182.01 89.6295 181.79C89.7353 181.767 89.829 181.706 89.8926 181.619C89.9561 181.531 89.9851 181.423 89.9739 181.315C89.9628 181.207 89.9123 181.108 89.8321 181.035C89.752 180.962 89.6478 180.921 89.5395 180.92ZM91.1695 184.88C91.1695 184.88 78.9095 185.33 77.7195 185.34C77.6431 185.354 77.5738 185.394 77.524 185.453C77.4741 185.513 77.4467 185.588 77.4467 185.665C77.4467 185.743 77.4741 185.818 77.524 185.878C77.5738 185.937 77.6431 185.977 77.7195 185.99C82.1995 185.99 86.7195 186.16 91.1795 185.8C91.3015 185.799 91.418 185.749 91.5033 185.662C91.5886 185.575 91.6358 185.457 91.6345 185.335C91.6332 185.213 91.5834 185.097 91.4962 185.012C91.409 184.926 91.2915 184.879 91.1695 184.88ZM123.419 178.56C123.536 178.56 123.648 178.514 123.731 178.432C123.813 178.349 123.859 178.237 123.859 178.12C123.859 178.004 123.813 177.892 123.731 177.809C123.648 177.727 123.536 177.68 123.419 177.68C121.159 177.81 112.109 178.06 109.679 178.03C109.613 178.043 109.553 178.078 109.51 178.13C109.467 178.182 109.443 178.248 109.443 178.315C109.443 178.383 109.467 178.449 109.51 178.501C109.553 178.553 109.613 178.588 109.679 178.6C111.929 178.71 121.099 178.78 123.419 178.56ZM122.369 180.92C121.479 180.92 111.879 181.67 109.959 181.7C109.883 181.7 109.809 181.731 109.754 181.785C109.7 181.84 109.669 181.914 109.669 181.99C109.669 182.067 109.7 182.141 109.754 182.195C109.809 182.25 109.883 182.28 109.959 182.28C111.759 182.28 121.319 182.01 122.479 181.79C122.587 181.767 122.683 181.705 122.747 181.615C122.811 181.525 122.838 181.414 122.825 181.305C122.811 181.195 122.756 181.095 122.672 181.024C122.588 180.953 122.48 180.916 122.369 180.92ZM123.999 184.88C123.999 184.88 111.74 185.33 110.549 185.34C110.473 185.354 110.404 185.394 110.354 185.453C110.304 185.513 110.277 185.588 110.277 185.665C110.277 185.743 110.304 185.818 110.354 185.878C110.404 185.937 110.473 185.977 110.549 185.99C115.03 185.99 119.549 186.16 124.009 185.8C124.131 185.799 124.248 185.749 124.333 185.662C124.419 185.575 124.466 185.457 124.464 185.335C124.463 185.213 124.413 185.097 124.326 185.012C124.239 184.926 124.121 184.879 123.999 184.88ZM155.35 178.56C155.466 178.56 155.578 178.514 155.661 178.432C155.743 178.349 155.789 178.237 155.789 178.12C155.789 178.004 155.743 177.892 155.661 177.809C155.578 177.727 155.466 177.68 155.35 177.68C153.11 177.8 144.039 178.06 141.609 178.03C141.543 178.043 141.483 178.078 141.44 178.13C141.397 178.182 141.373 178.248 141.373 178.315C141.373 178.383 141.397 178.449 141.44 178.501C141.483 178.553 141.543 178.588 141.609 178.6C143.859 178.71 153 178.78 155.35 178.56ZM154.299 180.92C153.41 180.92 143.809 181.67 141.889 181.7C141.813 181.7 141.739 181.731 141.684 181.785C141.63 181.84 141.6 181.914 141.6 181.99C141.6 182.067 141.63 182.141 141.684 182.195C141.739 182.25 141.813 182.28 141.889 182.28C143.689 182.28 153.249 182.01 154.41 181.79C154.517 181.767 154.613 181.705 154.677 181.615C154.741 181.525 154.768 181.414 154.755 181.305C154.741 181.195 154.686 181.095 154.602 181.024C154.518 180.953 154.41 180.916 154.299 180.92ZM155.929 184.88C155.929 184.88 143.669 185.33 142.479 185.34C142.403 185.354 142.334 185.394 142.284 185.453C142.234 185.513 142.207 185.588 142.207 185.665C142.207 185.743 142.234 185.818 142.284 185.878C142.334 185.937 142.403 185.977 142.479 185.99C146.949 185.99 151.479 186.16 155.939 185.8C156.062 185.799 156.178 185.749 156.263 185.662C156.349 185.575 156.396 185.457 156.395 185.335C156.393 185.213 156.343 185.097 156.256 185.012C156.169 184.926 156.051 184.879 155.929 184.88ZM60.8095 173.05L58.4895 173C58.4895 171.82 58.4095 168.78 58.3695 167.84C58.6709 167.588 58.8653 167.232 58.9136 166.842C58.9619 166.452 58.8603 166.058 58.6295 165.74C58.5395 165.61 58.6295 165.64 55.7995 165.74V163.74C55.9753 163.491 56.0935 163.205 56.1454 162.904C56.1973 162.603 56.1816 162.295 56.0995 162C56.0882 161.956 56.0622 161.918 56.0258 161.89C55.9895 161.863 55.9449 161.849 55.8995 161.85L52.3395 161.96C52.2795 161.2 52.0195 158.47 51.9195 158.29C51.8513 158.161 51.7373 158.061 51.5995 158.01C52.8395 156.22 50.8895 155.59 51.2695 154.67C51.4295 154.28 50.8495 154.01 50.6195 154.37C50.0572 155.123 49.6246 155.965 49.3395 156.86C49.3483 157.126 49.4222 157.385 49.5547 157.615C49.6872 157.845 49.8743 158.04 50.0995 158.18C49.9544 158.238 49.832 158.342 49.7508 158.475C49.6696 158.609 49.6341 158.765 49.6495 158.92V162.03L46.7995 162.12C46.7584 162.121 46.7186 162.135 46.6862 162.16C46.6537 162.186 46.6303 162.221 46.6195 162.26C46.5094 162.581 46.4829 162.925 46.5424 163.259C46.6019 163.594 46.7454 163.907 46.9595 164.17C46.9595 164.74 47.0295 165.52 47.0895 166.08C44.2095 166.2 44.3195 166.16 44.2295 166.26C43.5095 167.12 43.0495 168.61 43.8995 169.26V172.89H42.2195C42.1373 172.89 42.0584 172.923 42.0003 172.981C41.9422 173.039 41.9095 173.118 41.9095 173.2C41.9095 173.283 41.9422 173.361 42.0003 173.42C42.0584 173.478 42.1373 173.51 42.2195 173.51C42.3295 173.51 60.6795 173.73 60.8495 173.71C60.937 173.705 61.0188 173.665 61.077 173.6C61.1351 173.534 61.1648 173.448 61.1595 173.36C61.1542 173.273 61.1143 173.191 61.0487 173.133C60.9831 173.075 60.897 173.045 60.8095 173.05ZM51.6195 162H50.3695V158.84C50.6937 158.743 51.031 158.695 51.3695 158.7C51.3895 159.12 51.5695 161.35 51.6195 162ZM50.0795 156.8C50.2585 156.401 50.4692 156.016 50.7095 155.65C51.0395 156.29 51.5195 156.65 51.2395 157.28C51.119 157.499 50.9748 157.703 50.8095 157.89C50.3695 157.58 49.9995 157.22 50.0795 156.78V156.8ZM49.8595 163.85C49.9941 164.134 50.2065 164.374 50.472 164.542C50.7375 164.71 51.0453 164.799 51.3595 164.799C51.6737 164.799 51.9814 164.71 52.247 164.542C52.5125 164.374 52.7249 164.134 52.8595 163.85C53.1298 164.109 53.4636 164.291 53.8272 164.379C54.1907 164.467 54.571 164.457 54.9295 164.35V165.82L47.7895 166.1C47.7895 165.61 47.7395 165.1 47.6995 164.64C48.0992 164.715 48.5117 164.679 48.8924 164.536C49.2731 164.394 49.6075 164.15 49.8595 163.83V163.85ZM44.6495 172.85V169.48C45.0978 169.514 45.5481 169.45 45.9693 169.293C46.3906 169.136 46.7727 168.889 47.0895 168.57C47.4564 168.899 47.9318 169.081 48.4245 169.081C48.9172 169.081 49.3926 168.899 49.7595 168.57C50.9195 169.84 52.6595 169.25 53.6195 167.84C53.8092 168.109 54.0572 168.332 54.3449 168.492C54.6326 168.652 54.9527 168.745 55.2813 168.764C55.6099 168.784 55.9387 168.729 56.2431 168.603C56.5475 168.478 56.8197 168.285 57.0395 168.04C57.2513 168.097 57.4716 168.114 57.6895 168.09C57.6895 169.15 57.6895 171.83 57.7595 172.95C54.6895 172.93 46.6595 172.87 44.6495 172.87V172.85Z" fill="black"/>
<path d="M179.94 60.24C178.36 59.12 179.48 59.24 177.18 51.67C176.4 49.1 175.53 46.01 173.18 45.02C173.18 37.56 173.18 6.48003 173.23 5.42003C173.271 5.35299 173.294 5.27615 173.295 5.19752C173.296 5.11889 173.276 5.04134 173.238 4.97293C173.199 4.90452 173.142 4.84777 173.074 4.80856C173.006 4.76936 172.929 4.74915 172.85 4.75003C153.95 4.75003 36.4601 5.28003 26.0401 5.40003C25.9771 5.40133 25.9153 5.41749 25.8597 5.4472C25.8042 5.4769 25.7564 5.51931 25.7203 5.57097C25.6843 5.62263 25.6609 5.68208 25.6522 5.74448C25.6435 5.80687 25.6496 5.87045 25.6701 5.93003C25.4201 19.08 25.0601 90.88 24.9701 118.26C19.6638 122.921 15.497 128.737 12.7901 135.26C7.91008 147.19 7.62008 156.26 11.9401 162.09C14.8001 165.99 20.5101 170.37 25.0401 168.36C24.9001 187.42 24.8601 192.99 24.9701 194.6C25.0201 195.35 25.1101 195.24 25.2201 195.24C25.3301 195.24 166.29 194.98 172.54 194.91C172.618 194.91 172.695 194.888 172.762 194.848C172.829 194.807 172.884 194.749 172.92 194.68C172.97 194.58 173.19 149.99 173.36 138.16C174.58 138.127 175.776 137.812 176.854 137.242C177.933 136.671 178.866 135.86 179.58 134.87C182.029 131.805 184.047 128.421 185.58 124.81C187.84 118.86 189.47 114.57 190.42 107.92C192.52 93.27 189.37 77.27 183.04 64C181.91 61.61 182.07 61.75 179.94 60.24ZM22.0001 161.66C20.1201 160.79 18.4101 156.87 19.1001 153.49C19.6441 151.27 20.8761 149.278 22.6201 147.8C23.4166 147.01 24.2911 146.303 25.2301 145.69V149.14C24.4814 149.654 23.8083 150.27 23.2301 150.97C23.1851 151.041 23.168 151.126 23.182 151.209C23.1961 151.292 23.2403 151.366 23.3061 151.419C23.3719 151.471 23.4547 151.497 23.5385 151.491C23.6224 151.486 23.7013 151.45 23.7601 151.39C24.7428 150.421 25.8736 149.614 27.1101 149C27.9801 148.61 28.1601 148.79 27.9501 149.6C27.7693 150.575 27.2906 151.469 26.5801 152.16C25.8707 152.731 25.0868 153.202 24.2501 153.56C23.7973 153.754 23.3679 153.999 22.9701 154.29C22.9172 154.343 22.8853 154.413 22.8801 154.488C22.875 154.562 22.897 154.636 22.942 154.696C22.9871 154.756 23.0522 154.797 23.1253 154.812C23.1985 154.828 23.2747 154.816 23.3401 154.78C24.1401 154.25 26.6501 153.47 28.0301 152.5C29.0301 151.81 29.1201 152.33 28.7801 153.36C28.0801 155.43 25.6501 156.5 24.0401 157.8C23.9841 157.856 23.9497 157.93 23.9426 158.01C23.9356 158.089 23.9564 158.168 24.0016 158.233C24.0467 158.298 24.1132 158.346 24.1897 158.367C24.2661 158.388 24.3476 158.382 24.4201 158.35C24.8701 158.1 25.3201 157.79 25.9601 157.35C26.6001 156.91 28.4101 156 29.0701 156.35C29.1446 156.384 29.2078 156.439 29.2521 156.508C29.2964 156.578 29.32 156.658 29.3201 156.74C29.4201 157.46 28.8201 158.16 28.2101 158.94C25.4101 162.52 23.1001 162.19 22.0001 161.66ZM172.15 194C163.45 194.05 32.5201 194.38 25.7101 194.46C25.7901 191.61 25.7101 173.59 25.7601 162.21C27.1192 161.177 28.372 160.011 29.5001 158.73C29.7801 158.34 30.6501 156.99 29.9701 155.93C29.8183 155.703 29.6019 155.526 29.3489 155.423C29.0958 155.319 28.8176 155.294 28.5501 155.35C29.2399 154.633 29.6755 153.709 29.7901 152.72C29.7901 152.41 29.8801 151.72 29.2901 151.43C29.0835 151.362 28.8641 151.344 28.649 151.375C28.4339 151.406 28.2289 151.486 28.0501 151.61C28.1401 151.47 28.2101 151.33 28.2901 151.18C28.6501 150.47 29.1501 148.84 28.7501 148.24C28.2001 147.43 26.8001 148.1 25.9601 148.6C26.0201 55.2 26.5001 21.77 26.4501 6.18003C36.1201 6.18003 166.36 5.65003 172.45 5.61003C172.37 11.16 172.24 49.35 172.24 49.35C170.579 49.6231 168.989 50.2212 167.56 51.11C167.169 51.2987 166.843 51.5977 166.62 51.97C166.544 52.1006 166.498 52.2458 166.483 52.3959C166.467 52.546 166.485 52.6976 166.533 52.8406C166.581 52.9835 166.659 53.1145 166.762 53.2248C166.865 53.335 166.991 53.4221 167.13 53.48C166.72 53.7267 166.377 54.07 166.13 54.48C166.03 54.8684 166.077 55.28 166.261 55.6361C166.446 55.9921 166.755 56.2677 167.13 56.41C166.07 57.36 166.28 59.03 168.42 59.34C169.723 59.5229 171.048 59.4652 172.33 59.17C172.92 68 172.05 188.35 172.15 194ZM173.35 61.31C173.29 60.58 173.22 59.81 173.13 58.99C173.771 58.7956 174.393 58.5446 174.99 58.24C175.41 58.03 175.07 57.4 174.65 57.61C173.059 58.3496 171.313 58.6927 169.56 58.61C168.91 58.61 167.82 58.61 167.56 57.98C167.3 57.35 167.93 56.88 168.36 56.76C170.247 57.0424 172.174 56.6907 173.84 55.76C173.92 55.7176 173.979 55.6453 174.005 55.559C174.032 55.4728 174.022 55.3796 173.98 55.3C173.938 55.2205 173.865 55.161 173.779 55.1348C173.693 55.1085 173.6 55.1176 173.52 55.16C172.016 55.8823 170.333 56.1466 168.68 55.92C167.5 55.76 166.95 55.43 166.97 54.92C166.97 54.68 167.97 53.92 168.37 53.75C170.141 54.0014 171.939 54.0014 173.71 53.75C174.16 53.69 174.1 53 173.65 53.06C172.31 53.23 168.01 53.12 167.6 52.76C167.557 52.7319 167.521 52.6934 167.496 52.648C167.472 52.6026 167.459 52.5517 167.459 52.5C167.459 52.4484 167.472 52.3975 167.496 52.3521C167.521 52.3067 167.557 52.2682 167.6 52.24C168.66 51.14 172.44 50.03 173.45 49.87C173.53 49.8607 173.602 49.8202 173.652 49.7574C173.702 49.6946 173.724 49.6146 173.715 49.535C173.706 49.4555 173.665 49.3828 173.602 49.3331C173.54 49.2834 173.46 49.2607 173.38 49.27H173.21V45.86C175.01 46.93 175.71 49.38 176.27 51.36C178.79 60.15 177.35 59.57 179.92 61.3C180.33 61.5597 180.712 61.8613 181.06 62.2C178.51 63.78 175.62 63.2 173.35 61.34V61.31Z" fill="black"/>
<path d="M107.45 109.59C107.219 109.59 106.992 109.659 106.8 109.788C106.608 109.916 106.458 110.099 106.369 110.313C106.28 110.526 106.257 110.762 106.302 110.989C106.348 111.216 106.459 111.424 106.623 111.588C106.786 111.751 106.995 111.863 107.222 111.908C107.449 111.953 107.684 111.93 107.898 111.841C108.111 111.753 108.294 111.603 108.423 111.41C108.551 111.218 108.62 110.992 108.62 110.76C108.62 110.45 108.497 110.152 108.277 109.933C108.058 109.714 107.76 109.59 107.45 109.59ZM104 115.31C103.743 115.31 103.492 115.387 103.278 115.529C103.064 115.672 102.897 115.875 102.799 116.113C102.701 116.35 102.675 116.612 102.725 116.864C102.775 117.116 102.899 117.348 103.081 117.53C103.263 117.711 103.494 117.835 103.746 117.885C103.999 117.936 104.26 117.91 104.497 117.811C104.735 117.713 104.938 117.546 105.081 117.333C105.224 117.119 105.3 116.867 105.3 116.61C105.3 116.266 105.163 115.935 104.919 115.691C104.675 115.447 104.345 115.31 104 115.31ZM100.9 120.33C100.702 120.33 100.509 120.389 100.344 120.499C100.18 120.609 100.052 120.765 99.9761 120.948C99.9004 121.13 99.8806 121.331 99.9192 121.525C99.9578 121.719 100.053 121.898 100.193 122.037C100.333 122.177 100.511 122.273 100.705 122.311C100.899 122.35 101.1 122.33 101.283 122.254C101.465 122.179 101.622 122.05 101.731 121.886C101.841 121.721 101.9 121.528 101.9 121.33C101.9 121.065 101.795 120.811 101.607 120.623C101.42 120.436 101.165 120.33 100.9 120.33Z" fill="black"/>
</svg>
