<svg width="400" height="400" viewBox="0 0 400 400" fill="none" xmlns="http://www.w3.org/2000/svg">
<path d="M192.34 189.28C193.071 189.504 193.86 189.443 194.549 189.11C195.238 188.778 195.776 188.198 196.056 187.486C196.336 186.774 196.338 185.983 196.061 185.27C195.783 184.557 195.247 183.975 194.56 183.64C193.941 183.397 193.272 183.306 192.611 183.376C191.949 183.445 191.314 183.673 190.76 184.04C190.339 184.427 190.036 184.924 189.885 185.475C189.735 186.026 189.742 186.609 189.907 187.156C190.072 187.703 190.388 188.192 190.818 188.568C191.248 188.943 191.776 189.19 192.34 189.28ZM191.2 186.2C191.2 184.52 194.54 184.32 194.86 186.2C195.48 188.82 191.1 188.66 191.2 186.2ZM190 61.2802C186.92 64.9002 187.66 69.5602 192.5 71.8402C193.595 71.5578 194.712 71.3704 195.84 71.2802C197.125 71.3645 198.402 71.545 199.66 71.8202C200.994 71.0182 202.032 69.8043 202.616 68.3614C203.2 66.9184 203.3 65.3246 202.9 63.8202C202.527 62.5118 201.8 61.3318 200.799 60.4106C199.798 59.4894 198.562 58.8628 197.228 58.6C195.893 58.3372 194.511 58.4484 193.236 58.9214C191.96 59.3943 190.84 60.2107 190 61.2802ZM188.88 96.0002C188.856 95.8822 188.793 95.776 188.7 95.6997C188.607 95.6234 188.49 95.5817 188.37 95.5817C188.249 95.5817 188.133 95.6234 188.04 95.6997C187.947 95.776 187.883 95.8822 187.86 96.0002C187.711 97.1145 187.624 98.2362 187.6 99.3602C187.652 99.5202 187.754 99.6596 187.891 99.7584C188.027 99.8572 188.191 99.9104 188.36 99.9104C188.528 99.9104 188.692 99.8572 188.829 99.7584C188.965 99.6596 189.067 99.5202 189.12 99.3602C189.22 99.0202 188.88 96.3402 188.88 96.0002ZM204.66 96.3602C204.636 96.2422 204.573 96.136 204.48 96.0597C204.387 95.9834 204.27 95.9417 204.15 95.9417C204.029 95.9417 203.913 95.9834 203.82 96.0597C203.727 96.136 203.663 96.2422 203.64 96.3602C203.64 96.6402 203.3 99.3402 203.4 99.7202C203.452 99.8802 203.554 100.02 203.691 100.118C203.827 100.217 203.991 100.27 204.16 100.27C204.328 100.27 204.492 100.217 204.629 100.118C204.765 100.02 204.867 99.8802 204.92 99.7202C205.02 99.3402 204.66 96.6602 204.66 96.3602ZM189.02 89.4202C186.62 89.2202 185.52 92.9402 185.48 93.1002C185.445 93.2142 185.458 93.3373 185.514 93.4423C185.57 93.5473 185.666 93.6257 185.78 93.6602C185.894 93.6947 186.017 93.6824 186.122 93.6261C186.227 93.5699 186.305 93.4742 186.34 93.3602C186.46 93.0602 187.74 90.8802 189.24 90.9602C190 91.0202 190.38 89.5202 189.02 89.4202ZM205.26 93.6402C205.223 92.9354 204.971 92.2588 204.539 91.7011C204.106 91.1434 203.513 90.7313 202.84 90.5202C202.638 90.4671 202.424 90.4963 202.244 90.6014C202.064 90.7064 201.933 90.8786 201.88 91.0802C201.827 91.2817 201.856 91.4961 201.961 91.6762C202.066 91.8562 202.238 91.9871 202.44 92.0402C202.931 92.2149 203.372 92.5094 203.721 92.897C204.07 93.2846 204.317 93.7531 204.44 94.2602C204.472 94.3689 204.545 94.4605 204.645 94.5149C204.744 94.5693 204.861 94.582 204.97 94.5502C205.079 94.5183 205.17 94.4446 205.225 94.3452C205.279 94.2458 205.292 94.1289 205.26 94.0202C205.26 94.0202 205.3 93.8002 205.26 93.6402ZM196 104.26C196.08 104.234 196.15 104.183 196.199 104.115C196.248 104.046 196.275 103.964 196.275 103.88C196.275 103.796 196.248 103.714 196.199 103.646C196.15 103.577 196.08 103.526 196 103.5C195.08 103.32 194 103.26 194 102.36C194.105 101.237 194.279 100.122 194.52 99.0202C194.531 98.9208 194.506 98.8207 194.45 98.7378C194.394 98.655 194.31 98.595 194.214 98.5684C194.117 98.5419 194.015 98.5507 193.924 98.5932C193.833 98.6356 193.761 98.7091 193.72 98.8002C193.222 100.09 192.873 101.432 192.68 102.8C192.72 104 194 104.9 196 104.26ZM198.5 106.88C198.06 107.357 197.519 107.729 196.917 107.972C196.315 108.214 195.667 108.319 195.02 108.28C194.576 108.206 194.153 108.039 193.777 107.791C193.402 107.543 193.082 107.219 192.84 106.84C192.784 106.737 192.69 106.66 192.577 106.626C192.465 106.592 192.343 106.604 192.24 106.66C192.136 106.716 192.059 106.81 192.026 106.923C191.992 107.035 192.004 107.157 192.06 107.26C192.38 107.954 192.881 108.548 193.511 108.98C194.14 109.412 194.875 109.666 195.637 109.715C196.399 109.764 197.16 109.607 197.84 109.259C198.52 108.912 199.093 108.387 199.5 107.74C199.76 107.08 199.04 106.4 198.5 106.88ZM198.28 225.72C198.33 225.755 198.389 225.773 198.45 225.773C198.51 225.773 198.57 225.755 198.62 225.72C200.76 224.38 216.86 211.58 218.18 210.44C218.224 210.399 218.255 210.346 218.268 210.288C218.282 210.23 218.277 210.168 218.256 210.112C218.234 210.056 218.197 210.008 218.147 209.974C218.098 209.94 218.04 209.921 217.98 209.92C217.98 209.92 184.98 209.28 179.16 209.08C178.82 209.08 178.76 209.44 178.94 209.6C180 210.64 192.78 221.5 198.28 225.72ZM267.8 379.78C269.3 376.72 266.5 371.58 265.24 369.5C265.215 369.449 265.177 369.407 265.129 369.377C265.081 369.347 265.026 369.331 264.97 369.331C264.913 369.331 264.858 369.347 264.81 369.377C264.763 369.407 264.724 369.449 264.7 369.5C263.68 371.5 261.54 376.74 263.58 379.76C264.96 382 266.72 382.16 267.8 379.78ZM146 358.28C145.8 358.4 131.16 366.82 130.6 367.68C130.04 368.54 130.06 369.18 130.82 369.24C136.82 369.62 139.12 370.12 139.36 370.4C139.74 371.74 140.16 377.18 140.96 378.26C141.045 378.393 141.167 378.499 141.311 378.565C141.455 378.63 141.615 378.652 141.771 378.629C141.927 378.606 142.074 378.538 142.192 378.433C142.311 378.329 142.397 378.192 142.44 378.04C143.28 374.88 145.92 365.04 146.44 363.42C146.96 361.8 147.84 357.62 146 358.28ZM145.72 360.16C145.52 361.48 144.56 365.3 141.72 375.06C141.485 373.024 141.056 371.015 140.44 369.06C138.046 368.344 135.575 367.921 133.08 367.8C137.2 365.24 141.52 362.78 145.66 360.16H145.72ZM156.34 366.54C156.504 366.525 156.658 366.453 156.776 366.338C156.894 366.222 156.969 366.069 156.988 365.905C157.007 365.741 156.968 365.575 156.879 365.436C156.791 365.297 156.657 365.192 156.5 365.14C155.76 364.924 154.99 364.829 154.22 364.86V361.96C154.22 361.822 154.165 361.69 154.067 361.592C153.97 361.495 153.838 361.44 153.7 361.44C153.562 361.44 153.43 361.495 153.332 361.592C153.235 361.69 153.18 361.822 153.18 361.96C153.18 363 153 363.96 152.92 364.94C151.98 364.94 151.04 365.12 150.06 365.26C149.08 365.4 149.5 366.52 150.22 366.46C151.066 366.41 151.914 366.41 152.76 366.46C152.76 367.34 152.58 368.28 152.54 369.18C152.571 369.388 152.677 369.578 152.836 369.715C152.996 369.852 153.199 369.928 153.41 369.928C153.62 369.928 153.824 369.852 153.983 369.715C154.143 369.578 154.248 369.388 154.28 369.18V366.52C154.965 366.571 155.653 366.578 156.34 366.54ZM204.52 355.6C204.349 355.097 204.03 354.656 203.606 354.335C203.182 354.014 202.671 353.828 202.14 353.8C200.3 353.8 198.58 356.06 197.12 358.16H196.98C195.56 357.16 195.12 357.16 193.8 358.56C192.04 360.46 192.78 360.8 195.06 362.56C193.52 364.7 189.64 370.22 189.06 371.22C188.48 372.22 186.78 375.04 188.66 376.6C189.046 376.876 189.513 377.017 189.987 376.998C190.461 376.98 190.916 376.805 191.28 376.5C194.185 372.978 196.857 369.27 199.28 365.4C201.28 366.6 201.44 366.84 203 365.56C203.226 365.412 203.416 365.215 203.554 364.983C203.693 364.75 203.777 364.49 203.8 364.22C203.8 363.24 202.62 362.56 201.8 361.9C202.5 360.88 203.12 359.9 203.68 358.88C204.051 358.428 204.319 357.9 204.464 357.333C204.609 356.767 204.628 356.175 204.52 355.6ZM198.2 358.9C198.862 358.005 199.57 357.144 200.32 356.32C201.3 355.26 202.02 355 202.68 355.46C203.8 356.2 203.18 356.86 200.88 361.04L198.2 358.9ZM189.7 375.58C188.56 375.32 189.3 373.58 189.84 372.54C190.38 371.5 194.44 365.62 196 363.24C196.62 363.68 197.66 364.36 198.16 364.66C196.8 366.98 192.94 372.66 192.16 373.54C191.38 374.42 190.66 375.8 189.7 375.58ZM195.4 358.62L195.72 358.74C196.04 358.86 202.56 364.18 202.56 364.3C202.269 364.732 201.886 365.093 201.44 365.36C200.68 364.76 195.96 361.56 194.2 360.18C194.566 359.635 194.967 359.114 195.4 358.62ZM239.52 368.6C239.52 368.6 248.6 378.34 249.4 378.6C250.74 378.96 257.98 370.6 258.94 369.48C259.88 370.28 260.36 370.42 261.42 369.36C262.075 368.674 262.622 367.892 263.04 367.04C263.11 366.909 263.136 366.758 263.114 366.611C263.093 366.463 263.025 366.326 262.92 366.22C252.74 355.9 250.92 353.98 250.5 353.82C249.18 353.26 248.5 354.88 247.72 355.46C246.64 356.5 246.06 356.82 247.84 358.82C239.72 367.62 239.08 367.56 239.52 368.6ZM248.08 356.86C248.613 356.245 249.209 355.689 249.86 355.2C249.86 355.2 255.86 361.2 261.54 366.8C261.177 367.477 260.733 368.109 260.22 368.68C260 368.46 248.4 357.2 248 356.86H248.08ZM258.08 368.56C249.36 377.8 250.24 377.44 249.32 376.56C248.78 376.1 242.08 369.2 241.06 368.02C241.78 367.22 248.42 360.02 248.86 359.62C248.76 359.7 256.64 367.32 258 368.56H258.08Z" fill="black"/>
<path d="M247.52 364.34C245.52 366.46 243.96 367.08 244.18 368.22C245.156 369.667 246.282 371.008 247.54 372.22C247.616 372.283 247.712 372.317 247.811 372.319C247.91 372.321 248.006 372.289 248.085 372.229C248.163 372.168 248.22 372.084 248.244 371.988C248.268 371.892 248.26 371.79 248.22 371.7C248.22 371.7 246.64 369 245.96 368.1C246.12 367.9 247.82 365.62 248.28 365.1C248.38 364.999 248.437 364.863 248.437 364.72C248.437 364.578 248.38 364.441 248.28 364.34C248.179 364.239 248.042 364.183 247.9 364.183C247.757 364.183 247.62 364.239 247.52 364.34Z" fill="black"/>
<path d="M277.039 388.881L227.999 388.561C227.999 385.141 226.899 356.741 226.819 354.321C226.819 353.581 225.639 353.581 225.679 354.321C225.679 356.321 226.399 386.681 226.499 388.541H173.119C173.119 385.301 172.599 359.881 172.559 358.141C172.559 357.997 172.502 357.86 172.401 357.759C172.3 357.657 172.162 357.601 172.019 357.601C171.876 357.601 171.739 357.657 171.637 357.759C171.536 357.86 171.479 357.997 171.479 358.141V388.541C167.319 388.541 123.479 388.541 117.479 388.981C117.351 389.005 117.236 389.073 117.153 389.174C117.07 389.274 117.025 389.4 117.025 389.531C117.025 389.661 117.07 389.787 117.153 389.887C117.236 389.988 117.351 390.056 117.479 390.081C122.819 390.321 272.239 390.601 277.139 389.461C277.204 389.436 277.258 389.389 277.293 389.329C277.327 389.268 277.339 389.198 277.327 389.13C277.316 389.061 277.28 388.999 277.228 388.953C277.175 388.908 277.109 388.882 277.039 388.881ZM133.199 28.0005C133.659 28.8005 138.339 29.0605 138.759 28.9005C139.035 28.8036 139.273 28.6215 139.439 28.3805C141.026 29.7037 142.689 30.9325 144.419 32.0605C144.666 32.26 144.952 32.4058 145.259 32.4884C145.565 32.5711 145.885 32.5888 146.199 32.5405C147.039 32.3005 162.819 22.9005 163.059 22.7405C164.099 22.1005 164.119 21.4605 163.979 21.0405C163.679 20.2205 147.559 12.6605 144.979 9.84051C144.904 9.78639 144.82 9.74759 144.73 9.72634C144.64 9.70508 144.547 9.7018 144.456 9.71667C144.365 9.73154 144.278 9.76427 144.199 9.81298C144.121 9.8617 144.053 9.92543 143.999 10.0005C141.999 12.3005 140.219 14.6605 138.399 17.0005C136.567 16.944 134.735 17.146 132.959 17.6005C132.763 21.0681 132.843 24.5457 133.199 28.0005ZM146.939 22.0005C146.735 22.5591 146.347 23.0316 145.839 23.3405C144.839 23.6805 143.839 22.7405 143.499 22.3205C142.399 21.0405 144.899 18.3205 146.559 20.4605C146.767 20.6771 146.911 20.9458 146.978 21.2381C147.045 21.5303 147.032 21.8353 146.939 22.1205V22.0005ZM145.499 18.3005C144.901 18.1953 144.285 18.2585 143.72 18.4831C143.155 18.7076 142.664 19.0846 142.301 19.572C141.938 20.0594 141.718 20.6381 141.664 21.2435C141.611 21.8489 141.727 22.4572 141.999 23.0005C142.407 23.6722 143.005 24.2088 143.716 24.5431C144.427 24.8775 145.222 24.9948 145.999 24.8805C146.536 24.6846 147.013 24.3534 147.385 23.9189C147.756 23.4844 148.009 22.9614 148.119 22.4005C150.319 22.4005 157.879 22.4005 160.899 22.2605L145.999 30.9405C145.159 30.5805 140.239 26.9405 139.639 26.4605C139.639 25.3605 139.639 18.7805 139.499 17.7205C141.179 15.7205 142.899 13.5805 144.539 11.4405C146.979 13.4405 158.239 19.4405 161.539 21.1805H148.179C148.092 20.4921 147.784 19.8506 147.3 19.3528C146.817 18.855 146.185 18.5278 145.499 18.4205V18.3005ZM134.299 18.6605L137.999 18.5205C137.999 19.1405 138.239 26.5205 138.139 27.5605C136.876 27.6438 135.608 27.5834 134.359 27.3805C134.479 26.0005 134.379 20.3405 134.299 18.7805V18.6605ZM71.6792 123.801C71.889 123.922 72.127 123.985 72.3692 123.985C72.6115 123.985 72.8494 123.922 73.0592 123.801C74.6392 123.021 77.7792 120.281 86.9392 114.221C87.2081 114.074 87.4398 113.869 87.6166 113.619C87.7935 113.369 87.9107 113.083 87.9592 112.781C87.9592 112.781 88.2992 104.241 87.8192 103.961C86.2792 103.001 81.8192 99.9605 80.5392 100.161C80.3792 100.161 63.4992 110.681 63.4592 111.181C63.2921 113.363 63.2587 115.554 63.3592 117.741C65.9975 119.94 68.7768 121.964 71.6792 123.801ZM64.5792 112.561C66.1192 113.601 70.4192 116.561 71.5992 117.161V121.721C64.1192 116.721 64.5992 117.561 64.6592 116.081C64.6792 115.261 64.6192 113.341 64.5792 112.561ZM72.4192 115.501C72.2919 115.595 72.1376 115.646 71.9792 115.646C71.8208 115.646 71.6666 115.595 71.5392 115.501C71.2192 115.301 66.7392 112.101 65.5392 111.241C81.2592 101.241 80.6992 101.121 81.5392 101.421C81.9392 101.581 83.8192 102.781 86.3592 104.461C83.3592 107.021 72.7192 115.301 72.4192 115.501ZM86.4192 112.841C85.9992 113.241 75.1792 120.421 72.7792 121.981V116.981C74.1992 115.901 83.5792 108.541 86.4992 106.041C86.5792 112.641 86.6992 112.641 86.5192 112.841H86.4192ZM293.359 125.021C297.094 124.933 300.728 123.789 303.839 121.721C305.391 120.743 306.56 119.261 307.15 117.525C307.74 115.788 307.715 113.901 307.079 112.181C308.399 111.181 312.619 107.601 313.439 106.821C315.139 106.921 317.119 103.901 318.179 102.261C318.619 101.581 319.199 100.881 318.899 100.101C316.199 97.2429 313.341 94.5387 310.339 92.0005C310.139 91.7882 309.878 91.642 309.592 91.5813C309.306 91.5206 309.009 91.5482 308.739 91.6605C306.748 93.5917 304.952 95.7154 303.379 98.0005C303.31 98.2966 303.346 98.6075 303.479 98.8805C303.479 99.0205 300.699 107.081 300.359 108.061C298.862 108.212 297.473 108.905 296.452 110.011C295.432 111.116 294.851 112.556 294.819 114.061C294.579 119.901 299.199 121.781 293.179 123.941C293.096 124.012 293.032 124.104 292.995 124.208C292.957 124.311 292.947 124.423 292.965 124.531C292.983 124.64 293.029 124.742 293.098 124.828C293.167 124.913 293.257 124.98 293.359 125.021ZM304.919 98.3605C306.219 96.4517 307.751 94.7117 309.479 93.1805C310.559 94.0405 316.799 99.8005 317.479 100.741C316.979 101.601 314.179 105.241 313.479 105.321C313.419 105.261 305.179 98.6005 304.919 98.3605ZM306.359 110.881C305.34 109.386 303.774 108.352 301.999 108.001C302.399 106.661 303.859 101.761 304.359 99.7805C305.879 101.081 309.639 104.241 311.939 106.061C311.039 106.961 307.639 109.861 306.359 110.881ZM296.559 123.441C298.119 122.021 297.739 120.161 297.019 118.381C295.739 114.381 296.119 111.801 298.259 110.381C298.812 110.03 299.428 109.793 300.073 109.684C300.718 109.575 301.378 109.596 302.015 109.745C302.652 109.894 303.253 110.168 303.782 110.552C304.312 110.936 304.76 111.422 305.099 111.981C308.259 116.961 302.339 122.301 296.559 123.441ZM168.319 22.0005C169.139 22.0005 173.939 21.3805 178.319 20.9205C178.473 20.9205 178.621 20.8594 178.729 20.7506C178.838 20.6419 178.899 20.4943 178.899 20.3405C178.899 20.1867 178.838 20.0392 178.729 19.9304C178.621 19.8216 178.473 19.7605 178.319 19.7605C176.679 19.9205 168.979 20.3805 168.139 20.5605C167.977 20.6146 167.838 20.7233 167.747 20.868C167.656 21.0127 167.618 21.1846 167.639 21.3543C167.66 21.524 167.74 21.6811 167.864 21.799C167.988 21.9168 168.149 21.988 168.319 22.0005ZM183.999 20.7205C184.539 20.7205 195.159 19.8405 197.499 19.9605C198.279 19.9605 198.339 18.8205 197.499 18.7605C192.928 18.5376 188.347 18.6848 183.799 19.2005C183.626 19.2572 183.479 19.3724 183.382 19.5263C183.285 19.6802 183.245 19.8632 183.269 20.0435C183.293 20.2237 183.379 20.3901 183.512 20.5137C183.645 20.6373 183.818 20.7105 183.999 20.7205ZM203.519 19.5805L212.139 19.3405C212.282 19.3145 212.411 19.2393 212.504 19.1278C212.597 19.0163 212.648 18.8757 212.648 18.7305C212.648 18.5853 212.597 18.4447 212.504 18.3332C212.411 18.2218 212.282 18.1465 212.139 18.1205L203.559 17.8805C203.355 17.9066 203.167 18.005 203.03 18.1578C202.892 18.3106 202.814 18.5077 202.809 18.7133C202.804 18.919 202.873 19.1195 203.003 19.2786C203.134 19.4377 203.317 19.5448 203.519 19.5805ZM218.999 19.8605C222.679 19.8605 235.959 20.4805 239.199 21.0405C239.999 21.2005 240.279 19.9605 239.479 19.8205C232.695 18.7888 225.842 18.2673 218.979 18.2605C218.767 18.2632 218.565 18.35 218.416 18.5019C218.268 18.6538 218.187 18.8583 218.189 19.0705C218.192 19.2827 218.279 19.4851 218.431 19.6333C218.583 19.7814 218.787 19.8632 218.999 19.8605ZM245.659 23.3205C250.954 24.8865 255.846 27.5818 259.999 31.2205C260.639 31.8005 261.539 30.8605 260.919 30.2805C256.724 26.2618 251.619 23.318 246.039 21.7005C245.837 21.6819 245.636 21.7368 245.471 21.8553C245.307 21.9738 245.19 22.1477 245.144 22.3451C245.098 22.5425 245.124 22.7499 245.219 22.9292C245.314 23.1085 245.47 23.2475 245.659 23.3205ZM263.399 50.0005C263.233 50.041 263.088 50.1406 262.991 50.2807C262.893 50.4208 262.85 50.5916 262.87 50.7612C262.89 50.9307 262.97 51.0872 263.097 51.2012C263.224 51.3153 263.389 51.379 263.559 51.3805C266.199 51.3805 269.299 48.3005 269.559 44.0405C269.819 39.7805 266.899 36.3605 264.099 33.5005C263.98 33.3785 263.817 33.3089 263.646 33.307C263.476 33.3052 263.311 33.3712 263.189 33.4905C263.067 33.6099 262.998 33.7728 262.996 33.9434C262.994 34.1141 263.06 34.2785 263.179 34.4005C266.339 37.6805 267.879 40.6805 267.899 43.6005C267.952 45.0126 267.541 46.4032 266.728 47.5592C265.915 48.7152 264.746 49.5728 263.399 50.0005ZM241.579 56.5005C243.579 56.5005 256.759 53.4805 258.939 52.9605C259.092 52.9102 259.22 52.8042 259.298 52.6637C259.376 52.5232 259.399 52.3585 259.361 52.2022C259.323 52.046 259.228 51.9097 259.094 51.8205C258.96 51.7312 258.798 51.6955 258.639 51.7205C255.659 52.4005 245.139 54.2405 241.439 54.8805C241.245 54.9233 241.073 55.0353 240.955 55.1956C240.837 55.356 240.782 55.5537 240.799 55.7519C240.816 55.9502 240.904 56.1354 241.048 56.2732C241.192 56.4109 241.38 56.4917 241.579 56.5005ZM236.159 55.1805C231.899 55.6405 227.439 56.0405 223.139 56.6805C222.958 56.7346 222.802 56.8494 222.696 57.0056C222.59 57.1617 222.541 57.3496 222.558 57.5375C222.574 57.7255 222.655 57.9021 222.786 58.0374C222.918 58.1727 223.092 58.2586 223.279 58.2805C224.499 58.2805 234.259 57.0005 236.219 56.7605C237.239 56.6205 237.179 55.0405 236.159 55.1805ZM205.999 60.3005C207.159 60.3005 215.159 59.0005 217.019 58.7405C217.175 58.7012 217.312 58.6063 217.402 58.4736C217.493 58.3409 217.533 58.1796 217.513 58.0199C217.493 57.8602 217.416 57.7132 217.296 57.6066C217.175 57.4999 217.02 57.4408 216.859 57.4405C214.419 57.7205 208.239 58.2605 205.839 58.6805C205.644 58.7242 205.471 58.8379 205.354 59.0002C205.236 59.1625 205.183 59.3621 205.202 59.5613C205.222 59.7606 205.314 59.9458 205.461 60.082C205.607 60.2181 205.799 60.2959 205.999 60.3005ZM172.619 63.1805C176.899 63.1805 181.279 62.4205 185.519 62.0205C186.399 62.0205 186.399 60.5605 185.519 60.6405C181.259 60.9805 176.799 61.1605 172.499 61.7605C171.639 61.8605 171.739 63.1805 172.619 63.1805ZM151.539 65.0205C151.364 65.0621 151.209 65.1665 151.105 65.3139C151.001 65.4614 150.955 65.6418 150.974 65.8212C150.994 66.0006 151.078 66.1667 151.212 66.2881C151.345 66.4095 151.519 66.4779 151.699 66.4805C153.059 66.4805 164.039 64.8605 165.699 64.6405C165.874 64.5994 166.027 64.4944 166.129 64.3461C166.23 64.1979 166.272 64.0171 166.247 63.8392C166.222 63.6614 166.132 63.4993 165.993 63.3849C165.855 63.2704 165.679 63.2118 165.499 63.2205C162.879 63.5405 153.759 64.5605 151.539 65.0205ZM121.079 70.7405C128.841 69.1118 136.686 67.91 144.579 67.1405C145.619 67.1405 145.579 65.4405 144.579 65.5405C136.587 66.0166 128.659 67.2488 120.899 69.2205C120.727 69.276 120.58 69.3895 120.482 69.5417C120.385 69.6938 120.343 69.8751 120.364 70.0545C120.386 70.234 120.468 70.4005 120.599 70.5256C120.729 70.6508 120.899 70.7267 121.079 70.7405ZM94.3192 81.0605C99.6526 77.8651 105.478 75.5741 111.559 74.2805C112.619 74.0605 112.199 72.4605 111.159 72.6805C104.897 73.9239 98.8955 76.2378 93.4192 79.5205C93.2477 79.6546 93.1306 79.8464 93.0896 80.0603C93.0487 80.2742 93.0866 80.4957 93.1965 80.6837C93.3064 80.8717 93.4807 81.0135 93.6872 81.0828C93.8936 81.1521 94.1182 81.1442 94.3192 81.0605ZM77.4192 97.1405C79.6267 91.1951 83.8814 86.2313 89.4192 83.1405C90.1592 82.7405 89.5392 81.6405 88.7792 82.0205C82.7497 85.0178 78.1181 90.2373 75.8592 96.5805C75.4792 97.7005 77.0392 98.1405 77.4192 97.1405ZM81.7792 121.061C81.1792 120.381 80.2192 121.321 80.7792 121.981C82.1792 123.601 89.5592 129.281 91.0592 129.281C91.2166 129.279 91.3692 129.226 91.4937 129.13C91.6182 129.034 91.7077 128.899 91.7486 128.747C91.7894 128.595 91.7793 128.434 91.7198 128.288C91.6603 128.143 91.5548 128.021 91.4192 127.941C88.0267 125.909 84.803 123.608 81.7792 121.061ZM109.659 133.881C105.145 133.434 100.726 132.294 96.5592 130.501C95.6392 130.101 94.8792 131.461 95.8192 131.901C100.149 133.952 104.821 135.186 109.599 135.541C110.699 135.601 110.699 134.001 109.659 133.881ZM113.999 136.621C116.319 136.961 125.779 138.501 128.179 138.621C128.378 138.626 128.572 138.558 128.723 138.429C128.874 138.3 128.972 138.119 128.997 137.921C129.022 137.724 128.972 137.525 128.858 137.362C128.744 137.199 128.573 137.084 128.379 137.041C126.079 136.561 116.699 135.441 114.379 135.041C113.439 135.021 113.059 136.461 113.999 136.621ZM144.819 139.061C140.939 139.405 137.029 139.08 133.259 138.101C133.102 138.083 132.944 138.122 132.814 138.211C132.683 138.299 132.589 138.432 132.548 138.584C132.506 138.737 132.521 138.899 132.59 139.041C132.658 139.184 132.775 139.297 132.919 139.361C136.812 140.495 140.878 140.908 144.919 140.581C145.819 140.481 145.799 139.001 144.819 139.061ZM277.739 129.241C281.907 128.784 286.017 127.892 289.999 126.581C290.839 126.301 290.479 124.981 289.619 125.241C285.734 126.37 281.749 127.12 277.719 127.481C276.559 127.601 276.579 129.341 277.739 129.241ZM259.179 130.761C259.018 130.812 258.879 130.917 258.786 131.058C258.693 131.2 258.652 131.369 258.668 131.537C258.684 131.705 258.758 131.863 258.876 131.984C258.995 132.105 259.151 132.181 259.319 132.201C260.779 132.201 270.759 130.441 272.459 130.201C273.439 130.021 273.059 128.601 272.119 128.741C266.959 129.481 263.119 130.001 259.179 130.761ZM253.999 131.381C249.019 132.261 243.999 132.781 239.239 133.241C238.199 133.361 238.239 134.961 239.239 134.881C244.277 134.475 249.291 133.807 254.259 132.881C254.358 132.863 254.452 132.827 254.536 132.774C254.621 132.72 254.694 132.651 254.751 132.569C254.809 132.487 254.85 132.395 254.872 132.297C254.894 132.2 254.896 132.099 254.879 132.001C254.862 131.902 254.826 131.808 254.772 131.723C254.719 131.639 254.649 131.566 254.568 131.508C254.486 131.451 254.394 131.41 254.296 131.388C254.199 131.366 254.098 131.363 253.999 131.381ZM107.879 202.661C108.759 202.661 108.799 201.421 107.879 201.301C103.822 200.696 99.6968 200.696 95.6392 201.301C95.4471 201.343 95.278 201.456 95.1659 201.618C95.0538 201.78 95.007 201.978 95.0348 202.173C95.0626 202.367 95.1631 202.544 95.3159 202.668C95.4688 202.792 95.6629 202.854 95.8592 202.841C99.8526 202.424 103.875 202.364 107.879 202.661ZM285.459 201.601C285.293 201.653 285.15 201.76 285.054 201.905C284.958 202.05 284.914 202.224 284.93 202.397C284.947 202.57 285.022 202.733 285.144 202.857C285.266 202.982 285.426 203.06 285.599 203.081C285.799 203.081 296.339 202.781 298.879 203.081C299.559 203.181 299.779 202.141 299.099 202.041C294.573 201.512 290.01 201.365 285.459 201.601ZM279.999 203.181C280.158 203.181 280.311 203.117 280.423 203.005C280.536 202.892 280.599 202.74 280.599 202.581C280.599 202.421 280.536 202.269 280.423 202.156C280.311 202.044 280.158 201.981 279.999 201.981C277.051 201.789 274.091 201.998 271.199 202.601C270.339 202.781 270.579 204.041 271.399 204.041C274.22 203.405 277.108 203.116 279.999 203.181ZM325.519 228.001C325.359 228.801 326.519 229.301 326.859 228.521C328.579 224.641 329.439 218.701 327.279 214.521C326.859 213.721 325.659 214.401 326.059 215.201C328.479 220.001 326.159 224.901 325.519 228.001ZM83.9992 288.001C81.1853 290.338 78.8318 293.18 77.0592 296.381C77.0198 296.446 76.9938 296.519 76.9825 296.595C76.9712 296.67 76.975 296.748 76.9935 296.822C77.0311 296.972 77.1266 297.101 77.2592 297.181C77.3918 297.26 77.5506 297.284 77.7007 297.246C77.8507 297.209 77.9797 297.113 78.0592 296.981C79.8891 293.965 82.2309 291.292 84.9792 289.081C85.7792 288.501 84.7992 287.461 83.9992 288.001ZM97.3592 276.261C94.6188 278.311 92.0134 280.535 89.5592 282.921C89.4399 283.043 89.3739 283.207 89.3758 283.378C89.3776 283.548 89.4472 283.711 89.5692 283.831C89.6912 283.95 89.8556 284.016 90.0263 284.014C90.197 284.012 90.3599 283.943 90.4792 283.821C91.5992 282.641 97.6192 277.941 98.2192 277.441C98.8192 276.941 98.0992 276.001 97.3592 276.261ZM103.359 272.621C103.779 272.621 102.539 273.021 109.999 268.101C110.155 267.993 110.265 267.831 110.307 267.647C110.35 267.462 110.322 267.269 110.23 267.104C110.137 266.939 109.987 266.814 109.807 266.754C109.628 266.695 109.432 266.704 109.259 266.781C107.055 268.283 104.951 269.926 102.959 271.701C102.892 271.78 102.849 271.877 102.833 271.98C102.818 272.084 102.832 272.189 102.874 272.285C102.916 272.38 102.983 272.462 103.069 272.522C103.155 272.581 103.255 272.615 103.359 272.621Z" fill="black"/>
<path d="M113.579 264.7C114.099 264.92 113.759 264.7 120.059 260.7C119.654 265.723 119.728 270.772 120.279 275.78C117.159 274.085 114.164 272.166 111.319 270.04C110.779 269.62 110.059 270.38 110.619 270.84C113.727 273.503 117.075 275.874 120.619 277.92C123.241 297.83 133.398 315.976 148.999 328.62C141.839 330.3 137.319 331.24 135.559 331.42C134.799 331.42 134.799 332.66 135.559 332.66C137.299 332.66 148.379 330.5 150.719 330.02C179.439 352.88 217.199 350.64 244.719 329.58C250.229 331.037 255.827 332.133 261.479 332.86C261.655 332.847 261.82 332.774 261.947 332.652C262.075 332.531 262.156 332.369 262.177 332.194C262.198 332.02 262.158 331.843 262.064 331.695C261.969 331.546 261.827 331.435 261.659 331.38C259.179 330.96 252.219 329.64 246.219 328.4C261.266 316.484 271.294 299.355 274.319 280.4C275.079 279.92 275.819 279.4 276.539 278.86C277.259 278.32 276.539 277.06 275.759 277.56L274.619 278.26C277.059 257.02 269.579 235.86 256.359 219.96C260.119 215.82 262.739 210.92 261.199 205.48C263.095 204.903 265.025 204.448 266.979 204.12C267.859 204 267.539 202.7 266.699 202.82C264.674 203.079 262.669 203.48 260.699 204.02C259.238 200.399 256.73 197.295 253.494 195.108C250.259 192.92 246.445 191.747 242.539 191.74C245.734 188.382 248.079 184.307 249.376 179.857C250.674 175.406 250.888 170.71 249.999 166.16C246.299 149.16 233.079 133 216.439 123.7C216.847 121.45 216.724 119.135 216.079 116.94C215.639 114.94 214.319 114.26 212.779 113.26C211.979 112.74 211.219 112.26 210.379 111.78C212.586 108.347 213.74 104.342 213.699 100.26C218.199 99.8204 218.359 93.2604 213.419 92.2604C218.439 68.7004 174.859 64.7004 177.419 93.0204C176.532 93.2738 175.736 93.7788 175.129 94.4744C174.523 95.1701 174.13 96.0266 173.999 96.9404C173.881 97.5669 173.919 98.213 174.109 98.8214C174.3 99.4298 174.638 99.9819 175.092 100.429C175.547 100.876 176.105 101.204 176.717 101.383C177.329 101.563 177.975 101.59 178.599 101.46C178.416 104.05 178.956 106.64 180.159 108.94C179.159 109.17 178.227 109.635 177.441 110.296C176.656 110.956 176.038 111.794 175.639 112.74C174.753 115.265 174.58 117.984 175.139 120.6C159.239 127.854 146.527 140.652 139.379 156.6C133.719 169.5 136.479 178.94 146.479 188.78C142.001 187.336 137.161 187.485 132.779 189.2C130.031 190.382 127.574 192.149 125.578 194.376C123.581 196.604 122.094 199.24 121.219 202.1C119.296 201.793 117.342 201.712 115.399 201.86C115.267 201.885 115.147 201.956 115.06 202.06C114.974 202.164 114.927 202.295 114.927 202.43C114.927 202.566 114.974 202.697 115.06 202.801C115.147 202.905 115.267 202.975 115.399 203C117.242 202.922 119.085 203.138 120.859 203.64C119.479 212.06 126.619 219.18 133.559 224.18C126.111 234.3 121.524 246.237 120.279 258.74C117.933 260.171 115.669 261.733 113.499 263.42C113.385 263.488 113.292 263.586 113.23 263.703C113.168 263.82 113.139 263.953 113.148 264.085C113.156 264.217 113.201 264.345 113.277 264.454C113.353 264.562 113.458 264.648 113.579 264.7ZM201.999 117.2L202.839 116.94C203.299 117.42 204.539 118.5 205.299 119.14C199.359 122.26 191.999 122 184.319 118.26C185.179 117.48 186.579 116.06 187.099 115.46C188.475 115.987 189.877 116.441 191.299 116.82C191.883 117.686 192.663 118.401 193.576 118.908C194.489 119.414 195.509 119.697 196.553 119.734C197.596 119.771 198.633 119.561 199.58 119.121C200.527 118.68 201.356 118.022 201.999 117.2ZM185.999 114.9C185.319 115.66 183.799 117.28 183.299 117.7C182.739 117.394 182.179 117.074 181.619 116.74C181.511 116.674 181.38 116.654 181.256 116.684C181.133 116.714 181.026 116.792 180.959 116.9C180.893 117.009 180.873 117.14 180.903 117.264C180.933 117.387 181.011 117.494 181.119 117.56C185.979 120.68 190.719 123.04 196.459 123.04C198.785 123.151 201.105 122.739 203.251 121.836C205.397 120.933 207.313 119.561 208.859 117.82C208.942 117.736 208.987 117.622 208.985 117.503C208.983 117.385 208.934 117.273 208.849 117.19C208.765 117.108 208.65 117.063 208.532 117.065C208.414 117.067 208.302 117.116 208.219 117.2C207.678 117.647 207.11 118.061 206.519 118.44C205.979 117.98 204.739 116.98 204.139 116.44C206.174 115.672 208.022 114.479 209.559 112.94C211.559 113.789 213.353 115.057 214.819 116.66C215.554 118.839 215.672 121.179 215.159 123.42C213.319 129.1 198.439 134.72 183.159 126.74C177.779 124.04 175.519 121.82 176.479 115.1C176.551 113.912 177.007 112.78 177.779 111.874C178.552 110.969 179.598 110.339 180.759 110.08C182.077 112.099 183.878 113.756 185.999 114.9ZM202.279 132C205.539 131.6 213.279 130.12 216.019 125.06C231.919 133.86 248.499 153.54 248.879 171.48C249.016 175.423 248.229 179.344 246.579 182.928C244.929 186.512 242.464 189.66 239.379 192.12C236.551 192.641 233.84 193.671 231.379 195.16C233.139 167.98 233.199 169.62 232.999 169.42C232.799 169.22 229.759 169.2 224.799 169.08C225.419 168.3 227.079 166.1 227.459 165.66C227.552 165.562 227.602 165.431 227.599 165.296C227.595 165.161 227.538 165.033 227.439 164.94C227.341 164.848 227.21 164.798 227.075 164.801C226.94 164.805 226.812 164.862 226.719 164.96C225.456 166.362 224.121 167.698 222.719 168.96H222.299C222.81 162.895 222.943 156.803 222.699 150.72C222.699 150.24 221.859 150.24 221.899 150.72C222.099 153.58 220.759 166.4 220.599 168.86C205.699 168.56 180.859 168.3 165.859 168.16C164.021 161.942 163.244 155.458 163.559 148.98C163.559 148.3 162.599 148.3 162.539 148.98C161.893 155.423 162.428 161.93 164.119 168.18H163.699C161.695 166.177 159.793 164.074 157.999 161.88C157.927 161.78 157.819 161.711 157.698 161.685C157.577 161.66 157.451 161.68 157.344 161.742C157.237 161.804 157.157 161.904 157.119 162.022C157.081 162.14 157.088 162.268 157.139 162.38C157.359 162.8 159.759 166.38 161.339 168.26H153.579C152.999 168.26 153.179 168.26 153.139 168.72C152.939 170.98 153.659 183.46 154.219 192.34C153.013 191.588 151.757 190.92 150.459 190.34C140.159 180.22 134.679 172.34 140.279 158.82C146.965 142.537 159.561 129.384 175.539 122C177.779 126.78 189.159 133.56 202.279 132ZM154.419 169.68C156.699 169.68 226.859 170.3 231.759 170.74C230.819 178.62 229.079 201.9 228.479 209.72H224.099C221.619 211.86 203.219 227.14 201.899 228.26C201.439 228.62 202.279 228.92 204.259 230.7C205.505 231.615 206.549 232.775 207.327 234.11C208.104 235.445 208.599 236.926 208.779 238.46C208.784 238.531 208.816 238.597 208.868 238.646C208.92 238.694 208.988 238.721 209.059 238.72C216.179 239.02 222.199 245.36 217.259 249.28C212.719 252.88 205.699 249.28 202.219 245.96C205.359 241.86 207.199 238.28 203.679 234.58C203.259 234.14 198.739 230.46 192.999 225.78C171.259 208.04 172.999 209.04 172.719 209.04C171.599 209.04 159.719 208.22 157.579 208.1C155.999 195.3 154.839 176.6 154.419 169.68ZM175.339 248.56C172.399 248.78 167.459 249.16 165.339 246.18C163.959 244.18 166.019 241.84 168.239 241.2C173.099 242.96 180.739 245.42 183.219 246.2C180.752 247.444 178.084 248.243 175.339 248.56ZM164.939 248.16C166.939 250.16 170.339 250.4 173.059 250.36C177.497 250.338 181.851 249.145 185.679 246.9C190.059 248.18 194.399 249.28 198.919 250.24C198.973 250.259 199.032 250.259 199.086 250.241C199.141 250.223 199.187 250.188 199.219 250.14C199.979 249.2 200.719 248.14 201.399 247.24C205.999 251.52 213.679 254.34 218.399 250.7C221.879 248 221.339 243.38 217.859 240.52C234.419 235.66 247.599 228.68 254.999 221.34C261.906 229.26 267.017 238.579 269.983 248.66C272.948 258.74 273.698 269.343 272.179 279.74C267.954 282.505 263.581 285.035 259.079 287.32C258.971 287.376 258.884 287.467 258.834 287.579C258.784 287.69 258.773 287.816 258.803 287.934C258.833 288.052 258.903 288.157 259 288.231C259.098 288.305 259.217 288.343 259.339 288.34C259.599 288.34 267.599 284.48 271.819 281.98C268.366 300.053 258.666 316.336 244.419 327.98C241.199 327.3 238.419 326.66 237.099 326.26C236.379 326.02 236.059 327.1 236.759 327.36C237.979 327.8 240.259 328.42 242.979 329.12C230.079 338.951 214.322 344.301 198.103 344.359C181.884 344.417 166.09 339.178 153.119 329.44C155.517 328.939 157.876 328.271 160.179 327.44C161.059 327.06 160.519 325.76 159.619 325.96L151.299 327.96C136.056 315.726 125.842 298.315 122.599 279.04L122.999 279.22C123.919 279.62 124.639 278.36 123.779 277.86L122.299 277C119.655 258.746 124.107 240.172 134.739 225.1C144.699 231.473 155.372 236.655 166.539 240.54C163.379 242.14 162.319 245.58 164.939 248.16ZM212.659 99.7404C212.239 103.74 211.639 107.74 209.159 110.82C207.799 112.52 204.899 115.04 202.519 115.1C200.939 115.1 200.379 114.18 199.359 113.1C198.019 111.54 197.359 110.72 196.639 110.84C195.039 111.04 195.319 114.06 192.759 115.56C191.979 116 189.259 115.22 187.179 114.22C184.741 113.011 182.731 111.085 181.419 108.7C180.107 106.316 179.556 103.587 179.839 100.88C179.839 100.4 179.139 100.1 178.859 100.24C178.425 100.391 177.959 100.428 177.506 100.347C177.053 100.267 176.628 100.073 176.272 99.7821C175.915 99.4916 175.639 99.1148 175.468 98.6875C175.298 98.2602 175.24 97.7965 175.299 97.3404C176.059 93.3404 180.539 94.3404 181.719 96.6604C181.759 96.719 181.818 96.7617 181.885 96.7812C181.953 96.8008 182.026 96.7957 182.09 96.7671C182.155 96.7384 182.207 96.688 182.238 96.6246C182.269 96.5612 182.276 96.4889 182.259 96.4204C181.454 94.3178 181.353 92.0101 181.974 89.8455C182.594 87.6809 183.902 85.7768 185.699 84.4204C188.556 86.4041 191.951 87.4672 195.429 87.4672C198.907 87.4672 202.302 86.4041 205.159 84.4204C209.019 87.4204 209.159 93.6604 208.879 95.8404C208.876 95.8932 208.885 95.946 208.906 95.9946C208.927 96.0432 208.959 96.0863 208.999 96.1204C209.339 96.3804 209.899 95.7004 210.179 95.3804C210.539 94.822 211.055 94.382 211.663 94.1152C212.272 93.8484 212.945 93.7668 213.599 93.8804C214.253 93.9759 214.849 94.3078 215.274 94.8131C215.7 95.3184 215.925 95.9622 215.908 96.6226C215.891 97.2829 215.632 97.9141 215.181 98.3965C214.73 98.8789 214.117 99.1792 213.459 99.2404C213.319 99.1204 212.699 99.3204 212.659 99.7404Z" fill="black"/>
<path d="M184 319.1C184.2 319.58 184 319.36 184 319.1C178.35 321.386 172.507 323.16 166.54 324.4C165.82 324.54 166.06 325.6 166.78 325.52C172.958 324.825 178.979 323.115 184.6 320.46C185.42 320 184.88 318.78 184 319.1ZM212 310.6C212.48 310.6 228.68 304.24 230.26 303.22C231.04 302.7 230.5 301.36 229.58 301.7C227.96 302.3 215.08 308.38 211.86 309.52C211.742 309.565 211.643 309.648 211.579 309.756C211.514 309.864 211.488 309.991 211.504 310.115C211.52 310.24 211.578 310.356 211.668 310.444C211.758 310.532 211.875 310.587 212 310.6ZM236.76 300C237.28 300 250.76 293.86 252.02 292.9C252.64 292.42 252.22 291.28 251.4 291.6C250.18 292.06 239.12 297.6 236.58 298.66C236.438 298.72 236.319 298.824 236.243 298.958C236.166 299.091 236.136 299.247 236.156 299.399C236.177 299.552 236.247 299.693 236.356 299.802C236.465 299.911 236.607 299.98 236.76 300ZM276 259.8C277.12 260.52 281.28 263.8 282.4 264.52C282.571 264.619 282.773 264.653 282.967 264.616C283.161 264.578 283.335 264.471 283.457 264.315C283.579 264.159 283.64 263.965 283.63 263.767C283.619 263.57 283.538 263.382 283.4 263.24C282.34 262.34 277.76 259.48 276.62 258.8C276.487 258.718 276.328 258.692 276.176 258.727C276.024 258.763 275.892 258.858 275.81 258.99C275.728 259.123 275.702 259.283 275.737 259.435C275.773 259.586 275.867 259.718 276 259.8ZM301.1 276.4C300.48 275.9 299.64 276.8 300.28 277.32C301.7 278.5 307.34 283.5 308.9 284.56C309.065 284.642 309.254 284.664 309.434 284.623C309.614 284.581 309.774 284.479 309.887 284.333C310 284.187 310.059 284.006 310.054 283.822C310.049 283.637 309.981 283.46 309.86 283.32C308.58 282 302.76 277.72 301.1 276.4ZM314 287.88C313.881 287.764 313.72 287.699 313.553 287.701C313.386 287.703 313.227 287.771 313.11 287.89C312.993 288.01 312.929 288.17 312.931 288.337C312.932 288.504 313.001 288.664 313.12 288.78C315.631 291.321 317.889 294.101 319.86 297.08C320.5 297.98 321.96 297.08 321.34 296.16C319.251 293.102 316.785 290.32 314 287.88ZM286 334C283.32 334 271.78 333.24 268.94 332.66C268.81 332.628 268.673 332.649 268.558 332.719C268.444 332.788 268.362 332.9 268.33 333.03C268.298 333.16 268.319 333.297 268.389 333.412C268.458 333.526 268.57 333.608 268.7 333.64C274.412 334.714 280.193 335.382 286 335.64C286.217 335.64 286.426 335.554 286.58 335.4C286.734 335.246 286.82 335.038 286.82 334.82C286.82 334.603 286.734 334.394 286.58 334.24C286.426 334.087 286.217 334 286 334ZM214.52 319.62C213.82 319.28 213.24 320.32 213.96 320.68C218.998 323.225 224.393 324.992 229.96 325.92C231.04 326.12 231.46 324.46 230.36 324.28C224.889 323.473 219.557 321.904 214.52 319.62ZM191.08 318.24C193.58 317.7 198.68 316.24 199.48 316.12C200.24 316.42 205.12 318.26 207.72 318.88C207.915 318.923 208.119 318.89 208.29 318.788C208.461 318.685 208.586 318.521 208.64 318.329C208.694 318.137 208.672 317.932 208.579 317.755C208.486 317.579 208.329 317.444 208.14 317.38C206.14 316.66 204.14 316.06 201.92 315.38C203.533 314.844 205.098 314.175 206.6 313.38C206.709 313.263 206.782 313.117 206.809 312.96C206.836 312.802 206.817 312.64 206.753 312.493C206.689 312.347 206.584 312.222 206.45 312.134C206.316 312.047 206.16 312 206 312C203.76 312.76 201.56 313.72 199.38 314.56C196.9 313.68 194.62 312.78 192.44 311.82C191.72 311.5 191.14 312.56 191.88 312.9C193.7 313.76 195.52 314.58 197.32 315.32C195.194 316.058 193.031 316.686 190.84 317.2C190.748 317.267 190.678 317.36 190.638 317.466C190.598 317.573 190.591 317.689 190.616 317.8C190.642 317.91 190.699 318.011 190.782 318.09C190.864 318.168 190.968 318.22 191.08 318.24ZM101.56 262.48C99.5599 260.92 92.0599 254.48 90.3999 252.72C89.8599 252.14 88.9599 253 89.4999 253.58C92.7642 257.42 96.4927 260.84 100.6 263.76C101.4 264.3 102.32 263.08 101.56 262.48ZM77.7999 357.12C76.5518 346.079 74.3026 335.174 71.0799 324.54C72.9044 327.299 75.7176 329.253 78.9399 330C79.0779 330.059 79.2333 330.06 79.3721 330.003C79.5108 329.947 79.6216 329.838 79.6799 329.7C79.7383 329.562 79.7395 329.407 79.6832 329.268C79.6269 329.129 79.5178 329.019 79.3799 328.96C76.8199 327.42 72.8799 325.86 71.6599 322.12C72.3274 320.902 72.4918 319.471 72.1181 318.133C71.7443 316.795 70.8621 315.656 69.6599 314.96C70.3795 310.713 71.8998 306.64 74.1399 302.96C74.3999 302.46 73.7199 301.94 73.3399 302.38C70.4859 305.939 68.7402 310.258 68.3199 314.8C67.7992 314.838 67.287 314.952 66.7999 315.14C61.5011 301.444 53.9727 288.719 44.5199 277.48C44.8838 276.86 45.0252 276.134 44.9207 275.422C44.8163 274.711 44.4722 274.056 43.9453 273.566C43.4184 273.077 42.7403 272.782 42.0229 272.73C41.3056 272.678 40.592 272.872 39.9999 273.28C39.3244 273.74 38.8333 274.424 38.6137 275.211C38.394 275.998 38.46 276.837 38.7999 277.58C39.0265 277.976 39.3309 278.323 39.6949 278.598C40.0589 278.874 40.4749 279.073 40.9179 279.183C41.3608 279.293 41.8215 279.312 42.2721 279.24C42.7228 279.167 43.1541 279.004 43.5399 278.76C52.808 289.872 60.2355 302.398 65.5399 315.86C62.2799 318.74 65.1199 324.14 69.2199 323.7C72.6004 334.706 74.9571 346.001 76.2599 357.44C75.66 357.758 75.1949 358.282 74.9503 358.916C74.7056 359.549 74.6978 360.25 74.9282 360.889C75.1586 361.527 75.6118 362.062 76.2046 362.393C76.7973 362.724 77.4897 362.831 78.1546 362.693C78.8195 362.555 79.4122 362.181 79.8238 361.641C80.2355 361.101 80.4383 360.43 80.3952 359.753C80.3521 359.075 80.0658 358.435 79.589 357.952C79.1123 357.468 78.477 357.173 77.7999 357.12ZM43.4399 276C43.5102 276.264 43.5189 276.54 43.4654 276.808C43.4119 277.075 43.2976 277.327 43.1313 277.543C42.9651 277.759 42.7514 277.935 42.5066 278.055C42.2619 278.176 41.9928 278.238 41.7199 278.238C41.4471 278.238 41.178 278.176 40.9332 278.055C40.6885 277.935 40.4748 277.759 40.3085 277.543C40.1423 277.327 40.028 277.075 39.9745 276.808C39.921 276.54 39.9297 276.264 39.9999 276C39.9297 275.737 39.921 275.46 39.9745 275.193C40.028 274.925 40.1423 274.674 40.3085 274.457C40.4748 274.241 40.6885 274.066 40.9332 273.945C41.178 273.825 41.4471 273.762 41.7199 273.762C41.9928 273.762 42.2619 273.825 42.5066 273.945C42.7514 274.066 42.9651 274.241 43.1313 274.457C43.2976 274.674 43.4119 274.925 43.4654 275.193C43.5189 275.46 43.5102 275.737 43.4399 276ZM79.4399 359.82C79.4399 361.82 76.1399 361.82 76.1399 359.82C76.1399 357.82 79.3599 358 79.3599 360L79.4399 359.82ZM70.6799 320.62C69.5999 323.96 65.5799 321.62 65.6399 318.9C65.6399 316.5 68.9799 314.9 70.2399 317.2C70.5628 317.718 70.763 318.302 70.8254 318.909C70.8878 319.515 70.8107 320.128 70.5999 320.7L70.6799 320.62ZM361.56 240.18C361.55 239.602 361.38 239.039 361.068 238.552C360.756 238.066 360.316 237.675 359.795 237.424C359.275 237.173 358.695 237.072 358.12 237.131C357.545 237.19 356.998 237.408 356.54 237.76C345.285 231.171 335.606 222.201 328.18 211.48C328.723 210.857 329.096 210.105 329.264 209.296C329.432 208.487 329.389 207.648 329.14 206.86C328.949 206.249 328.602 205.698 328.134 205.26C327.666 204.823 327.093 204.515 326.47 204.366C325.847 204.217 325.196 204.232 324.581 204.409C323.966 204.587 323.407 204.922 322.96 205.38C313.335 192.36 306.456 177.52 302.74 161.76C303.115 161.335 303.345 160.801 303.395 160.236C303.446 159.671 303.314 159.105 303.02 158.62C302.799 158.119 302.421 157.704 301.943 157.437C301.465 157.171 300.913 157.067 300.371 157.141C299.829 157.216 299.326 157.465 298.938 157.851C298.55 158.237 298.298 158.738 298.22 159.28C298.093 159.735 298.091 160.217 298.216 160.673C298.34 161.129 298.585 161.543 298.925 161.871C299.266 162.199 299.688 162.428 300.149 162.536C300.609 162.643 301.09 162.624 301.54 162.48C305.225 178.421 312.216 193.411 322.06 206.48C321.85 206.82 321.694 207.192 321.6 207.58C319.06 206.36 306.44 202.36 305.12 202.72C304.56 202.88 304.82 203.56 305.12 203.64C310.642 205.166 316.066 207.03 321.36 209.22C321.472 209.833 321.722 210.411 322.091 210.913C322.459 211.414 322.938 211.825 323.489 212.114C324.04 212.403 324.65 212.563 325.272 212.582C325.894 212.6 326.513 212.476 327.08 212.22C336.2 225.18 345.54 233.92 355.62 238.94C355.404 239.426 355.313 239.957 355.353 240.487C355.394 241.016 355.566 241.527 355.854 241.974C356.142 242.42 356.536 242.788 357.002 243.044C357.467 243.3 357.989 243.436 358.52 243.44C358.944 243.461 359.367 243.388 359.76 243.229C360.153 243.069 360.506 242.825 360.796 242.515C361.085 242.205 361.303 241.835 361.435 241.432C361.567 241.029 361.61 240.602 361.56 240.18ZM357.12 241.18C356.948 240.927 356.846 240.633 356.822 240.327C356.799 240.022 356.856 239.716 356.987 239.439C357.118 239.162 357.32 238.924 357.571 238.749C357.822 238.574 358.115 238.468 358.42 238.44C358.899 238.456 359.354 238.656 359.69 238.999C360.025 239.341 360.215 239.801 360.22 240.28C360.22 240.644 360.103 240.999 359.884 241.29C359.665 241.582 359.358 241.794 359.008 241.896C358.659 241.997 358.285 241.983 357.945 241.853C357.604 241.724 357.315 241.488 357.12 241.18ZM326.48 211.06C325.862 211.26 325.195 211.246 324.586 211.021C323.976 210.796 323.46 210.373 323.12 209.82C322.933 209.376 322.856 208.892 322.895 208.411C322.935 207.93 323.089 207.466 323.347 207.058C323.604 206.65 323.956 206.309 324.372 206.066C324.789 205.823 325.258 205.684 325.74 205.66C328.3 205.66 328.74 210.12 326.48 211.06ZM302.1 160C302.123 160.189 302.106 160.38 302.05 160.561C301.993 160.742 301.899 160.909 301.774 161.052C301.648 161.194 301.493 161.307 301.32 161.385C301.147 161.463 300.96 161.504 300.77 161.504C300.58 161.504 300.393 161.463 300.22 161.385C300.047 161.307 299.892 161.194 299.766 161.052C299.641 160.909 299.546 160.742 299.49 160.561C299.434 160.38 299.417 160.189 299.44 160C299.417 159.812 299.434 159.621 299.49 159.44C299.546 159.258 299.641 159.091 299.766 158.949C299.892 158.807 300.047 158.693 300.22 158.615C300.393 158.537 300.58 158.497 300.77 158.497C300.96 158.497 301.147 158.537 301.32 158.615C301.493 158.693 301.648 158.807 301.774 158.949C301.899 159.091 301.993 159.258 302.05 159.44C302.106 159.621 302.123 159.812 302.1 160ZM334 322.74C334.055 322.6 334.059 322.446 334.012 322.303C333.964 322.16 333.868 322.039 333.74 321.96C332.74 321.34 331.1 322.38 330.82 323.56C331.5 323.62 333.58 323.54 334 322.74Z" fill="black"/>
<path d="M329.24 309.521C327.941 306.769 326.478 304.098 324.86 301.521C324.771 301.389 324.635 301.297 324.48 301.263C324.325 301.229 324.163 301.256 324.027 301.338C323.891 301.42 323.792 301.551 323.75 301.704C323.708 301.857 323.726 302.021 323.8 302.161C325.149 304.53 326.319 306.997 327.3 309.541C325.069 309.783 322.947 310.636 321.169 312.005C319.39 313.374 318.022 315.207 317.217 317.302C316.411 319.397 316.198 321.674 316.6 323.882C317.003 326.09 318.007 328.145 319.5 329.821C312.58 332.514 305.261 334.041 297.84 334.341C297.708 334.366 297.588 334.436 297.501 334.54C297.415 334.644 297.368 334.775 297.368 334.911C297.368 335.046 297.415 335.177 297.501 335.281C297.588 335.385 297.708 335.456 297.84 335.481C305.752 335.649 313.614 334.192 320.94 331.201C322.439 332.39 324.197 333.209 326.071 333.592C327.945 333.975 329.884 333.911 331.729 333.406C333.574 332.9 335.274 331.967 336.691 330.682C338.108 329.398 339.203 327.797 339.887 326.01C340.57 324.223 340.823 322.301 340.625 320.398C340.427 318.495 339.783 316.666 338.747 315.058C337.71 313.45 336.309 312.109 334.657 311.144C333.006 310.178 331.15 309.615 329.24 309.501V309.521ZM326.7 328.001C326.5 326.661 326.42 325.301 326.18 324.001H323.24C323.06 325.181 323.06 326.361 322.88 327.541C322.87 327.625 322.843 327.706 322.801 327.779C322.759 327.853 322.703 327.918 322.636 327.97C322.57 328.022 322.493 328.06 322.411 328.083C322.33 328.105 322.244 328.111 322.16 328.101C322.076 328.09 321.995 328.063 321.922 328.021C321.848 327.979 321.783 327.923 321.731 327.857C321.679 327.79 321.641 327.713 321.619 327.632C321.596 327.55 321.59 327.465 321.6 327.381C321.6 326.061 322.7 317.661 322.92 316.481C323.2 314.821 324.08 314.681 324.58 314.741C325.62 314.861 325.9 315.941 326.12 316.741C326.7 318.881 328.12 325.401 328.48 327.561C328.64 328.641 326.88 329.081 326.7 328.001ZM335.68 326.461C332.46 328.701 328.4 326.021 329.68 322.921C330.5 320.921 333.68 319.561 335.02 321.641C335.182 321.977 335.261 322.346 335.252 322.719C335.242 323.092 335.145 323.457 334.967 323.785C334.79 324.113 334.537 324.394 334.23 324.605C333.923 324.816 333.57 324.952 333.2 325.001C332.537 325.088 331.864 325.088 331.2 325.001C331.454 325.28 331.751 325.517 332.08 325.701C334.08 326.541 335.42 325.041 335.82 325.881C335.852 325.965 335.855 326.057 335.83 326.144C335.804 326.23 335.752 326.306 335.68 326.361V326.461Z" fill="black"/>
<path d="M324.279 316.86C323.979 318.38 323.639 321.1 323.479 322.36H325.859C325.639 321.34 325.059 318.48 324.659 316.92C324.599 316.66 324.319 316.6 324.279 316.86ZM150.999 286.92C149.799 286.2 147.159 286.12 146.999 287.7C146.879 288.58 146.999 292.1 146.999 293.04C147.912 293.014 148.809 292.799 149.635 292.41C150.461 292.022 151.198 291.467 151.799 290.78C152.024 290.482 152.183 290.14 152.265 289.776C152.347 289.412 152.35 289.034 152.275 288.669C152.199 288.303 152.046 287.958 151.826 287.657C151.606 287.355 151.324 287.104 150.999 286.92Z" fill="black"/>
<path d="M185.179 308.661C179.651 306.636 174.242 304.299 168.979 301.661C170.03 299.513 170.647 297.18 170.796 294.795C170.945 292.409 170.623 290.017 169.847 287.756C169.072 285.495 167.859 283.409 166.277 281.617C164.696 279.824 162.776 278.361 160.629 277.311C158.482 276.26 156.149 275.643 153.763 275.494C151.378 275.345 148.986 275.667 146.725 276.443C144.464 277.218 142.378 278.431 140.585 280.013C138.793 281.594 137.33 283.513 136.279 285.661C133.859 284.372 131.509 282.957 129.239 281.421C128.619 281.021 128.039 281.961 128.619 282.381C131.319 284.381 133.579 285.781 135.679 287.061C128.499 308.021 156.399 321.441 168.279 302.881C173.493 305.841 179.074 308.1 184.879 309.601C184.997 309.618 185.116 309.593 185.217 309.53C185.317 309.467 185.392 309.371 185.428 309.258C185.464 309.145 185.459 309.023 185.413 308.914C185.368 308.804 185.285 308.715 185.179 308.661ZM153.179 292.661C151.559 294.213 149.422 295.111 147.179 295.181V300.781C147.179 301.009 147.089 301.227 146.927 301.389C146.766 301.55 146.547 301.641 146.319 301.641C146.091 301.641 145.872 301.55 145.711 301.389C145.55 301.227 145.459 301.009 145.459 300.781C145.459 299.821 145.119 291.881 145.099 291.241C145.099 289.241 144.339 285.821 147.099 284.721C152.179 282.581 156.979 288.201 153.079 292.641L153.179 292.661ZM162.379 298.661C162.099 301.861 157.799 303.241 155.239 301.341C155.057 301.197 154.934 300.99 154.895 300.761C154.856 300.532 154.903 300.296 155.027 300.1C155.152 299.904 155.344 299.76 155.568 299.698C155.792 299.635 156.031 299.657 156.239 299.761C156.818 300.148 157.514 300.323 158.208 300.253C158.901 300.184 159.549 299.875 160.039 299.381C160.639 298.761 160.399 297.521 159.419 297.661C158.659 297.878 157.867 297.959 157.079 297.901C156.68 297.808 156.31 297.617 156.002 297.346C155.694 297.075 155.458 296.732 155.316 296.348C155.173 295.963 155.128 295.55 155.184 295.144C155.241 294.737 155.397 294.352 155.639 294.021C155.977 293.544 156.422 293.153 156.939 292.88C157.456 292.607 158.03 292.46 158.614 292.45C159.198 292.44 159.777 292.568 160.302 292.824C160.828 293.079 161.286 293.455 161.639 293.921C162.239 294.701 160.999 295.641 160.399 294.881C160.12 294.556 159.75 294.322 159.337 294.208C158.924 294.094 158.486 294.105 158.079 294.241C156.339 294.881 157.439 296.601 158.599 296.241C158.859 296.161 162.539 295.581 162.279 298.581L162.379 298.661ZM324.319 232.141C323.671 233.62 322.93 235.056 322.099 236.441C320.532 234.263 318.503 232.459 316.157 231.157C313.812 229.855 311.207 229.088 308.53 228.91C305.853 228.733 303.17 229.15 300.673 230.13C298.176 231.111 295.926 232.632 294.086 234.584C292.245 236.535 290.858 238.87 290.025 241.42C289.193 243.971 288.934 246.673 289.268 249.335C289.602 251.997 290.52 254.553 291.957 256.818C293.394 259.084 295.314 261.004 297.579 262.441C295.579 264.221 291.439 267.381 290.599 268.041L289.119 267.361C288.459 267.061 287.919 268.041 288.599 268.361C288.908 268.504 289.208 268.665 289.499 268.841C286.981 270.667 284.371 272.362 281.679 273.921C281.539 274 281.435 274.132 281.392 274.288C281.349 274.444 281.37 274.61 281.449 274.751C281.529 274.891 281.661 274.994 281.817 275.038C281.972 275.081 282.139 275.06 282.279 274.981C285.579 273.141 288.419 271.401 290.919 269.701C292.745 270.97 294.446 272.41 295.999 274.001C296.156 274.124 296.352 274.185 296.551 274.174C296.75 274.163 296.938 274.08 297.08 273.94C297.222 273.801 297.309 273.614 297.323 273.415C297.338 273.217 297.279 273.019 297.159 272.861C295.6 271.39 293.921 270.052 292.139 268.861C293.359 267.981 297.259 265.081 299.219 263.361C302.717 265.082 306.674 265.636 310.509 264.942C314.345 264.247 317.857 262.341 320.529 259.504C323.201 256.666 324.893 253.046 325.356 249.175C325.818 245.305 325.027 241.388 323.099 238.001C324.128 236.282 324.986 234.467 325.659 232.581C325.999 231.721 324.659 231.301 324.319 232.141ZM307.499 254.421C307.098 253.069 306.784 251.693 306.559 250.301L302.339 250.721C302.099 251.981 301.859 253.241 301.659 254.501C301.459 255.761 299.819 255.241 299.979 254.161C300.339 251.501 302.479 240.161 302.899 239.081C304.079 236.761 305.859 238.361 306.899 240.981C307.908 245.318 308.696 249.703 309.259 254.121C309.299 254.354 309.244 254.594 309.108 254.787C308.971 254.98 308.763 255.111 308.529 255.151C308.296 255.19 308.056 255.136 307.863 254.999C307.67 254.862 307.539 254.654 307.499 254.421ZM310.919 241.441C311.021 241.205 311.171 240.993 311.36 240.819C311.549 240.645 311.773 240.513 312.016 240.432C312.26 240.35 312.518 240.322 312.774 240.347C313.029 240.373 313.277 240.453 313.499 240.581C313.698 240.714 313.865 240.888 313.99 241.092C314.115 241.296 314.195 241.524 314.223 241.762C314.252 241.999 314.229 242.24 314.155 242.468C314.082 242.695 313.961 242.904 313.799 243.081C313.548 243.389 313.196 243.599 312.805 243.672C312.414 243.745 312.01 243.677 311.665 243.48C311.319 243.284 311.055 242.971 310.918 242.597C310.782 242.224 310.782 241.814 310.919 241.441ZM314.399 254.221C314.396 254.45 314.311 254.671 314.159 254.843C314.007 255.014 313.798 255.126 313.571 255.158C313.344 255.189 313.113 255.138 312.92 255.014C312.727 254.89 312.585 254.701 312.519 254.481C312.359 254.041 312.059 247.881 312.059 247.161C312.059 246.954 312.141 246.755 312.288 246.609C312.434 246.463 312.632 246.381 312.839 246.381C313.046 246.381 313.245 246.463 313.391 246.609C313.537 246.755 313.619 246.954 313.619 247.161C313.679 248.301 314.419 253.881 314.399 254.221Z" fill="black"/>
<path d="M302.74 248.74L306.22 248.36C305.871 245.921 305.282 243.523 304.46 241.2C304 243.2 303.16 246.76 302.74 248.74ZM110 334.88C108.32 335.88 109.7 338.6 112 337.58C112 336.26 111.88 335.28 111.84 334.82C111.551 334.682 111.233 334.615 110.913 334.626C110.592 334.636 110.279 334.724 110 334.88Z" fill="black"/>
<path d="M129.32 332.34C126.01 332.858 122.67 333.166 119.32 333.26C118.42 317.52 95.9004 317.5 94.9804 333.26C91.5057 332.925 88.0862 332.159 84.8004 330.98C84.7386 330.949 84.6713 330.93 84.6022 330.924C84.5331 330.919 84.4636 330.927 84.3977 330.948C84.3318 330.97 84.2707 331.004 84.218 331.049C84.1652 331.094 84.1219 331.148 84.0904 331.21C84.0588 331.272 84.0398 331.339 84.0343 331.408C84.0288 331.477 84.037 331.547 84.0583 331.613C84.0797 331.679 84.1138 331.74 84.1588 331.793C84.2037 331.845 84.2586 331.889 84.3204 331.92C87.6529 333.685 91.3043 334.766 95.0604 335.1C95.4389 338.036 96.874 340.734 99.0973 342.689C101.321 344.644 104.18 345.723 107.14 345.723C110.101 345.723 112.96 344.644 115.183 342.689C117.407 340.734 118.842 338.036 119.22 335.1C122.703 334.745 126.162 334.191 129.58 333.44C129.698 333.382 129.792 333.286 129.848 333.167C129.904 333.049 129.918 332.914 129.888 332.787C129.858 332.659 129.785 332.545 129.682 332.464C129.579 332.383 129.452 332.339 129.32 332.34ZM105.32 338.72C105.293 338.855 105.238 338.983 105.158 339.096C105.078 339.208 104.975 339.302 104.856 339.372C104.737 339.442 104.605 339.486 104.468 339.501C104.33 339.516 104.192 339.502 104.06 339.46C103.46 339.28 103.56 338.94 102.6 337.58C102.3 338.08 102 338.6 101.72 339.12C101.611 339.299 101.437 339.429 101.234 339.484C101.031 339.538 100.815 339.513 100.631 339.413C100.446 339.313 100.307 339.146 100.242 338.946C100.176 338.747 100.19 338.53 100.28 338.34C100.66 337.62 101.04 336.88 101.46 336.16C100.967 335.646 100.417 335.19 99.8204 334.8C99.6248 334.663 99.4889 334.456 99.4404 334.222C99.3919 333.988 99.4343 333.744 99.5592 333.54C99.6841 333.336 99.8819 333.188 100.112 333.124C100.343 333.061 100.589 333.088 100.8 333.2C103.3 334.74 101.76 334.92 103.66 332.56C104.44 331.6 105.92 332.78 105.28 333.76C104.84 334.44 104.28 335.14 103.8 335.76C104.78 337.02 105.42 338 105.3 338.72H105.32ZM113.84 338.96C113.415 339.344 112.911 339.632 112.365 339.805C111.818 339.977 111.24 340.03 110.671 339.96C110.102 339.89 109.555 339.698 109.067 339.398C108.578 339.098 108.16 338.696 107.84 338.22C107.433 337.619 107.217 336.909 107.221 336.183C107.224 335.457 107.447 334.749 107.86 334.152C108.274 333.555 108.857 333.097 109.536 332.838C110.214 332.579 110.954 332.531 111.66 332.7C111.487 330.538 111.427 328.369 111.48 326.2C111.483 325.969 111.572 325.747 111.729 325.576C111.885 325.406 112.099 325.299 112.33 325.277C112.56 325.255 112.791 325.318 112.977 325.455C113.164 325.592 113.293 325.794 113.34 326.02C113.76 328.64 114.08 336.32 114.12 337.2C114.16 337.66 114.36 338.42 113.82 338.96H113.84ZM76.4604 220.72C76.8204 220.72 76.9204 220.72 76.9404 220.6C76.9404 220.26 76.2604 215.76 76.1804 215.22C70.5004 216 71.2204 221.24 76.4604 220.72Z" fill="black"/>
<path d="M90.6 201.76C88.2289 202.085 85.8783 202.546 83.56 203.14C81.6957 201.33 79.4227 199.995 76.9332 199.248C74.4438 198.502 71.8112 198.366 69.2582 198.853C66.7052 199.339 64.307 200.434 62.2665 202.043C60.226 203.653 58.6033 205.73 57.5356 208.1C56.4679 210.469 55.9866 213.061 56.1326 215.656C56.2786 218.251 57.0475 220.772 58.3742 223.007C59.7009 225.241 61.5465 227.124 63.7546 228.494C65.9628 229.865 68.4686 230.683 71.06 230.88C73.3166 237.234 77.2486 242.859 82.44 247.16C82.4873 247.206 82.5431 247.242 82.6044 247.267C82.6657 247.291 82.7311 247.303 82.7971 247.302C82.863 247.301 82.9281 247.288 82.9887 247.261C83.0492 247.235 83.104 247.198 83.15 247.15C83.196 247.103 83.2322 247.047 83.2565 246.986C83.2809 246.925 83.293 246.859 83.292 246.793C83.2911 246.727 83.2772 246.662 83.2511 246.602C83.225 246.541 83.1873 246.486 83.14 246.44C78.8103 241.909 75.3044 236.657 72.78 230.92C75.7944 230.807 78.7176 229.856 81.2218 228.174C83.7261 226.492 85.7125 224.147 86.9584 221.399C88.2043 218.652 88.6605 215.612 88.2757 212.62C87.8909 209.628 86.6805 206.803 84.78 204.46C86.9 203.9 88.78 203.4 90.78 203.02C91.74 202.86 91.4 201.6 90.6 201.76ZM65.64 222V207.12C65.6708 206.922 65.7714 206.742 65.9236 206.612C66.0758 206.481 66.2696 206.41 66.47 206.41C66.6704 206.41 66.8642 206.481 67.0164 206.612C67.1686 206.742 67.2692 206.922 67.3 207.12C67.3 210.08 67.64 220 67.7 222C67.6309 222.219 67.4938 222.411 67.3086 222.546C67.1234 222.682 66.8997 222.755 66.67 222.755C66.4403 222.755 66.2166 222.682 66.0314 222.546C65.8462 222.411 65.7091 222.219 65.64 222ZM77.88 222.2C73.88 224.34 68.54 220.52 71.06 216.06C71.6126 215.266 72.3525 214.621 73.2143 214.181C74.076 213.742 75.0328 213.522 76 213.54C75.6659 211.361 75.4655 209.164 75.4 206.96C75.4106 206.744 75.4974 206.538 75.6451 206.379C75.7928 206.22 75.9919 206.118 76.2073 206.092C76.4227 206.066 76.6404 206.116 76.8221 206.235C77.0037 206.353 77.1376 206.533 77.2 206.74C77.54 208.18 78.5 217.76 78.6 219.02C78.64 220 79.08 221.46 77.88 222.1V222.2Z" fill="black"/>
</svg>
