<svg width="189" height="157" viewBox="0 0 189 157" fill="none" xmlns="http://www.w3.org/2000/svg">
<path d="M160.299 140.416C124.235 145.54 83.3575 151.35 45.2834 143.842C38.3122 142.447 29.3243 140.292 21.6301 135.971C13.2366 131.323 7.65449 126.73 5.76449 118.206C4.19295 110.989 5.95916 102.99 10.739 95.6835C15.4205 88.4018 22.4995 82.1877 29.2496 76.1589C29.3351 76.0826 29.3806 75.9813 29.376 75.8771C29.3715 75.773 29.3174 75.6746 29.2255 75.6036C29.1337 75.5326 29.0116 75.4948 28.8862 75.4985C28.7609 75.5023 28.6424 75.5473 28.5569 75.6236C21.7019 81.7207 14.6503 87.9339 9.90642 95.3114C5.02644 102.769 3.22527 110.953 4.83461 118.347C6.78131 127.115 12.748 131.995 21.1047 136.623C37.2046 145.663 65.5518 148.219 85.2834 148.219C110.998 148.219 136.769 144.556 160.46 141.19C160.584 141.172 160.694 141.115 160.766 141.03C160.839 140.945 160.868 140.84 160.847 140.737C160.825 140.634 160.756 140.543 160.654 140.483C160.552 140.422 160.425 140.398 160.301 140.416H160.299Z" fill="black" fill-opacity="0.6"/>
<path d="M173.466 134.659C138.879 138.976 99.6821 143.869 62.9585 136.667C57.1467 135.521 51.1148 134.02 46.3756 130.82C38.5699 125.529 37.9765 118.246 44.7427 110.839C52.8753 102.094 64.0329 95.7486 73.8534 90.4883C73.9531 90.43 74.0217 90.3419 74.0451 90.2425C74.0684 90.1431 74.0445 90.04 73.9785 89.9549C73.9125 89.8697 73.8094 89.8091 73.6908 89.7856C73.5722 89.7621 73.4473 89.7776 73.3421 89.8289C63.4555 95.1245 52.2186 101.514 43.9923 110.362C36.8727 118.155 37.5229 125.833 45.7784 131.429C50.6669 134.726 56.8198 136.263 62.7411 137.431C99.0083 144.544 137.265 139.971 173.606 135.434C173.725 135.415 173.831 135.358 173.901 135.275C173.971 135.193 174 135.091 173.982 134.991C173.964 134.891 173.901 134.801 173.804 134.739C173.708 134.677 173.587 134.648 173.466 134.659Z" fill="black" fill-opacity="0.6"/>
<path d="M165.428 138.413C142.862 141.31 120.108 143.093 97.2877 143.751C87.7547 143.985 78.2136 143.679 68.7307 142.835C53.9481 141.418 39.5028 137.049 30.0915 131.148C25.1922 128.076 21.8235 123.615 20.6264 118.613C16.8294 102.555 38.2214 86.7463 44.8676 82.2828C44.9614 82.2164 45.0203 82.1222 45.0316 82.0202C45.043 81.9183 45.0059 81.8167 44.9284 81.7371C44.8508 81.6575 44.7389 81.6063 44.6165 81.5943C44.4941 81.5823 44.3709 81.6105 44.2732 81.6729C37.5221 86.2047 15.8003 102.275 19.7032 118.765C20.9447 123.954 24.4391 128.584 29.5217 131.772C39.0662 137.754 53.6797 142.181 68.6258 143.613C78.1541 144.459 87.7405 144.766 97.3189 144.533C120.178 143.875 142.969 142.09 165.573 139.189C165.697 139.173 165.809 139.117 165.882 139.033C165.956 138.948 165.987 138.843 165.968 138.74C165.949 138.637 165.881 138.545 165.78 138.484C165.678 138.422 165.552 138.397 165.428 138.413Z" fill="black" fill-opacity="0.6"/>
<path d="M9.55392 104.609C9.54205 104.665 9.54521 104.723 9.56316 104.778C9.58111 104.834 9.61341 104.885 9.65781 104.929C9.70221 104.973 9.75762 105.008 9.82016 105.032C9.88269 105.056 9.95084 105.069 10.0198 105.069C11.2578 105.069 9.25152 102.865 16.4335 94.4713C21.4775 88.4814 27.209 82.9119 33.5475 77.8411C33.6376 77.7682 33.6891 77.6686 33.6908 77.5642C33.6925 77.4597 33.6442 77.359 33.5564 77.2842C33.4687 77.2093 33.3488 77.1665 33.2231 77.1651C33.0973 77.1637 32.9761 77.2038 32.886 77.2767C26.5058 82.3816 20.7369 87.9887 15.6605 94.0192C13.1128 96.9975 10.395 100.583 9.55392 104.609Z" fill="black" fill-opacity="0.6"/>
<path d="M32.8613 122.453C34.2788 127.447 39.4129 132.223 46.9597 135.563C53.0654 138.262 59.7248 139.595 67.1685 140.939C67.2302 140.953 67.2946 140.956 67.3578 140.948C67.421 140.941 67.4817 140.923 67.5362 140.895C67.5907 140.867 67.6379 140.831 67.675 140.788C67.712 140.745 67.7381 140.696 67.7517 140.644C67.7654 140.592 67.7662 140.538 67.7542 140.486C67.7422 140.434 67.7176 140.385 67.6819 140.341C67.6462 140.297 67.6001 140.259 67.5465 140.23C67.4929 140.202 67.4328 140.182 67.3698 140.173C59.9988 138.839 53.4027 137.522 47.4039 134.87C40.0981 131.639 35.1321 127.05 33.7807 122.279C30.839 111.689 40.288 99.3233 50.6726 93.0653C50.725 93.0357 50.7696 92.9978 50.8039 92.9536C50.8383 92.9095 50.8616 92.86 50.8725 92.8083C50.8834 92.7565 50.8817 92.7034 50.8674 92.6522C50.8531 92.601 50.8266 92.5527 50.7895 92.5101C50.7523 92.4676 50.7053 92.4317 50.6511 92.4045C50.5969 92.3774 50.5367 92.3596 50.4741 92.3521C50.4114 92.3447 50.3476 92.3477 50.2864 92.3611C50.2253 92.3746 50.1679 92.3981 50.1179 92.4302C39.4876 98.8311 29.8269 111.533 32.8613 122.453Z" fill="black" fill-opacity="0.6"/>
<path d="M46.9437 103.448C47.031 103.522 47.1505 103.565 47.2758 103.567C47.4011 103.568 47.522 103.528 47.6118 103.456C59.1976 94.0469 72.5981 86.3161 87.2574 80.5838C87.3582 80.5338 87.433 80.4544 87.4672 80.3611C87.5014 80.2679 87.4926 80.1673 87.4425 80.0791C87.3923 79.991 87.3045 79.9214 87.196 79.8841C87.0876 79.8468 86.9663 79.8444 86.8558 79.8773C72.1008 85.6453 58.6133 93.4258 46.9531 102.896C46.8644 102.968 46.8137 103.067 46.8119 103.17C46.8102 103.273 46.8575 103.373 46.9437 103.448Z" fill="black" fill-opacity="0.6"/>
<path d="M89.3402 50.8569C94.36 52.6114 101.676 43.3727 101.31 36.5071C101.069 32.0098 97.3906 30.6894 93.3215 33.7156C87.3056 38.187 84.1871 49.0545 89.3402 50.8569Z" fill="black" fill-opacity="0.6"/>
<path d="M184.592 44.2032C184.098 41.0746 182.871 38.0565 180.982 35.3193C179.535 33.2018 177.657 31.3093 175.43 29.7262C175.706 29.3989 175.083 28.3854 174.928 28.1562C173.517 26.0744 169.928 24.2179 164.636 21.6541C157.327 18.076 149.824 14.0396 141.85 11.7756C132.935 9.2432 124.525 8.30905 116.828 9.00378C113.804 9.31778 105.575 9.81704 99.2458 13.5733C91.2794 18.3005 92.4418 17.8515 92.0883 17.8444C87.4578 17.7816 82.9218 19.2983 78.2186 22.523C74.0936 25.349 71.0101 27.6719 66.4335 31.3935C58.5786 37.9153 56.166 42.1543 52.4994 50.8058C48.9084 54.1154 45.376 57.4414 41.9022 60.7839C37.4428 65.0771 36.7047 71.31 35.6652 76.8317C35.6513 76.9071 35.6642 76.9843 35.7023 77.0537C35.7403 77.1231 35.8019 77.1819 35.8796 77.2227C35.9572 77.2635 36.0474 77.2846 36.1392 77.2835C36.2311 77.2824 36.3205 77.259 36.3966 77.2163L43.5371 78.2588C43.9972 78.6842 44.6035 78.9818 45.274 79.1113C47.4796 79.5038 50.2938 80.3587 52.5316 79.5321C57.4238 80.2724 78.9368 83.2875 85.3665 84.2868C85.4626 84.3008 85.5615 84.2902 85.65 84.2562C85.9269 84.3638 85.1832 84.5702 95.3344 80.8807C95.4743 83.9501 96.7519 86.1183 98.6192 86.4338C100.052 86.797 101.55 86.9492 103.046 86.8836C105.722 86.7863 108.108 83.8355 108.716 79.8649C108.927 78.5912 108.908 77.2983 108.658 76.0294L142.676 63.6413C141.569 68.5586 142.653 72.3894 145.516 73.6258C148.058 74.6446 150.674 75.5295 153.35 76.2751C153.742 76.3406 154.14 76.3751 154.54 76.378C159.025 76.378 164.315 72.2057 167.54 65.954C168.975 63.3006 169.743 60.4317 169.797 57.5231C170.305 57.799 170.879 57.9804 171.48 58.055C172.081 58.1295 172.694 58.0953 173.277 57.9548C176.844 56.1807 180.01 52.3947 182.217 50.3796C184.676 48.2224 185.005 46.8683 184.592 44.2032ZM125.955 30.293C128.45 29.1225 129.997 28.2897 132.619 27.8037C138.304 27.1757 144.899 29.4365 150.146 31.3629C157.636 34.0649 165.447 37.1908 171.832 41.7367C172.906 42.4419 173.901 43.2259 174.805 44.0791C174.805 44.0901 174.816 44.1003 174.821 44.1105C176.137 46.2983 174.477 48.4916 172.518 50.3317L125.955 30.293ZM86.4429 39.4775C92.7186 27.087 104.626 23.0482 105.205 33.9291C105.248 37.7619 104.299 41.5576 102.421 45.0588C99.9933 49.8528 94.1409 57.2326 88.4945 56.932C81.5185 56.5614 83.2545 45.7802 86.4429 39.4759V39.4775ZM42.7612 77.3482L37.147 76.5295C37.8856 75.8792 38.7098 75.3 39.604 74.8025C39.7514 74.724 39.8487 74.6337 39.982 74.1125C40.1114 73.6085 40.274 72.6995 40.549 70.9937C40.9277 67.9529 42.1288 65.0225 44.0625 62.4215C45.3118 60.7918 47.2897 59.2446 49.5255 59.7415C49.8289 59.8369 50.1053 59.9833 50.3373 60.1716C43.7591 60.1096 39.3687 72.1641 42.7612 77.3482ZM57.2934 64.0817C56.1952 64.9371 55.0293 65.7304 53.8035 66.4564C53.7913 66.2632 53.7185 65.7098 53.6977 65.5144C54.5482 64.8934 55.6189 64.1665 56.8162 63.3768C56.922 63.5205 57.2027 63.9279 57.2934 64.0825V64.0817ZM91.9192 21.1783C94.3894 19.0235 99.327 16.3357 102.803 16.9472C104.191 17.3172 105.364 18.1029 106.093 19.1515C100.816 17.2455 93.0929 20.5817 89.4036 24.3325C89.0766 24.6648 88.7616 25.005 88.4586 25.353C89.4501 23.8734 90.6089 22.4756 91.9192 21.1783ZM113.515 35.2981C113.628 35.7455 113.713 36.1975 113.769 36.6523C113.681 36.6154 109.556 34.9253 107.547 34.2564C108.023 32.6999 108.168 31.0864 107.977 29.4883C108.427 29.6987 108.869 29.917 109.294 30.1391C109.261 31.0526 109.158 31.9634 108.987 32.8662C108.796 33.977 111.046 34.7212 113.515 35.2981ZM176.255 45.9357C176.554 46.4413 176.7 47.0001 176.679 47.5633C176.659 48.1265 176.473 48.677 176.138 49.1667C174.362 51.8067 171.534 53.916 168.792 55.9499L167.876 54.4286C171.298 52.8578 176.122 49.0694 176.255 45.9357ZM179.987 39.3943C163.782 26.7393 142.553 20.7749 128.208 21.2663C121.753 21.4876 114.164 25.057 112.764 25.9504C112.697 25.2993 112.596 24.6507 112.462 24.0043C116.487 21.6497 120.976 19.8964 125.727 18.8233C130.969 17.6685 136.491 17.7263 141.697 18.9905C151.359 21.4602 162.436 26.291 170.623 30.6713C180.367 35.9308 181.001 38.1493 181.812 38.5323C182.449 39.822 182.943 41.157 183.289 42.5209C182.347 41.3704 181.238 40.3203 179.987 39.3943ZM180.374 36.0266C177.993 34.0661 175.363 32.3258 172.531 30.8362C160.398 24.2712 151.238 20.8785 143.503 18.6546C132.412 15.4651 122.057 17.6537 112.267 23.1691C111.893 21.702 111.355 20.2671 110.66 18.883C114.818 17.1113 118.521 15.7681 121.898 14.5914C123.642 13.9649 125.487 13.5539 127.374 13.3715C135.028 12.793 142.095 14.2523 151.018 18.2511C156.803 20.7811 162.194 23.4384 167.673 26.1694C172.997 28.7308 177.461 31.6141 180.374 36.0266ZM55.7682 45.7881C61.6489 40.5537 67.6308 34.7981 73.899 29.9177C78.5578 26.0103 83.4828 22.3281 88.6495 18.8893C89.4433 18.7557 90.2483 18.673 91.0573 18.642C79.4036 26.4779 64.1872 40.0859 54.157 49.2806C54.6796 48.0834 55.2088 46.9193 55.7682 45.7881ZM43.778 77.2368C42.4437 75.5098 42.1479 72.2913 43.022 69.0516C44.2883 64.3588 47.3256 60.8993 49.7637 61.3334C51.9655 61.857 51.9306 63.4922 51.9306 65.9649C51.9304 66.0402 51.9563 66.1139 52.0052 66.1773C52.0541 66.2406 52.1238 66.291 52.2062 66.3224C52.2886 66.3537 52.38 66.3647 52.4697 66.3541C52.5594 66.3435 52.6435 66.3117 52.7121 66.2625C52.8954 69.78 51.4836 74.7342 48.5371 77.2281C46.6008 78.8044 44.7769 78.5344 43.778 77.2368ZM57.5665 62.8877C62.4616 59.703 76.614 51.1402 76.7765 51.0445C78.813 49.8473 81.1292 48.4963 81.3994 46.3933C82.2669 39.3943 84.7504 30.2922 90.1341 24.8255C93.8526 21.0512 102.525 17.4684 106.984 20.508C108.473 23.2483 109.263 26.2151 109.304 29.2215C107.394 28.2496 105.346 27.4783 103.207 26.9253C88.6589 23.6283 75.7398 53.905 86.4542 57.6502C86.4665 57.6549 94.1352 60.0052 95.6018 60.2517C105.564 61.9104 116.68 45.4529 114.53 35.5242C115.453 35.7087 115.585 35.6522 115.693 35.6074C115.693 35.6074 122.178 32.1032 124.977 30.7561L149.016 41.1024L126.552 51.0115L113.967 46.7207C113.648 47.7393 113.175 48.7204 112.561 49.6409L122.621 52.7448L76.1358 73.2497L59.8185 70.2157C59.7 70.9737 59.5322 71.7258 59.3157 72.4687L72.7253 74.7538L60.9383 79.9529L53.7705 78.9151C58.4057 75.9878 60.8069 67.2225 57.5665 62.8877ZM85.65 83.5458C85.5555 83.5089 86.853 83.7028 62.456 80.1703L74.1825 75.0003L97.2017 78.8947C98.3064 78.4771 99.311 78.1434 100.415 77.7266L77.5561 73.5119L123.803 53.1121L147.42 60.455C148.726 59.955 149.629 59.7046 150.734 59.2869L127.686 51.4001L150.035 41.5412L171.849 50.9291C170.437 52.1339 168.803 53.1452 167.01 53.9254C87.8491 82.7443 85.7455 83.5058 85.65 83.5458ZM96.27 80.5361L97.0751 80.2433C97.2367 81.3588 97.867 82.7106 99.1995 82.7106C100.597 82.7106 101.953 81.0526 102.282 78.9159C102.363 78.72 102.401 78.5137 102.394 78.3067L103.758 77.8106C103.761 78.3232 103.73 78.8356 103.664 79.3453C103.262 81.9593 102.008 84.2813 100.47 85.261C100.053 85.5612 99.5094 85.7119 98.9585 85.6802C97.438 85.5468 96.3248 83.3982 96.27 80.5361ZM143.734 63.2575L145.925 62.4599C145.366 65.2278 146.039 67.29 147.749 67.911C150.919 68.9833 154.364 65.1423 155.702 62.3453C156.288 61.0965 156.691 59.7934 156.9 58.4643L161.342 56.8487C160.954 59.0087 160.25 61.1213 159.247 63.1397C155.899 69.7337 149.928 74.26 146.206 73.026C143.473 72.077 142.488 68.1598 143.734 63.2575Z" fill="black" fill-opacity="0.6"/>
<path d="M46.043 73.8566C48.844 74.3504 51.2944 69.2793 50.3749 66.0411C50.0659 64.9516 49.4157 64.267 48.5445 64.1124C45.6906 63.6108 43.3054 68.7321 44.2126 71.9278C44.5225 73.0174 45.1708 73.7019 46.043 73.8566Z" fill="black" fill-opacity="0.6"/>
<path d="M173.169 62.6483C171.921 69.3946 169.599 74.0465 165.862 77.2878C161.714 80.8878 154.434 83.1635 148.548 80.5502C148.438 80.5012 148.308 80.4907 148.188 80.521C148.068 80.5514 147.967 80.62 147.908 80.7119C147.849 80.8039 147.837 80.9115 147.873 81.0112C147.91 81.1108 147.992 81.1944 148.103 81.2434C154.144 83.925 161.882 81.8769 166.546 77.831C170.42 74.4673 172.823 69.6811 174.106 62.7676C174.115 62.7166 174.112 62.6644 174.098 62.6142C174.083 62.564 174.056 62.5168 174.019 62.4751C173.983 62.4335 173.936 62.3982 173.883 62.3714C173.83 62.3447 173.771 62.3268 173.709 62.319C173.648 62.3112 173.585 62.3135 173.525 62.3258C173.464 62.3381 173.407 62.3602 173.357 62.3907C173.307 62.4213 173.265 62.4598 173.232 62.504C173.2 62.5482 173.179 62.5972 173.169 62.6483Z" fill="black" fill-opacity="0.6"/>
<path d="M171.477 77.2267C171.371 77.1715 171.242 77.1535 171.12 77.1767C170.998 77.2 170.892 77.2626 170.826 77.3507C162.415 88.4655 141.995 87.2205 135.804 74.9054C135.782 74.8558 135.748 74.8104 135.704 74.772C135.66 74.7336 135.608 74.7029 135.549 74.6818C135.491 74.6607 135.428 74.6496 135.364 74.6492C135.301 74.6488 135.238 74.6591 135.179 74.6795C135.12 74.6999 135.067 74.7299 135.022 74.7678C134.978 74.8057 134.943 74.8507 134.92 74.9C134.897 74.9493 134.886 75.002 134.889 75.0549C134.891 75.1078 134.906 75.1597 134.933 75.2077C141.364 88.0079 162.722 89.5386 171.627 77.7676C171.66 77.7239 171.682 77.6752 171.692 77.6243C171.703 77.5735 171.701 77.5215 171.687 77.4713C171.673 77.4211 171.647 77.3736 171.611 77.3316C171.575 77.2897 171.529 77.254 171.477 77.2267Z" fill="black" fill-opacity="0.6"/>
<path d="M111.093 84.8582C110.973 84.8293 110.844 84.8413 110.734 84.8915C110.624 84.9417 110.543 85.026 110.508 85.1259C110.026 86.636 109.044 88.0039 107.675 89.0751C106.306 90.1462 104.603 90.878 102.759 91.1877C98.9793 91.6704 95.0982 89.5572 94.4575 86.6653C94.4462 86.6145 94.423 86.5661 94.3892 86.5228C94.3553 86.4794 94.3116 86.4421 94.2604 86.4128C94.2092 86.3836 94.1515 86.363 94.0907 86.3522C94.03 86.3414 93.9672 86.3407 93.9061 86.3501C93.845 86.3595 93.7867 86.3788 93.7345 86.4069C93.6824 86.435 93.6374 86.4713 93.6022 86.5138C93.567 86.5564 93.5421 86.6043 93.5292 86.6548C93.5162 86.7053 93.5154 86.7574 93.5267 86.8081C94.1882 89.7856 97.8359 92.041 101.682 92.041C105.797 92.041 110.022 89.3555 111.421 85.3441C111.438 85.2943 111.443 85.2422 111.436 85.1908C111.429 85.1394 111.409 85.0896 111.379 85.0445C111.349 84.9993 111.308 84.9596 111.259 84.9276C111.21 84.8956 111.153 84.8721 111.093 84.8582Z" fill="black" fill-opacity="0.6"/>
<path d="M104.869 94.2966C103.272 94.8153 101.539 94.9801 99.8415 94.7751C98.144 94.57 96.5398 94.0021 95.186 93.127C93.8323 92.2518 92.7755 91.0995 92.1193 89.783C91.4631 88.4664 91.2299 87.0308 91.4427 85.6169C91.4532 85.5156 91.4159 85.4149 91.3388 85.336C91.2616 85.2571 91.1506 85.2061 91.0292 85.1938C90.9077 85.1815 90.7852 85.2088 90.6875 85.27C90.5898 85.3312 90.5245 85.4215 90.5053 85.5219C90.2845 87.0674 90.5477 88.634 91.2694 90.0702C91.9911 91.5064 93.1469 92.7635 94.625 93.7198C96.103 94.6762 97.8532 95.2994 99.7062 95.5292C101.559 95.759 103.452 95.5875 105.202 95.0314C105.319 94.9948 105.414 94.9209 105.466 94.8261C105.518 94.7313 105.522 94.6233 105.478 94.5259C105.434 94.4284 105.345 94.3495 105.231 94.3065C105.117 94.2636 104.987 94.26 104.869 94.2966Z" fill="black" fill-opacity="0.6"/>
</svg>
