<svg width="359" height="346" viewBox="0 0 359 346" fill="none" xmlns="http://www.w3.org/2000/svg">
<path d="M274.062 146.324C273.308 146.324 273.308 147.673 274.062 147.673C275.857 147.673 300.861 147.275 302.961 146.877C303.153 146.85 303.327 146.757 303.453 146.615C303.58 146.474 303.649 146.294 303.649 146.107C303.649 145.921 303.58 145.741 303.453 145.599C303.327 145.458 303.153 145.365 302.961 145.338C296.374 144.507 281.314 146.185 274.062 146.324ZM284.078 181.65C283.252 181.65 283.396 182.982 284.186 183.017C290.037 183.207 299.156 182.913 305.133 182.654C306.228 182.654 306.354 180.924 305.133 180.924C298.438 180.958 290.791 181.045 284.078 181.65ZM284.85 121.983C284.676 121.99 284.51 122.058 284.385 122.174C284.259 122.29 284.181 122.446 284.165 122.613C284.15 122.78 284.198 122.947 284.301 123.082C284.404 123.218 284.554 123.313 284.724 123.349C287.937 123.73 298.366 124.128 301.507 122.848C301.668 122.771 301.798 122.646 301.879 122.491C301.959 122.336 301.985 122.161 301.953 121.991C301.92 121.82 301.831 121.665 301.699 121.548C301.567 121.431 301.399 121.359 301.22 121.342C297.056 121.1 290.378 122.38 284.85 121.983ZM264.351 155.406C279.501 155.199 296.661 154.178 311.954 152.828C312.906 152.828 312.816 151.098 311.829 151.098C296.786 151.462 279.213 152.413 264.261 153.901C264.054 153.912 263.86 154.003 263.722 154.152C263.584 154.301 263.513 154.497 263.525 154.697C263.537 154.896 263.631 155.083 263.786 155.216C263.94 155.349 264.144 155.418 264.351 155.406ZM286.07 78.3519C290.289 78.0405 294.507 77.7983 298.635 77.3139C299.82 77.1928 299.515 75.5839 298.348 75.5839C294.148 75.8953 289.948 76.4143 285.783 76.8814C284.814 76.9852 285.083 78.4211 286.07 78.3519ZM261.443 114.44C260.545 114.44 260.509 115.91 261.443 115.979C271.591 116.435 281.759 115.75 291.742 113.938C292.873 113.748 292.694 112.018 291.545 112.208C281.603 113.842 271.527 114.589 261.443 114.44ZM294.848 86.6386C296.409 87.0019 296.643 84.5453 295.207 84.7875C288.201 85.8822 281.1 86.3053 274.008 86.0504C273.057 86.0504 272.841 87.3825 273.81 87.4863C280.829 88.1654 287.912 87.88 294.848 86.6386ZM255.968 154.593C254.568 154.074 248.106 154.939 246.293 155.129C245.414 155.129 245.378 156.496 246.293 156.479L253.635 156.254C257.027 156.133 257.009 154.991 255.968 154.593ZM263.381 229.45C261.874 229.104 251.158 229.883 249.398 229.986C248.465 229.986 248.645 231.37 249.578 231.353C251.481 231.353 261.91 231.353 263.561 230.851C264.297 230.609 264.046 229.589 263.381 229.45ZM249.38 222.132C254.424 222.357 266.918 222.565 271.962 221.406C272.079 221.405 272.196 221.38 272.303 221.333C272.41 221.286 272.506 221.218 272.585 221.134C272.663 221.049 272.722 220.949 272.758 220.841C272.794 220.733 272.806 220.619 272.794 220.506C272.781 220.393 272.744 220.284 272.685 220.185C272.626 220.087 272.546 220.002 272.451 219.935C272.356 219.868 272.247 219.821 272.132 219.797C272.017 219.774 271.897 219.773 271.782 219.797C264.405 219.797 257.566 220.99 249.596 220.679C248.645 220.644 248.393 222.08 249.38 222.132ZM266.792 191.373C267.869 191.183 267.779 189.643 266.648 189.643C258.679 190.421 257.009 190.612 248.842 190.923C248.052 190.923 247.962 192.238 248.842 192.29C254.842 192.674 260.868 192.366 266.792 191.373ZM277.849 180.491C268.084 180.837 257.943 182.429 247.747 182.775C247.565 182.802 247.399 182.891 247.279 183.026C247.159 183.16 247.093 183.332 247.093 183.51C247.093 183.688 247.159 183.859 247.279 183.994C247.399 184.129 247.565 184.218 247.747 184.245C256.202 184.245 269.808 183.865 278.047 182.1C278.219 182.027 278.362 181.902 278.455 181.745C278.548 181.587 278.586 181.405 278.564 181.225C278.542 181.045 278.461 180.877 278.332 180.745C278.203 180.613 278.034 180.524 277.849 180.491ZM311.111 225.212C310.967 225.212 301.112 225.99 299.425 225.938C299.265 225.966 299.119 226.042 299.008 226.157C298.897 226.271 298.827 226.417 298.809 226.572C298.791 226.728 298.825 226.885 298.907 227.02C298.989 227.155 299.114 227.261 299.264 227.322C301.274 227.686 309.746 227.824 311.487 226.405C311.575 226.312 311.636 226.199 311.665 226.076C311.693 225.953 311.689 225.826 311.651 225.705C311.613 225.585 311.543 225.476 311.448 225.39C311.354 225.303 311.237 225.242 311.111 225.212ZM314.288 187.48C301.848 188.259 287.955 188.709 275.57 189.729C274.6 189.729 274.78 191.131 275.713 191.183C282.409 191.373 306.228 190.196 314.449 189.193C314.567 189.184 314.681 189.153 314.785 189.101C314.89 189.049 314.983 188.978 315.058 188.89C315.133 188.803 315.19 188.703 315.224 188.594C315.258 188.486 315.269 188.372 315.257 188.259C315.234 188.032 315.12 187.823 314.938 187.678C314.757 187.532 314.523 187.461 314.288 187.48ZM267.564 148.14C267.802 148.14 268.03 148.049 268.198 147.887C268.367 147.725 268.461 147.505 268.461 147.275C268.461 147.046 268.367 146.826 268.198 146.663C268.03 146.501 267.802 146.41 267.564 146.41C259.827 146.6 252.019 146.652 244.229 147.223C244.061 147.259 243.912 147.349 243.804 147.478C243.697 147.607 243.638 147.767 243.638 147.933C243.638 148.098 243.697 148.258 243.804 148.387C243.912 148.516 244.061 148.606 244.229 148.642C252.055 148.78 259.827 148.382 267.564 148.14ZM298.169 217.98C295.44 217.98 285.604 218.655 283.27 219.053C282.516 219.174 282.408 220.368 283.27 220.402C285.801 220.523 295.584 219.918 298.42 219.676C299.515 219.71 299.281 217.98 298.169 217.98ZM292.927 227.686L270.364 229.07C269.341 229.07 269.592 230.575 270.597 230.523C274.977 230.332 289.068 229.796 293.017 229.277C293.896 229.173 293.914 227.686 292.927 227.686ZM276.772 77.3139C270.149 76.5873 249.363 77.7983 242.308 78.4903C241.339 78.5768 241.267 80.03 242.308 79.9435C253.904 79.2169 265.194 78.9747 276.79 79.0093C276.993 78.9677 277.174 78.8598 277.303 78.704C277.433 78.5482 277.502 78.3541 277.5 78.1545C277.498 77.955 277.424 77.7623 277.292 77.6091C277.159 77.4559 276.976 77.3516 276.772 77.3139ZM278.693 124.007C279.824 123.851 279.411 122.277 278.28 122.277C266.726 123.545 255.103 124.123 243.475 124.007C243.306 124.033 243.153 124.116 243.042 124.241C242.931 124.366 242.87 124.525 242.87 124.69C242.87 124.855 242.931 125.014 243.042 125.139C243.153 125.264 243.306 125.347 243.475 125.373C255.233 125.919 267.018 125.462 278.693 124.007ZM266.505 87.7804C266.623 87.7696 266.738 87.7364 266.842 87.6826C266.947 87.6288 267.039 87.5555 267.115 87.467C267.19 87.3786 267.246 87.2766 267.28 87.1671C267.314 87.0576 267.325 86.9426 267.313 86.8289C267.301 86.7151 267.267 86.6046 267.211 86.5037C267.155 86.4028 267.079 86.3136 266.987 86.2412C266.896 86.1688 266.79 86.1147 266.676 86.0819C266.563 86.0492 266.443 86.0385 266.325 86.0504C258.409 87.0019 250.906 87.0365 243.098 87.6939C242.272 87.7804 242.183 89.0779 243.098 89.1125C250.924 89.2344 258.748 88.7892 266.505 87.7804ZM244.265 115.166C243.367 115.166 243.349 116.533 244.372 116.568C247.594 116.86 250.832 116.941 254.065 116.81C254.211 116.747 254.335 116.645 254.421 116.516C254.508 116.387 254.554 116.237 254.554 116.083C254.554 115.93 254.508 115.779 254.421 115.65C254.335 115.521 254.211 115.419 254.065 115.357C253.742 115.184 245.916 115.166 244.265 115.166ZM221.863 125.131C222.904 125.131 226.764 118.972 228.935 116.862C229.725 116.101 228.433 114.82 227.625 115.547C225.335 117.537 223.353 119.832 221.737 122.363L217.196 118.332C216.263 117.502 215.06 118.92 215.922 119.768C216.783 120.616 220.535 125.131 221.863 125.131ZM209.585 96.8802C216.945 97.2954 224.592 97.157 232.669 97.2089C233.243 97.2089 233.584 95.6692 232.669 77.2966C232.669 75.9645 232.543 74.9784 232.525 74.6151C232.53 74.5616 232.523 74.5076 232.504 74.4569C232.486 74.4063 232.456 74.3599 232.418 74.321C231.897 73.7847 228.505 73.8193 220.876 74.0096C208.042 74.3037 206.624 74.2172 206.624 74.9265C206.57 75.0649 207.378 96.6726 209.585 96.8802ZM210.088 95.6C209.19 90.9809 208.544 81.2237 207.988 75.7569C213.211 76.051 225.112 75.4801 231.107 75.3417C231.107 75.3417 231.43 90.7214 231.574 95.6865C224.538 95.5308 217.196 95.2713 210.016 95.5135L210.088 95.6Z" fill="black"/>
<path d="M235.146 129.646C236.654 129.075 234.895 112.952 234.643 108.713C234.631 108.626 234.586 108.546 234.518 108.488C233.441 107.589 210.662 108.782 209.513 108.869C208.365 108.955 209.513 114.976 209.711 119.076C210.124 129.283 210.608 130.165 211.147 130.234C215.06 130.771 231.556 130.995 235.146 129.646ZM210.608 110.287C218.381 109.803 226.261 109.768 233.261 109.734C233.441 113.782 233.728 125.183 234.087 128.262C226.771 128.991 219.409 129.194 212.062 128.868C212.367 126.29 210.878 113.211 210.608 110.287ZM225.22 153.97L229.384 150.337C229.505 150.139 229.559 149.909 229.537 149.681C229.514 149.452 229.418 149.236 229.261 149.063C229.103 148.89 228.893 148.77 228.661 148.719C228.428 148.668 228.185 148.69 227.966 148.78C226.261 149.792 224.714 151.033 223.371 152.465L219.637 149.143C219.435 148.962 219.166 148.866 218.89 148.875C218.614 148.885 218.353 149 218.165 149.195C217.977 149.39 217.877 149.649 217.887 149.915C217.897 150.181 218.017 150.432 218.219 150.614L221.809 154.074C218.578 157.361 217.16 159.419 217.483 160.354C217.806 161.288 218.973 160.873 219.278 160.457C220.535 158.97 221.953 157.274 223.478 155.7C224.991 157.292 226.669 158.729 228.486 159.99C228.674 160.037 228.871 160.034 229.057 159.982C229.243 159.93 229.411 159.831 229.543 159.694C229.676 159.558 229.767 159.39 229.809 159.208C229.85 159.025 229.84 158.835 229.779 158.658C228.428 156.951 226.9 155.38 225.22 153.97ZM226.171 79.8048C223.304 82.2215 220.961 85.1614 219.278 88.4548C217.926 86.8948 216.369 85.5107 214.647 84.3374C213.588 83.6281 212.224 84.9775 213.265 85.7387C215.312 87.4829 217.226 89.3677 218.991 91.3785C219.458 91.8456 219.906 91.6034 220.301 91.1017C222.256 87.4312 224.667 84.0037 227.481 80.8947C228.343 79.9778 227.104 78.9571 226.171 79.8048ZM225.597 192.756C226.53 192.134 230.084 185.525 232.148 183.276C232.956 182.411 231.556 181.217 230.64 182.134C228.183 184.574 226.076 187.321 224.376 190.3L220.194 186.84C219.278 186.096 218.058 187.428 219.009 188.31C219.96 189.193 224.053 194.037 225.597 192.756ZM239.292 214.935C238.61 213.638 214.055 214.935 213.821 214.935C213.768 214.941 213.717 214.961 213.673 214.991C213.629 215.021 213.594 215.061 213.57 215.108C212.744 216.388 213.57 237.2 214.162 239.138C214.862 241.491 238.664 239.536 239.849 239.639C239.885 239.647 239.922 239.647 239.957 239.639C239.993 239.632 240.027 239.617 240.056 239.595C240.085 239.574 240.109 239.547 240.126 239.515C240.143 239.484 240.152 239.45 240.154 239.415C240.531 236.768 239.382 215.108 239.292 214.935ZM214.97 216.198C222.15 216.492 230.64 216.06 237.928 216.042C238.036 218.931 238.682 235.885 238.772 238.169C230.802 238.515 224.107 238.394 215.616 238.169C215.706 235.28 215.078 218.828 214.97 216.25V216.198Z" fill="black"/>
<path d="M223.639 227.409C224.914 227.409 231.429 227.841 231.95 227.564C232.087 227.489 232.205 227.384 232.293 227.258C232.381 227.132 232.438 226.988 232.459 226.837C232.479 226.687 232.464 226.533 232.413 226.389C232.362 226.245 232.277 226.114 232.165 226.007C231.214 225.038 225.201 225.246 224.196 225.436C222.831 225.679 222.58 226.18 222.616 226.561C222.664 226.792 222.791 227.001 222.976 227.155C223.161 227.308 223.395 227.398 223.639 227.409ZM226.062 176.633C220.175 176.737 213.982 176.944 212.959 177.014C212.564 177.014 212.151 177.342 212.097 180.941C212.097 185.248 212.869 198.898 214.664 199.019C218.254 199.279 236.814 199.348 239.202 199.175C239.579 199.175 239.884 199.175 239.202 190.179C238.825 185.543 237.981 177.117 237.981 177.117C237.909 176.771 237.874 176.46 226.062 176.633ZM236.635 178.155C237.066 184.608 237.299 191.217 238.017 197.704H215.185C214.485 191.459 214.018 185.024 213.515 178.415L236.635 178.155ZM217.195 166.893C224.483 166.893 236.671 165.942 236.779 165.89C237.927 165.319 236.779 149.697 236.402 143.019C236.402 141.825 230.065 141.808 224.806 141.998C222.508 141.998 211.092 142.587 211.128 144.161C211.738 167.326 211.595 166.201 212.043 166.443C213.723 166.866 215.464 167.018 217.195 166.893ZM213.408 165.163C212.995 158.347 212.851 151.116 212.564 144.403C220.018 143.765 227.502 143.523 234.984 143.677C234.984 146.047 235.468 161.807 235.773 164.437C233.117 164.61 216.19 164.731 213.462 165.18L213.408 165.163Z" fill="black"/>
<path d="M348.231 192.497C343.528 69.2001 345.502 70.2381 344.641 69.5115C343.42 68.4043 333.996 69.1309 331.681 69.252L330.711 50.3431C330.758 50.229 330.775 50.1059 330.761 49.9842C330.747 49.8625 330.703 49.7457 330.633 49.6438C330.562 49.542 330.467 49.458 330.356 49.399C330.245 49.34 330.12 49.3078 329.993 49.3051C292.298 48.8553 253.508 51.26 214.611 53.8031C204.128 54.5124 193.232 55.1352 182.57 56.2251C182.47 56.2096 182.368 56.2157 182.271 56.2429C182.174 56.27 182.085 56.3176 182.009 56.3822C181.934 56.4467 181.874 56.5266 181.834 56.6161C181.795 56.7056 181.776 56.8025 181.78 56.8998C183.755 103.091 189.499 177.758 199.425 260.434C199.533 261.386 207.718 260.555 215.077 260.088C215.174 262.123 215.554 264.137 216.208 266.074C217.285 267.389 350.438 259.431 350.277 253.964C349.702 233.429 348.931 212.634 348.231 192.497ZM338.143 246.439C290.934 253.359 248.482 255.296 201.076 259.241C191.689 180.854 187.829 127.086 183.126 57.4361C197.702 56.6057 251.606 51.8309 329.473 50.8448C331.411 101.136 338.627 240.903 338.089 246.439H338.143ZM112.816 127.501C111.596 127.501 111.614 129.785 112.188 130.65C112.254 130.776 112.358 130.881 112.485 130.952C112.613 131.023 112.759 131.056 112.906 131.048C114.001 130.926 113.947 127.622 112.816 127.501ZM106.408 137.5C107.18 137.691 109.262 137.812 109.747 137.12C110.429 136.151 108.58 127.363 108.347 126.74C108.299 126.613 108.205 126.506 108.083 126.439C107.962 126.372 107.819 126.349 107.681 126.374C107.543 126.399 107.419 126.47 107.33 126.575C107.242 126.68 107.195 126.812 107.198 126.947C107.198 128.522 107.934 133.867 108.221 136.099L106.426 136.203C106.295 136.257 106.183 136.346 106.103 136.46C106.024 136.575 105.98 136.709 105.979 136.846C105.977 136.984 106.016 137.119 106.093 137.235C106.169 137.351 106.278 137.443 106.408 137.5ZM111.291 124.266C111.822 124.126 112.381 124.112 112.919 124.227C113.456 124.341 113.957 124.58 114.378 124.923C115.078 125.529 116.424 124.37 114.504 123.193C113.121 122.294 109.89 121.982 110.231 123.574C110.287 123.796 110.426 123.989 110.622 124.117C110.818 124.245 111.056 124.298 111.291 124.266Z" fill="black"/>
<path d="M163.92 187.151C152.378 176.183 131.61 163.294 112.942 160.734C113.251 159.706 113.251 158.614 112.942 157.585C114.363 156.441 115.684 155.185 116.891 153.831C119.458 150.925 119.404 148.088 115.742 149.524C119.332 141.877 119.332 125.304 118.04 115.996C124.053 119.612 134.195 116.135 132.956 109.076C141.123 111.446 146.437 95.8072 136.062 92.9873C137.515 81.1541 121.791 79.4414 116.981 86.3441C114.27 78.7148 101.813 82.7284 102.71 88.7142C97.0921 82.9014 84.9578 84.9255 83.2706 92.1742C78.1907 87.7281 69.8081 89.6138 70.544 96.1705C62.5024 92.5721 58.2482 101.845 64.4949 104.82C60.492 106.896 60.6176 115.443 66.7565 115.443C66.7565 121.152 70.3465 134.23 79.2318 141.393C80.1832 149.403 78.4779 153.503 75.5162 160.924C46.2218 165.215 23.9817 187.238 14.0015 214.554C2.6212 245.694 8.02415 275.104 41.7522 281.298C41.682 285.454 41.1768 289.592 40.2444 293.65C40.2276 293.803 40.2686 293.957 40.3599 294.083C40.4513 294.21 40.5868 294.3 40.7416 294.338C40.8965 294.376 41.0603 294.358 41.2031 294.289C41.3458 294.22 41.4579 294.104 41.5188 293.961C42.7204 289.931 43.3721 285.767 43.4574 281.575C51.583 282.738 59.8839 281.518 67.2795 278.071C74.6751 274.624 80.8227 269.112 84.922 262.25C90.1181 264.153 95.4218 265.77 100.808 267.094C117.753 271.714 139.849 276.298 160.779 270.831C160.366 280.502 159.791 288.252 158.894 295.951C158.894 296.712 159.989 296.937 160.114 296.176C160.815 292.128 162.556 274.36 162.448 270.364C175.767 266.42 184.67 257.51 186.86 245.937C190.683 226.318 182.067 204.295 163.92 187.151ZM87.6862 112.64C88.1529 117.692 87.6862 121.29 86.0887 123.626C85.4964 124.473 84.5989 125.356 83.827 125.356C83.2346 124.733 79.3574 120.858 75.6956 123.124C73.3083 124.629 73.2006 127.553 75.4623 131.359C77.0788 133.67 78.2353 136.252 78.8728 138.971C71.9979 131.774 69.8978 125.027 68.3182 115.356C70.1429 115.039 71.8083 114.151 73.057 112.83C76.1982 117.328 83.8809 116.429 87.6862 112.64ZM76.5573 124.266C78.9805 122.83 81.2243 124.56 83.2706 126.29C84.4732 127.31 86.4477 125.875 87.3811 124.56C89.8223 121.307 89.6069 115.91 89.2838 113.211C91.0261 114.81 93.3398 115.702 95.7458 115.702C98.1518 115.702 100.466 114.81 102.208 113.211C102.567 118.193 113.409 119.335 116.263 115.2C117.573 123.85 118.201 142.552 113.857 150.389C110.267 151.911 102.1 155.388 98.0434 153.849C94.5611 152.517 92.802 147.396 88.7453 145.199C86.0169 143.745 83.6834 145.389 85.5861 148.33C90.3967 155.7 89.9659 158.502 86.1605 166.08C82.8253 165.204 79.7063 163.692 76.9881 161.634C80.937 156.184 82.0141 146.462 81.0268 139.991C80.1472 134.23 79.2318 134.576 76.8624 130.321C75.7674 128.573 74.7982 125.338 76.5573 124.266ZM106.839 159.16C106.696 159.224 106.582 159.336 106.519 159.475C106.455 159.615 106.447 159.772 106.496 159.916C106.545 160.061 106.646 160.184 106.782 160.261C106.918 160.338 107.079 160.365 107.234 160.336C108.773 160.071 110.232 159.48 111.506 158.606C111.609 160.219 111.168 161.821 110.249 163.173C109.926 163.606 110.501 164.903 111.667 163.294C111.578 168.069 109.047 173.969 104.182 176.287C100.885 175.712 97.7478 174.486 94.9673 172.684C92.1869 170.883 89.8239 168.546 88.0273 165.82C93.4123 156.928 88.6735 150.25 87.0939 147.482C86.2144 145.891 86.6631 145.648 88.0991 146.548C91.4917 148.624 94.4714 154.42 97.7562 155.198C103.949 156.634 111.578 153.036 115.311 151.427C117.25 150.579 118.381 150.008 116.047 152.828C112.924 156.547 111.147 157.326 106.839 159.16ZM30.8745 232.996C30.8096 233.137 30.7994 233.295 30.8459 233.443C30.8924 233.59 30.9924 233.716 31.1277 233.798C31.2629 233.88 31.4243 233.912 31.5822 233.889C31.7401 233.866 31.8839 233.788 31.9874 233.671C47.7295 209.762 73.775 193.172 87.1836 167.585C89.2659 172.048 98.1691 177.792 103.662 177.792C103.662 182.1 103.213 187.22 102.746 192.134C97.3613 190.94 82.8038 186.546 80.1832 180.802C79.878 180.093 78.6933 180.577 78.9805 181.286C81.4397 187.705 96.6254 192.86 102.585 193.95C101.326 206.877 98.8323 219.664 95.1355 232.148C92.425 241.49 88.9427 252.787 83.9167 261.143C79.9098 268.013 73.7789 273.507 66.3785 276.859C58.978 280.212 50.6768 281.255 42.6317 279.845C9.49605 274.239 4.50595 245.435 15.7606 215.004C26.2793 186.494 49.3092 166.426 75.8752 162.62C78.763 164.672 81.9196 166.347 85.263 167.602C71.8005 192.635 46.132 209.07 30.8745 232.996ZM96.6792 232.875C114.122 225.791 132.654 221.518 151.534 220.229C156.919 219.883 162.304 219.9 167.689 219.9C168.479 219.9 168.497 218.654 167.689 218.654C164.027 218.41 160.355 218.346 156.686 218.464C155.807 211.544 142.865 191.355 138.467 185.767C138.354 185.665 138.207 185.604 138.052 185.598C137.898 185.591 137.745 185.638 137.624 185.73C137.502 185.822 137.418 185.954 137.389 186.1C137.359 186.247 137.385 186.399 137.462 186.528C146.275 198.431 153.401 213.586 154.819 218.533C139.041 219.104 114.701 222.703 97.1818 230.972C98.8332 225.142 105.223 201.095 105.367 177.342C110.303 175.214 113.821 167.516 113.409 162.343C132.02 166.428 149.09 175.411 162.717 188.293C178.711 203.396 188.511 222.893 185.496 244.085C183.898 256.195 174.977 265.572 161.658 268.98C138.7 275.035 115.078 269.776 92.4071 262.994C90.2124 262.282 87.9769 261.693 85.7118 261.23C90.2994 252.138 93.972 242.643 96.6792 232.875Z" fill="black"/>
<path d="M95.7999 121.498C96.2638 120.837 96.8825 120.291 97.6059 119.903C98.3293 119.516 99.1372 119.297 99.9643 119.266C101.275 119.266 101.203 117.363 99.9643 117.536C98.8982 117.644 97.8717 117.986 96.9633 118.534C96.0549 119.083 95.2886 119.824 94.7229 120.702C94.2562 121.411 95.2973 122.19 95.7999 121.498ZM100.036 126.29C99.3002 126.861 99.354 129.75 100.467 129.75C100.721 129.724 100.959 129.616 101.142 129.444C101.325 129.271 101.441 129.043 101.472 128.799C101.885 127.293 100.826 125.754 100.036 126.29ZM98.4565 140.58C98.423 140.445 98.3469 140.323 98.2387 140.231C98.1304 140.139 97.9954 140.081 97.8519 140.066C97.7085 140.051 97.5637 140.079 97.4373 140.146C97.311 140.213 97.2093 140.316 97.1462 140.441C96.9667 140.684 96.6256 141.428 97.3795 142.933C97.8913 143.957 98.7745 144.766 99.8626 145.206C100.951 145.646 102.168 145.686 103.285 145.32C103.436 145.262 103.56 145.153 103.633 145.013C103.706 144.872 103.724 144.711 103.682 144.56C103.639 144.408 103.541 144.277 103.405 144.19C103.269 144.104 103.105 144.069 102.944 144.092C100.395 144.576 98.9232 143.019 98.4565 140.58Z" fill="black"/>
</svg>
