<svg width="383" height="341" viewBox="0 0 383 341" fill="none" xmlns="http://www.w3.org/2000/svg">
<path d="M46.5996 166.418C46.343 166.051 46.1476 165.727 45.9944 165.438C21.312 169.937 6.79819 173.076 9.66303 173.777C13.0315 174.6 34.131 170.566 47.8769 168.065C47.4307 167.543 47.0036 166.996 46.5996 166.418Z" fill="black"/>
<path d="M373.191 114.655C373.15 114.437 372.936 114.079 371.954 114.137C368.424 114.357 351.279 116.746 326.212 120.454C326.262 121.283 326.308 122.077 326.348 122.839C333.384 121.77 340.626 120.671 348.091 119.539C371.969 115.919 373.394 115.694 373.193 114.655H373.191Z" fill="black"/>
<path d="M326.284 116.4C325.549 105.201 325.532 105.662 324.499 101.754C324.182 100.547 323.287 99.7367 322.056 99.2133C321.872 99.1372 321.788 99.0349 321.805 98.9064C322.201 95.8169 321.56 91.9994 320.995 88.6321C320.288 84.4326 320.317 83.2749 317.885 79.5904C316.989 78.2333 316.144 76.9511 315.761 74.8556C314.067 65.5515 313.871 63.7953 313.574 61.1372C312.793 54.145 310.045 36.8836 309.932 36.309C309.137 29.2997 304.043 23.5812 297.257 22.0825C287.14 19.8387 292.216 21.1584 286.824 20.2871C279.939 19.1772 239.789 17.479 224.91 18.2172C223.977 18.0843 224.835 18.8225 182.424 18.56C141.05 18.3076 140.512 18.7577 126.521 19.9274C120.379 20.4406 117.838 20.6537 111.745 25.6408C91.7734 41.9832 72.1389 71.0041 57.4604 80.2895C56.3324 81.0039 39.9877 89.0106 35.097 93.9517C34.1127 94.9491 33.5248 96.0011 33.2988 97.1673C33.0786 98.3045 32.8526 99.4776 32.935 100.692C32.9867 101.452 30.8783 100.308 30.3402 108.662C30.2118 110.696 30.6504 111.467 30.9127 111.926C31.3015 112.606 30.8419 111.924 30.6638 115.813C30.6102 116.976 30.771 118.018 31.5849 119.489C32.4103 120.981 33.1782 121.281 33.5918 121.441C33.9155 121.569 33.318 121.431 33.2988 127.978C33.2988 128.602 33.5076 128.122 31.9258 128.945C25.3573 132.381 25.2463 137.809 28.2815 154.697C29.4018 160.929 37.3776 161.901 44.7178 163.389C44.9995 163.446 45.0014 163.463 45.0893 163.884C45.1927 164.382 45.3672 165.212 46.3113 166.566C54.1704 177.821 70.7905 178.602 81.6945 171.076C83.1827 170.044 85.2126 171.954 111.063 175.094C111.517 175.149 112.007 175.13 112.319 175.28C112.574 175.401 112.475 175.928 112.7 176.332C116.153 182.513 117.787 184.622 129.127 187.824C136.083 189.79 148.032 191.191 155.083 188.908C166.309 185.271 171.167 173.498 171.92 163.69C171.991 162.771 171.876 162.535 173.291 162.355C173.663 163.395 173.086 165.062 174.314 165.898C177.625 168.148 192.426 163.359 266.898 152.172C267.233 152.119 267.241 152.121 267.452 152.725C267.658 153.321 268.005 154.319 269.16 155.628C271.716 158.529 274.032 160.462 278.298 161.766C282.13 162.936 289.066 162.856 292.395 162.353C303.314 160.708 308.484 155.209 309.687 143.966C309.704 143.796 309.66 143.83 309.982 143.843C311.041 143.886 313.837 144.002 321.541 141.16C327.508 138.96 327.449 134.21 326.284 116.4ZM284.928 140.031C285.37 130.653 289.836 124.729 294.02 123.724C294.463 123.619 294.903 123.564 295.34 123.564C298.501 123.564 300.541 126.413 300.805 126.848C307.749 136.493 303.04 152.759 295.683 155.025C288.584 157.214 284.616 146.641 284.928 140.031ZM309.89 141.826C309.905 141.115 310.426 139.577 310.261 134.353C310.235 133.533 309.593 125.905 308.653 122.947C306.993 117.716 305.677 113.59 295.993 114.345C280.317 115.569 278.802 132.592 276.155 146.13C275.202 151.028 272.444 147.721 194.454 161.918C183.469 163.918 187.604 163.037 182.759 163.724C175.928 164.694 176.164 164.856 176.148 164.675C176.135 164.505 175.827 164.271 175.798 160.934C175.786 159.62 175.777 158.38 174.944 152.138C173.485 141.18 170.614 129.555 155.145 130.304C152.328 130.439 142.77 131.242 138.088 135.893C134.397 139.56 133.875 142.873 133.405 145.794C132.318 152.563 131.123 161.142 128.093 166.992C125.429 172.138 118.844 174.071 113.993 173.275C111.683 172.891 102.98 172.331 76.1316 167.33C72.7766 166.704 39.1472 159.935 37.617 159.507C33.3772 158.319 30.6791 156.975 30.344 153.956C30.1774 152.479 29.4937 149.294 29.3635 148.06C28.18 136.964 28.2775 134.084 31.9447 131.264C32.4273 130.892 33.0116 130.445 33.2931 130.292C33.4022 130.797 33.4367 131.663 34.0993 132.74C35.3306 134.751 39.4479 135.748 41.1618 136.084C59.5975 139.687 79.4386 141.743 88.2783 142.246C90.2682 142.353 90.5918 140.554 90.8503 139.105C93.1809 125.946 93.9124 128.365 76.0129 126.71C62.8509 125.491 52.4831 124.916 36.1196 120.343C34.4306 119.874 32.6879 118.369 32.6247 116.401C32.5941 115.332 32.7128 114.217 32.7799 113.14C33.429 113.293 34.8825 114.03 37.0905 114.233C38.0059 114.318 36.9775 114.611 42.374 116.152C52.8471 119.15 118.754 124.517 126.318 122.991C128.507 122.55 128.767 121.411 129.154 112.915C129.208 111.75 128.986 110.163 127.05 109.83C122.212 109.009 117.197 108.884 110.851 108.725C89.439 108.194 86.9839 107.433 57.5466 104.531C34.1529 102.228 34.3463 102.194 35.2636 97.5134C36.0852 93.3293 55.0379 83.916 60.5397 80.8743C61.75 80.2042 66.3554 75.9963 67.2669 75.0926C76.5968 65.8856 81.3577 60.3137 85.9613 54.9259C96.1032 43.0574 98.9295 40.6022 109.351 30.558C119.474 20.8037 118.576 21.5011 162.805 20.606C165.011 20.5616 165.884 20.4678 166.328 20.4474C166.388 20.5275 166.489 20.5804 166.606 20.5804C175.398 20.6042 191.987 20.5565 193.46 20.577C190.438 21.2504 185.413 22.2035 182.636 24.2939C178.289 27.5658 167.481 42.6482 165.2 45.5279C158.367 45.3353 102.036 42.7062 99.437 45.2756C84.6034 59.9318 72.2212 77.1523 70.875 78.2571C69.207 78.1923 68.0274 78.1787 66.9645 78.4685C66.6007 78.5674 65.9209 78.7533 65.9802 79.1881C66.1047 80.0815 70.2909 80.3611 89.7473 81.2647C102.909 81.8751 120.91 82.7123 139.581 84.1973C134.361 92.8911 136.728 92.2006 120.395 100.836C116.657 102.813 114.522 103.953 114.108 104.431C113.459 105.181 114.307 105.953 115.075 105.656C118.041 104.518 129.043 98.238 130.42 97.4793C132.639 96.2551 136.594 93.4129 137.752 90.9935C139.677 86.9799 162.586 51.3028 178.504 31.3935C183.975 24.5496 186.307 22.0228 210.258 21.022C219.456 20.6366 229.395 19.513 262.827 20.8464C314.658 22.9111 305.079 24.715 312.243 68.3749C315.549 88.4871 317.311 72.4652 320.083 96.5109C320.426 99.4793 319.538 100.044 321.108 100.874C322.311 101.512 322.255 102.425 322.642 104.044C322.966 105.401 323.18 106.298 323.913 115.452C325.867 139.833 323.724 137.823 316.981 140.345C315.352 140.955 311.004 141.787 309.886 141.828L309.89 141.826ZM92.6541 109.735C92.9107 109.643 95.4193 110.04 109.261 110.441C119.234 110.727 118.302 110.858 123.266 111.169C127.348 111.421 127.197 111.31 126.77 114.947C126.059 121.022 126.498 121.01 126.023 121.107C123.26 121.825 92.7443 119.972 91.7944 119.726C91.8804 119.551 91.871 119.429 91.8729 119.152C91.8825 115.53 92.8168 110.449 92.6541 109.735ZM38.3927 104.1C38.4636 104.281 38.1151 105.455 37.4659 107.931C37.3759 108.275 37.3931 108.171 37.1844 112.154C36.9661 112.171 36.0716 112.134 33.088 110.995C32.818 110.891 32.7892 110.853 32.6629 109.829C32.5288 108.739 32.5347 109.482 32.7148 107.479C32.8622 105.842 33.1361 102.795 33.7412 102.594C33.7833 102.582 33.8791 102.613 34.0284 102.744C34.6642 103.305 36.0066 103.522 38.3927 104.1ZM74.8409 76.5675C79.975 70.7892 88.9813 59.5908 91.0016 57.318C100.722 46.4009 100.134 46.481 100.843 46.4827C138.513 46.4879 147.123 46.4128 163.915 47.221C163.031 49.4477 152.961 61.7732 142.44 79.3432C140.738 82.182 140.861 82.1991 140.401 82.1889C140.031 82.1701 79.5154 78.7277 73.2687 78.3731C73.5962 77.969 74.1707 77.3245 74.8409 76.5675ZM140.28 162.384C140.594 153.233 144.273 146.382 149.662 144.928C152.94 144.043 156.378 145.482 159.082 148.875C166.715 158.447 161.633 175.937 152.655 178.145C147.571 179.396 144.124 174.557 143.189 173.045C140.767 169.127 140.701 166.293 140.278 162.38L140.28 162.384ZM143.852 134.976C149.045 132.805 152.362 132.879 156.025 132.624C157.745 132.509 161.326 132.263 165.246 135.098C169.612 138.254 171.106 144.157 172.071 150.067C172.408 152.104 173.195 157.238 173.27 160.002C173.274 160.194 173.28 160.394 173.272 160.426C173.228 160.455 173.03 160.494 172.839 160.534C172.613 160.58 172.2 160.663 171.995 160.731C171.985 160.655 171.974 160.535 171.97 160.349C171.784 152.394 168.32 141.409 159.16 136.63C154.658 134.282 149.011 134.401 143.852 134.976Z" fill="black"/>
<path d="M260.854 136.126C260.81 127.018 260.781 111.438 259.921 102.347C258.724 89.6567 255.539 55.9471 251.966 43.2517C251.355 41.0846 248.092 41.5944 240.34 41.5944C237.831 41.3029 213.762 42.0701 212.038 42.5236C208.676 43.4051 211.877 42.5356 216.872 108.325C220.033 140.766 218.184 142.704 219.93 143.473C220.855 143.884 242.092 140.81 243.751 140.551C260.944 137.866 260.863 137.903 260.854 136.126ZM252.385 100.057C252.328 100.069 252.255 100.088 252.198 100.061C251.891 97.5815 249.446 64.5505 244.538 43.2909C246.135 43.2329 248.251 43.2005 249.816 43.4205C251.56 45.2772 257.035 87.8357 257.627 99.6786C257.627 99.7213 257.631 99.7741 257.652 99.7792C257.255 99.9071 253.259 99.8747 252.385 100.059V100.057ZM246.545 66.23C246.755 66.4397 250.44 97.856 250.673 99.3018C250.838 100.308 251.014 100.255 248.4 100.367C244.53 100.538 242.42 100.794 239.93 100.882C239.025 98.4118 237.996 79.3874 235.6 66.5846C236.336 66.4141 244.752 66.247 246.543 66.2282L246.545 66.23ZM215.648 67.8241C215.811 67.6519 216.481 67.698 232.992 66.634C234.091 66.6204 234.101 66.6221 234.181 67.4541C237.548 101.162 239.273 101.038 237.309 101.184C225.874 102.025 219.089 102.64 218.603 102.62C218.084 102.147 218.754 99.7605 216.498 78.1462C215.732 70.8283 215.271 68.2265 215.648 67.8241ZM219.518 104.185C220.771 104.06 229.792 103.344 231.474 103.266C231.803 103.252 231.855 103.477 232.098 106.337C232.249 108.108 232.563 110.78 232.954 114.841C232.971 115.013 234.718 139.647 234.649 140.021C219.572 141.905 221.01 142.148 220.941 141.475C220.079 106.159 217.324 104.405 219.518 104.185ZM236.51 139.77C236.412 139.555 235.449 116.348 233.36 103.875C233.302 103.527 233.255 103.247 233.237 103.082C236.129 102.869 256.055 101.153 257.83 101.76C259.325 123.428 258.82 134.416 258.82 136.2C258.353 136.675 236.709 139.84 236.51 139.77Z" fill="black"/>
<path d="M301.427 42.7001C300.634 40.4973 301.289 40.5177 280.983 40.6984C273.949 40.7615 275.839 40.6541 260.295 41.0752C257.689 41.1434 258.11 43.2474 258.539 45.4128C260.191 53.6888 262.344 74.674 263.464 81.0217C263.661 82.1282 264.774 82.3584 265.944 82.3345C305.207 81.5383 307.302 81.1666 307.475 78.4284C307.858 72.2784 302.907 46.816 301.425 42.6984L301.427 42.7001ZM305.119 78.5852C302.262 79.0115 267.756 81.02 265.125 80.3704C264.146 67.0646 262.131 54.3742 260.329 43.0735C263.072 42.2807 296.241 42.6831 299.225 42.5739C299.539 42.5603 299.533 42.4989 300.123 45.2815C301.274 50.7221 304.922 68.5633 305.357 74.0857C305.707 78.4983 305.64 78.5068 305.117 78.5852H305.119Z" fill="black"/>
<path d="M208.442 77.6703C205.028 42.2336 207.019 41.6982 201.491 42.0767C195.275 42.5012 191.646 42.5098 189.02 42.8337C178.329 44.1517 178.028 43.2207 178.39 49.1644C178.926 57.9741 178.072 49.5463 180.939 89.9821C181.117 92.4884 181.079 93.4688 182.774 93.3938C184.455 93.3085 188.057 91.9991 190.102 90.0622C194.811 85.5968 191.682 86.908 206.267 84.5448C206.918 84.4391 207.492 84.2141 208.121 84.0504C208.731 83.8913 208.839 81.7657 208.442 77.6703ZM183.233 91.6069C183.197 90.9966 180.397 50.7227 180.232 49.2701C179.963 46.8877 180.384 45.6083 181.496 45.4321C190.158 44.0545 200.868 44.0596 201.958 43.8004C203.534 43.7953 203.505 43.7288 203.605 45.3878C203.615 45.56 206.776 82.6744 206.82 82.6591C206.675 82.7665 205.71 82.8859 204.111 83.0854C194.21 84.313 192.655 84.4937 190.537 86.7238C188.08 89.3103 187.479 90.0827 183.233 91.6069Z" fill="black"/>
<path d="M212.708 128.818C212.212 128.852 212.317 128.845 212.708 128.818C212.139 121.72 211.66 114.45 211.237 108.037C209.768 85.7563 209.624 86.0104 208.564 86.1263C208.25 86.1638 207.951 86.4059 207.991 86.8595C208.721 94.8014 212.405 146.939 212.466 147.44C212.803 150.149 212.771 149.706 211.553 150.025C204.509 151.897 183.502 155.281 182.833 155.095C182.78 154.92 178.109 97.9062 177.182 97.3367C177.09 97.2804 176.964 97.2651 176.862 97.3009C175.905 97.6231 176.018 99.4014 176.389 103.754C176.816 108.772 178.649 139.518 181.123 155.007C181.284 155.99 180.989 156.342 183.381 156.727C183.686 156.761 186.504 156.355 187.441 156.219C207.242 153.332 210.996 151.762 213.116 151.262C215.348 150.734 214.492 151.046 212.704 128.818H212.708Z" fill="black"/>
<path d="M82.9124 147.603C75.8212 146.306 52.711 142.146 45.4436 142.146C44.0667 142.146 43.3294 142.49 43.0364 143.716C42.707 144.413 42.2455 149.615 42.977 153.469C43.0134 153.653 43.1781 153.777 43.3007 153.854C46.1368 155.622 81.3019 161.731 83.0388 161.46C84.0768 161.291 84.3295 161.148 84.4349 160.13C85.6375 148.557 85.3713 148.054 82.9124 147.603ZM44.8518 152.548C44.555 149.053 44.6967 147.597 45.0529 143.73C45.0931 143.295 75.5129 148.26 81.9128 149.082C82.5697 149.165 83.0886 149.23 83.1633 149.271C83.4218 149.931 82.5601 159.515 82.5007 159.685C82.2192 159.806 47.3222 153.557 44.8518 152.548Z" fill="black"/>
<path d="M208.043 144.481C207.463 125.293 206.838 129.746 206.013 117.492C205.247 106.258 204.814 91.462 202.792 93.3256C202.422 93.6632 202.476 94.2838 202.888 99.1175C203.69 108.497 204.416 120.635 205.383 129.057C205.814 132.788 206.124 135.483 206.459 144.98C206.287 145.139 204.889 145.378 201.823 145.899C188.366 148.186 188.893 148.385 188.879 148.17C188.257 138.06 184.446 99.3647 184.44 99.1925C184.423 98.6776 184.132 98.4781 183.669 98.5463C182.847 98.664 183.14 98.5617 183.962 109.515C184.251 113.38 184.392 119.879 184.827 123.091C187.931 146.066 185.844 149.672 188.814 149.672C189.726 149.672 191.451 149.256 194.088 148.852C197.12 148.387 203.403 147.422 206.71 146.383C207.817 146.407 208.072 145.466 208.043 144.481Z" fill="black"/>
<path d="M125.729 133.909C125.005 130.538 124.038 131.421 97.9025 129.522C97.8469 129.517 97.7627 129.528 97.7071 129.559C95.5757 129.557 95.6351 129.542 95.4111 129.638C94.8193 129.888 94.6355 130.565 95.2827 130.887C95.9875 131.237 95.8841 131.239 99.4479 131.636C99.1664 132.562 98.9423 133.283 98.881 135.025C98.77 138.205 99.8673 138.178 119.102 139.342C120.224 139.411 123.209 139.523 123.276 139.535C123.276 140.824 122.887 141.944 124.274 141.944C125.126 141.944 125.295 140.904 125.519 139.61C125.833 137.796 126.221 136.195 125.729 133.909ZM101.217 134.727C101.397 132.463 101.338 132.081 101.357 131.791L122.139 133.273C123.359 133.423 123.493 134.626 123.462 135.786C123.454 136.026 123.573 137.336 123.445 137.443C123.295 137.568 122.46 137.501 121.3 137.411C109.963 136.521 105.968 136.722 101.487 135.714C101.363 135.685 101.219 135.655 101.196 135.643C101.15 135.562 101.181 135.175 101.217 134.727Z" fill="black"/>
<path d="M219.842 28.7854C219.943 36.55 205.76 40.0469 206.741 36.8347C207.838 33.244 211.741 25.9653 211.98 25.4692C213.068 23.2083 220.125 25.077 219.842 28.7854ZM217.432 29.2662C217.195 27.8681 216.697 26.9849 214.434 26.395C213.993 26.2808 214.116 26.3455 212.379 29.9346C209.684 35.5014 209.922 34.9575 209.78 35.5406C211.04 35.4861 212.113 34.9592 213.42 34.3301C216.266 32.961 216.823 30.9883 217.432 29.2679V29.2662Z" fill="black"/>
<path d="M316.045 100.984C311.259 102.778 262.218 105.006 267.856 106.991C270.828 108.048 299.43 104.375 303.157 104.242C304.097 104.208 305.269 104.167 312.201 103.449C315.3 103.129 317.008 102.587 317.282 101.836C317.506 101.224 316.686 100.742 316.045 100.984Z" fill="black"/>
<path d="M269.431 28.2169C269.927 26.8018 273.403 27.0592 274.927 27.5622C277.376 28.3704 277.673 30.3448 274.504 31.7514C273.826 32.0532 273.835 32.0413 274.427 32.4522C277.175 34.3566 276.821 36.9704 275.546 37.0557C275.076 37.0863 274.435 36.7471 274.303 36.3003C274.144 35.7684 273.826 35.3268 273.544 34.8562C272.64 33.3541 270.743 33.2791 270.417 33.1751C269.598 32.9159 269.936 36.3379 268.552 36.7368C265.622 37.5808 268.209 31.702 269.431 28.2169ZM272.227 28.8103C271.153 28.8103 271.189 28.7642 271.02 29.4138C270.708 30.6142 270.295 31.3115 271.166 31.0592C272.3 30.7318 275.616 29.8128 274.584 29.2843C273.801 28.8819 272.912 28.9279 272.227 28.8103Z" fill="black"/>
<path d="M128.865 145.676C128.472 144.34 119.755 145.26 98.6324 142.597C94.6684 142.096 94.2548 142.045 93.9981 142.734C93.9388 142.894 93.9733 143.064 94.0939 143.216C95.6565 145.148 118.872 147.136 120.017 146.684C121.873 146.684 128.045 146.611 128.294 146.468C128.482 146.358 128.979 146.069 128.865 145.676Z" fill="black"/>
<path d="M267.019 27.4811C267.007 27.7863 266.927 28.0062 266.563 28.0778C260.582 29.2389 261.184 26.9287 260.017 30.6507C263.311 30.4171 263.208 30.1034 265.207 30.4239C265.481 30.4682 265.611 31.0854 265.377 31.244C264.759 31.6566 264.481 31.7316 261.681 32.2005C260.046 32.4733 259.014 32.2466 258.926 33.1383C258.788 34.5364 256.815 34.4579 263.568 33.6736C266.191 33.3684 265.578 34.9149 264.19 35.2184C253.989 37.4536 255.791 35.452 258.943 27.7982C259.129 27.3464 259.472 27.0855 260.021 26.9713C261.549 26.6542 267.078 26.0881 267.022 27.4811H267.019Z" fill="black"/>
<path d="M228.347 27.2732C229.602 27.5937 230.555 27.65 230.1 28.2689C229.261 29.4044 226.553 29.546 225.394 29.534C224.538 29.5255 224.596 29.4982 224.289 31.0395C224.826 31.2629 226.764 30.6457 228.309 30.9287C228.979 31.0515 229.422 31.6141 228.765 32.2364C228.098 32.8673 227.126 32.9508 223.751 33.0958C223.328 33.1145 223.307 33.1145 222.694 34.8315C222.497 35.3856 225.753 34.3933 227.154 34.8315C227.832 35.0429 227.275 36.4512 226.028 36.6132C221.061 37.2594 219.464 37.5305 220.927 33.5374C223.188 27.3653 222.271 27.7693 228.321 27.3789L228.349 27.2749L228.347 27.2732Z" fill="black"/>
<path d="M198.218 35.9616C202.529 35.9343 203.998 35.7706 204.18 36.5617C204.434 37.6717 200.874 38.1917 199.603 38.1457C193.383 37.9274 184.83 39.1704 184.553 38.0553C184.472 37.7279 184.386 37.3153 184.823 37.0886C186.927 35.9974 196.587 35.9718 198.218 35.9616Z" fill="black"/>
<path d="M280.046 37.823C278.705 37.8417 278.552 36.5937 279.387 36.1299C280.05 35.7633 280.961 35.5229 282.378 34.7437C283.194 34.2953 280.63 33.9594 279.259 29.9425C278.86 28.7745 279.872 28.1505 280.465 28.304C281.478 28.5665 283.213 32.4948 283.928 31.9475C285.325 30.8768 285.134 30.7319 286.147 29.361C286.767 28.5205 288.24 28.9621 287.874 30.084C287.307 31.8231 284.533 36.9824 280.044 37.8247L280.046 37.823Z" fill="black"/>
<path d="M248.784 27.3089C249.222 26.644 250.348 27.0787 250.45 28.6201C250.702 32.4358 250.555 32.9184 250.781 33.747C252.679 32.1988 254.781 26.4632 256.189 27.0463C256.936 27.3549 256.513 28.3183 256.12 29.0156C254.1 32.6046 254.05 32.886 251.442 35.7282C250.611 36.6336 249.056 36.6659 248.766 35.0598C248.548 33.8527 248.087 28.3609 248.782 27.3089H248.784Z" fill="black"/>
<path d="M233.242 28.3722C233.552 27.2299 235.441 26.8241 235.527 27.7585C235.651 29.1207 233.945 33.2741 233.409 34.4642C234.487 34.6228 237.432 33.6475 238.805 33.8606C240.113 34.0635 239.77 35.7242 238.099 35.9407C226.813 37.4036 230.85 37.211 233.244 28.374L233.242 28.3722Z" fill="black"/>
<path d="M74.0507 99.5614C74.8167 100.446 73.5471 101.797 72.2429 101.998C64.0506 103.26 61.6932 99.0993 64.8127 97.7541C67.195 96.7277 72.2161 97.4438 74.0507 99.5614Z" fill="black"/>
<path d="M196.701 28.6525C195.817 28.5161 194.248 28.4479 194.861 27.6175C195.748 26.4172 200.637 26.6985 202.655 26.4206C203.749 26.2706 206.755 26.1171 208.333 26.4888C209.116 26.673 208.523 27.7318 207.747 27.8579C202.927 28.6422 201.734 28.0984 196.701 28.6525Z" fill="black"/>
<path d="M199.551 31.1318C201.29 31.1318 206.422 30.9084 205.313 32.0951C204.268 33.2153 200.834 33.1743 199.271 33.0465C197.366 32.893 195.949 33.3159 193.589 32.9169C192.722 32.7703 192.517 31.6825 193.272 31.5375C197.337 30.7567 199.559 31.3176 199.551 31.1318Z" fill="black"/>
<path d="M241.547 35.5116C241.821 34.4698 243.362 28.3318 244.149 27.5237C244.881 26.7735 246.212 27.2082 246.015 28.2415C245.89 28.8996 245.791 29.1929 243.831 35.5065C243.605 36.2362 243.343 36.8364 242.535 36.7034C241.409 36.5175 241.712 35.5474 241.547 35.5116Z" fill="black"/>
<path d="M132.591 51.6241C131.551 51.4826 129.876 52.7801 121.783 59.0357C110.636 67.6545 106.101 71.0986 106.11 72.0943C106.11 72.3654 106.348 72.6263 106.587 72.6263C107.384 72.6263 110.963 70.8394 132.061 53.179C132.591 52.734 133.246 51.7144 132.591 51.6241Z" fill="black"/>
<path d="M145.62 52.0603C143.644 51.9069 123.034 69.5383 121.933 70.8034C121.112 71.7548 122.09 72.7147 123.191 71.898C124.737 70.7522 148.285 52.0603 145.62 52.0603Z" fill="black"/>
<path d="M118.794 52.9587C118.731 52.8479 118.564 52.6808 118.123 52.8206C117.298 53.0832 96.9931 66.4725 98.4639 68.3088C98.709 68.6123 99.3028 68.5663 99.5326 68.4316C99.8352 68.2543 104.835 64.5732 109.492 61.0148C119.167 53.6237 118.97 53.2707 118.794 52.9587Z" fill="black"/>
<path d="M155.968 159.562C155.171 159.531 154.947 159.993 154.949 160.703C154.949 162.276 153.852 164.89 152.12 165.212C148.421 165.9 146.728 155.629 151.356 154.735C151.663 154.679 152.367 154.403 152.473 153.958C152.622 153.323 151.207 152.551 149.533 153.472C143.982 156.519 146.153 167.214 151.791 167.214C155.018 167.214 156.613 163.954 156.816 161.073C156.82 161.052 156.822 161.033 156.822 161.013L156.826 160.771C156.839 160.28 156.86 159.61 155.968 159.562Z" fill="black"/>
<path d="M299.637 137.634C299.311 137.241 298.509 137.194 298.092 137.545C297.718 137.862 297.689 138.384 297.739 138.972C297.733 140.561 296.694 142.261 295.407 142.778C293.143 143.685 290.836 139.458 292.934 135.618C293.813 134.01 295.058 134.067 295.612 133.673C296.412 133.102 296.031 132.259 294.782 132.222C290.617 132.152 287.743 139.801 291.902 143.809C292.827 144.697 294.233 145.042 295.57 144.701C298.107 144.058 299.154 141.598 299.66 139.34C299.819 138.633 299.959 138.021 299.637 137.634Z" fill="black"/>
<path d="M124.82 114.345C122.647 111.334 117.152 111.192 115 113.912C112.811 116.675 115.609 120.004 117.491 120.074C117.782 120.084 118.039 119.99 118.152 119.763C118.673 118.732 117.717 118.629 116.614 117.4C115.99 116.703 116.093 115.422 117.141 114.74C119.184 113.398 122.369 114.202 123.183 116.317C123.65 117.537 121.754 118.456 123.255 119.265C123.916 119.617 124.728 119.23 125.044 118.624C125.82 117.138 125.737 115.618 124.82 114.345Z" fill="black"/>
<path d="M107.738 112.847C103.663 112.081 101.409 116.107 103.405 118.465C104.807 120.126 107.091 119.014 106.436 118.392C105.329 117.338 105.136 118.852 104.527 116.487C104.663 114.318 107.909 114.133 108.736 116.15C109.041 116.893 109.202 117.203 109.581 117.37C110.123 117.607 111.071 117.214 111.042 116.45C110.981 114.627 109.684 113.212 107.737 112.847H107.738Z" fill="black"/>
<path d="M100.695 113.847C98.0619 112.303 94.7489 113.95 94.6685 116.61C94.6474 117.44 95.2564 118.669 96.1086 118.27C96.8114 117.936 96.1871 117.216 97.0067 115.962C97.5774 115.09 99.3526 115.029 100.021 115.331C100.126 115.379 100.253 115.37 100.354 115.315C100.544 115.213 101.907 114.558 100.695 113.847Z" fill="black"/>
<path d="M288.962 50.0598C281.049 63.5429 277.16 69.7048 278.738 70.4993C279.172 70.721 279.661 70.5658 279.963 70.1839C280.067 70.0509 290.632 51.3999 290.729 50.0257C290.785 49.2755 289.672 48.8475 288.962 50.0598Z" fill="black"/>
<path d="M282.488 49.4842C282.461 49.4041 282.384 49.3205 282.3 49.2847C281.544 48.9506 281.128 49.4297 280.971 49.6087C279.841 50.9045 274.244 60.1217 274.267 60.9487C274.295 62.0399 275.433 62.2513 275.975 61.4465C276.046 61.3408 282.737 50.2259 282.488 49.4842Z" fill="black"/>
<path d="M294.215 57.79C294.14 57.64 293.92 57.5718 293.755 57.6451C292.758 58.0935 286.915 66.98 287.082 68.3184C287.149 68.8606 287.964 68.8077 288.28 68.5639C288.842 68.136 294.918 59.1932 294.217 57.7917L294.215 57.79Z" fill="black"/>
<path d="M199.789 52.4949C199.539 52.3841 199.158 52.425 198.907 52.7813C196.637 56.0055 187.357 73.0128 187.993 73.8688C188.156 74.1535 188.388 74.5235 188.788 74.5201C189.523 74.5115 190.042 73.4885 193.361 66.8902C200.249 53.2127 200.659 52.8836 199.789 52.4949Z" fill="black"/>
<path d="M192.367 54.4251C192.333 54.3501 192.214 54.2444 192.13 54.2137C191.687 54.0586 191.151 54.7508 191.094 54.8514C185.743 64.321 184.171 67.0421 184.801 68.014C185.002 68.3226 185.475 68.4215 185.668 68.3703C186.735 68.1777 187.555 65.8486 190.567 59.402C192.618 55.0117 192.451 54.6042 192.367 54.4251Z" fill="black"/>
<path d="M170.385 81.5246C170.349 80.5494 170.527 80.1557 169.514 79.0423C169.127 78.6144 163.783 77.6613 161.119 78.2563C158.765 78.7815 159.278 80.4882 159.206 83.7464C159.171 85.3031 159.081 89.5298 159.234 90.3328C159.234 90.8818 159.259 91.3388 158.463 91.4752C158.059 91.5434 157.806 91.3388 157.668 91.0506C157.427 90.5374 157.164 90.0121 157.03 89.4701C156.45 87.1257 151.592 88.0191 151.433 90.875C151.325 92.8136 151.659 94.8102 153.03 96.3191C154.874 98.3446 157.093 98.1433 159.232 98.1484C159.64 98.1484 159.656 98.198 159.822 100.491C160 102.941 163.413 103.047 166.36 103.216C169.505 102.89 170.77 103.004 170.812 100.271C170.879 96.0086 170.629 88.1145 170.384 81.5263L170.385 81.5246Z" fill="black"/>
<path d="M176.404 86.4531C174.234 65.1985 175.023 52.3377 173.097 50.9413C172.805 50.7299 172.56 50.7845 172.304 50.8049C171.392 50.8646 171.448 51.0573 169.887 53.1288C162.802 62.5421 152.307 76.9494 147.12 87.2595C146.624 88.245 146.007 89.488 146.386 90.216C146.961 91.3174 148.96 91.7658 150.228 91.9295C156.394 92.724 165.737 92.0079 173.143 89.2612C175.125 88.528 176.557 87.9978 176.4 86.4531H176.404ZM162.934 90.008C153.077 80.6799 153.054 80.8896 153.32 80.4702C162.208 66.5438 162.108 66.8831 171.953 53.4749C172.181 55.0418 172.401 59.2396 172.633 63.6385C173.82 86.2229 174.491 86.2195 174.382 86.6457C174.144 86.777 173.571 87.0634 173.139 87.2135C168.324 88.8861 167.633 89.3379 162.934 90.008ZM148.408 88.9867C149.105 87.6295 150.994 84.1973 152.143 82.4821C156.976 87.3294 154.774 85.2118 160.308 90.3149C157.265 90.5928 152.981 90.6934 149.781 90.0199C148.226 89.6926 148.188 89.7301 148.408 88.9867Z" fill="black"/>
<path d="M200.633 234.247C199.076 232.854 186.919 232.933 181.764 233.03C181.427 233.037 181.251 233.216 181.199 233.38C180.885 234.37 183.643 234.513 194.945 235.371C196.031 235.453 199.869 235.755 200.657 235.126C200.966 234.882 200.924 234.507 200.633 234.246V234.247Z" fill="black"/>
<path d="M176.307 199.986C176.171 200.005 176.018 200.117 175.985 200.236C175.922 200.477 176.098 200.651 176.878 201.128C187.012 207.345 199.04 212.199 202.106 213.193C202.569 213.358 202.952 213.322 203.425 212.812C203.514 212.717 203.521 212.523 203.452 212.415C202.765 211.327 177.854 199.906 176.305 199.984L176.307 199.986Z" fill="black"/>
<path d="M303.427 170.723C303.367 170.683 303.155 170.566 302.885 170.758C301.657 171.621 289.627 192.073 290.734 194.241C290.809 194.386 291.035 194.831 291.496 194.83C292.354 194.828 293.074 193.445 295.97 187.607C300.372 178.743 304.189 171.251 303.425 170.724L303.427 170.723Z" fill="black"/>
<path d="M337.658 181.582C333.171 184.872 323.405 193.404 322.755 194.94C322.642 195.205 322.7 195.629 323.056 195.762C324.963 196.466 337.769 183.42 339.025 181.875C339.303 181.536 339.542 181.241 339.314 181.011C338.945 180.634 338.487 180.973 337.658 181.582Z" fill="black"/>
<path d="M208.435 175.576C208.281 175.497 208.075 175.54 207.979 175.67C207.27 176.629 218.333 191.896 220.287 193.852C220.725 194.288 221.217 194.401 221.826 194.094C221.888 194.063 222.029 193.971 222.033 193.761C222.058 192.232 210.365 176.597 208.435 175.576Z" fill="black"/>
<path d="M364.793 202.62C365.197 202.333 365.199 202.042 365.067 201.865C364.064 200.518 351.476 206.906 350.368 208.026C349.831 208.572 350.507 209.569 351.652 209.271C354.063 208.656 362.108 204.299 364.791 202.622L364.793 202.62Z" fill="black"/>
<path d="M258.753 177.761C257.71 180.3 256.13 191.621 256.379 193.694C256.444 194.233 256.825 194.487 257.327 194.487C258.129 194.487 258.46 193.558 258.663 191.747C258.682 191.573 259.824 180.056 259.766 177.943C259.759 177.388 258.949 177.273 258.753 177.761Z" fill="black"/>
<path d="M355.153 234.678C353.993 234.777 352.872 235.245 353.388 236.089C353.941 236.996 357.723 236.553 358.866 236.401C367.294 235.291 372.695 234.464 373.579 233.772C376.008 231.883 359.041 234.338 355.153 234.678Z" fill="black"/>
<path d="M345.773 218.659C344.754 209.03 344.967 209.404 342.022 209.088C326.906 207.47 224.806 209.001 222.688 209.317C220.802 209.602 220.982 209.806 220.722 211.257C219.659 222.79 219.697 243.366 219.689 254.815C219.136 255.108 216.3 253.747 208.406 254.522C193.762 255.961 195.139 256.238 194.431 263.239C193.209 275.35 193.299 281.338 193.425 289.159C193.475 292.391 192.987 293.588 195.02 294.13C214.301 299.257 232.146 300.546 233.914 300.867C234.533 301.701 233.477 302.935 236.116 303.915C246.113 307.624 288.365 313.673 292.634 313.673C294.79 313.673 295.717 313.23 299.708 312.623C316.811 310.019 331.37 306.12 334.019 305.076C335.386 304.538 335.396 304.108 335.468 300.765C335.595 294.891 335.277 295.939 335.405 294.761C335.526 293.656 335.545 289.66 335.539 289.488C335.735 289.431 343.448 288.163 345.838 287.447C348.061 286.785 347.238 286.103 347.552 278.552C348.245 261.858 347.146 231.668 345.771 218.66L345.773 218.659ZM298.421 210.285C316.295 210.575 316.209 209.315 316.292 210.862C316.115 231.579 316.964 232.566 316.799 233.937C310.893 233.997 301.165 233.634 299.235 233.77C299.12 233.494 299.24 231.84 298.984 228.532C298.674 224.611 298.993 213.278 298.465 210.683C298.432 210.521 298.388 210.301 298.423 210.285H298.421ZM326.859 246.987C312.167 248.462 306.969 249.083 294.719 251.328C293.049 251.011 244.487 245.616 244.397 245.606C263.326 243.951 302.128 243.361 326.859 246.987ZM298.605 235.478C298.765 235.784 298.926 236.089 298.923 236.416C298.894 237.823 299.06 239.214 298.811 240.672C298.708 241.279 298.773 241.923 298.735 242.598C298.718 242.984 298.141 243.427 297.764 243.166C297.333 242.936 297.207 242.689 297.18 242.116C297.149 241.507 296.879 236.176 297.109 235.616C297.375 234.975 298.314 234.95 298.603 235.477L298.605 235.478ZM296.751 210.306C296.778 210.386 296.76 210.63 296.745 210.848C296.54 213.775 297.055 233.676 297.05 233.763C297.011 233.758 296.971 233.755 296.931 233.753C270.265 232.921 268.168 233.676 268.156 232.854C268.183 232.452 267.993 213.286 267.752 210.374C271.528 210.111 290.435 210.273 296.751 210.306ZM222.619 211.537C222.667 210.904 222.619 211.44 249.749 210.396C251.612 210.323 253.386 210.296 253.694 210.579C253.715 210.597 253.759 210.637 253.744 210.809C253.579 212.729 253.577 211.813 253.587 221.968C253.6 234.21 253.675 233.018 253.384 233.023C253.391 233.373 253.393 233.466 253.384 233.023C250.852 233.027 225.216 232.35 222.698 232.582C222.401 232.609 222.062 232.64 221.987 232.548C221.98 232.455 221.961 228.369 221.936 227.003C221.838 221.791 222.28 216.023 222.619 211.537ZM213.253 255.921C213.445 255.942 232.75 258.059 233.016 258.24C233.024 258.264 233.022 258.342 233.02 258.406V258.426C233.412 258.431 233.518 258.433 233.02 258.426C232.976 260.104 233.033 261.585 232.979 261.916C232.979 261.916 205.61 258.325 199.649 257.413C202.742 256.694 210.12 255.671 213.253 255.921ZM232.842 263.708C232.842 263.708 232.654 274.48 232.621 275.72C232.365 275.693 224.952 274.369 223.872 274.337C223.51 274.327 223.133 274.315 223.043 274.189C222.805 273.396 223.131 263.565 223.418 262.395C223.56 262.402 223.962 262.492 224.163 262.509C232.388 263.263 232.844 263.301 232.842 263.706V263.708ZM208.646 295.367C207.924 295.525 197.324 293.015 197.133 292.971C195.438 292.577 195.501 292.697 195.585 292.061C195.951 290.289 195.501 282.262 195.842 280.964C198.519 281.79 208.787 282.963 208.979 283.128C209.272 283.525 208.266 294.722 208.646 295.367ZM210.528 261.33C210.017 263.882 209.831 271.435 209.622 272.293C199.475 271.079 199.787 270.901 196.139 270.847C196.06 270.695 196.158 263.185 196.719 260.85C196.997 259.683 196.918 259.251 196.97 258.943C197.935 258.907 203.291 259.667 204.232 259.798C210.605 260.689 210.425 260.535 210.616 260.627C210.654 260.7 210.589 261.019 210.528 261.33ZM233.588 299.106C233.202 299.061 233.472 298.834 222.696 297.66C222.104 297.595 221.924 297.581 221.93 297.341C222.146 286.727 222.236 285.22 222.481 284.998C222.673 284.952 227.583 285.819 232.514 286.63C232.978 286.707 232.811 286.715 233.025 291.402C233.28 297.015 233.636 298.463 233.59 299.104L233.588 299.106ZM233.588 246.559C233.341 249.163 233.441 253.626 233.181 256.409C232.968 256.426 232.357 256.346 231.551 256.242C226.549 255.604 226.223 255.686 222.554 255.262C221.735 255.166 222.06 255.309 221.962 243.91C221.962 243.809 221.959 243.671 221.93 243.671C223.454 243.671 235.107 244.027 239.41 244.281C237.177 244.503 233.768 244.644 233.587 246.557L233.588 246.559ZM256.404 252.615C255.188 275.471 255.211 306.227 255.199 306.406C249.92 305.448 241.873 304.057 236.614 302.045C236.101 301.847 235.898 301.551 235.892 300.984C235.863 299.119 234.864 280.288 234.864 280.288C234.862 279.931 234.858 279.592 234.833 279.561C235.404 279.505 251.35 282.767 252.191 281.854C252.279 281.759 252.277 281.757 252.271 280.905C252.191 270.854 253.229 269.942 251.687 269.769C247.417 269.341 236.105 268.402 234.85 267.803C234.887 264.561 235.249 248.54 235.454 247.267C235.48 247.096 235.509 246.921 235.486 246.914C235.534 246.9 235.731 246.912 235.825 246.917C251.664 247.809 254.531 248.721 256.459 248.721C256.599 248.902 256.532 250.143 256.402 252.615H256.404ZM293.269 311.654C292.85 311.772 290.885 311.429 288.719 311.133C282.251 310.238 270.029 309.204 269.349 308.413C269.474 301.349 269.68 265.451 269.983 250.557C269.983 250.452 269.989 250.32 269.968 250.32C270.117 250.261 293.009 252.776 293.294 252.982L292.27 272.639C291.737 273.053 274.581 271.214 273.549 272.071C273.338 272.242 273.392 272.071 273.332 284.304C273.33 284.816 273.895 284.935 281.672 285.442C283.158 285.539 289.876 285.97 292.032 286.265C292.12 286.388 292.113 287.065 292.103 288.088C291.961 301.771 293.338 307.015 293.269 311.654ZM293.08 284.552H293.042C292.498 284.548 292.17 284.545 292.18 275.926C292.18 274.351 294.118 274.305 294.081 276.105C293.917 284.364 293.599 284.552 293.08 284.552ZM295.317 311.627C295.341 311.654 295.359 311.687 295.363 311.714C294.964 311.753 294.897 311.803 295.317 311.627ZM311.408 308.466C311.217 308.504 295.933 311.489 295.353 311.55C293.978 292.34 294.874 310.26 294.204 286.789C294.189 286.17 294.237 286.811 305.606 284.11C306.925 283.796 307.381 283.655 307.335 282.876C307.412 280.137 306.935 272.965 306.904 272.274C306.866 271.358 306.29 270.915 305.533 270.915C305.269 270.915 294.321 272.912 294.395 272.702C294.443 272.305 294.466 270.994 294.706 267.815C294.888 265.413 294.865 264.266 294.995 253.134C295.138 253.007 296.251 252.885 299.33 252.392C309.467 250.767 309.29 250.871 309.25 251.192C309.17 251.795 311.092 293.774 311.525 296.809H311.483C311.483 305.213 311.563 308.224 311.408 308.466ZM333.061 303.17C332.54 303.798 324.511 305.646 323.676 305.77C323.622 305.503 323.636 302.908 323.584 301.02C323.572 300.562 322.624 279.636 321.966 259.758C321.885 257.313 321.587 251.279 321.169 249.48C321.248 249.453 321.644 249.41 322.362 249.332C331.74 248.303 332.245 248.024 332.255 248.235C332.286 248.907 332.843 259.275 332.837 265.897C325.733 266.782 325.746 267.289 325.754 267.563C325.855 271.403 325.964 274.513 326.198 278.151C326.296 279.646 332.431 277.872 333.239 277.81C333.285 278.869 333.492 297.946 333.063 303.172L333.061 303.17ZM331.146 234.302C330.951 234.345 331.039 233.415 330.865 228.865C330.284 213.871 329.49 210.751 329.71 210.287C329.752 210.277 341.449 210.645 342.517 210.809C343.437 212.531 344.595 234.483 344.789 234.636C344.423 234.718 331.342 234.309 331.148 234.304L331.146 234.302ZM345.285 272.814C344.846 285.247 345.557 285.455 344.741 285.622C338.578 286.884 339.999 286.366 335.579 287.268C335.451 286.801 335.399 254.786 334.145 247.69V247.673C334.375 247.662 334.76 247.783 335.488 247.783C343.343 247.811 343.504 247.792 345.084 247.627C345.472 247.579 345.338 271.266 345.285 272.814Z" fill="black"/>
</svg>
